<?xml version="1.0" standalone="no"?>
<!DOCTYPE svg PUBLIC "-//W3C//DTD SVG 1.1//EN" "http://www.w3.org/Graphics/SVG/1.1/DTD/svg11.dtd" >
<svg xmlns="http://www.w3.org/2000/svg">
<metadata>
This is a custom SVG webfont generated by Fontspring.
</metadata>
<defs>
<font id="webfontTdhnePBA" horiz-adv-x="737" >
<font-face units-per-em="2048" ascent="1542" descent="-506" />
<missing-glyph horiz-adv-x="382" />
<glyph unicode=" "  horiz-adv-x="382" />
<glyph unicode="&#x09;" horiz-adv-x="382" />
<glyph unicode="&#xa0;" horiz-adv-x="382" />
<glyph unicode="!" horiz-adv-x="477" d="M100 68q0 39 32 70.5t71 31.5q35 0 57.5 -23.5t22.5 -56.5q0 -41 -31 -72.5t-72 -31.5q-35 0 -57.5 23.5t-22.5 58.5zM164 342l125 1024h121l-125 -1024h-121z" />
<glyph unicode="&#x22;" horiz-adv-x="632" d="M178 823l39 543h150l-93 -543h-96zM446 823l41 543h150l-94 -543h-97z" />
<glyph unicode="#" horiz-adv-x="739" d="M6 451l14 114h170l66 262h-154l15 115h168l106 424h109l-107 -424h137l109 424h109l-107 -424h147l-14 -115h-164l-65 -262h151l-14 -114h-166l-115 -451h-108l115 451h-140l-114 -451h-107l113 451h-154zM297 565h139l66 262h-140z" />
<glyph unicode="$" d="M37 100l84 88q98 -90 184 -90q96 0 167 79t71 188q0 82 -38 132t-149 121q-80 51 -115.5 82t-62.5 72q-53 82 -53 184q0 172 108 285q68 70 183 98l18 158h98l-18 -156q47 -2 104.5 -24.5t96.5 -54.5l-74 -97q-90 63 -170 64q-98 0 -162.5 -69.5t-64.5 -176.5 q0 -84 41 -138t164 -132q137 -86 174 -156q39 -72 39 -164q0 -150 -90.5 -266.5t-223.5 -138.5l-22 -174h-99l21 170q-76 14 -121 38.5t-90 77.5z" />
<glyph unicode="%" horiz-adv-x="1013" d="M123 0l751 1366h72l-749 -1366h-74zM139 887q0 240 80 383q57 106 148 106q121 0 120 -188q0 -109 -20.5 -225.5t-52.5 -180.5q-53 -109 -146 -108q-129 0 -129 213zM215 893q0 -150 66 -150q53 0 86 113q47 158 47 336q0 115 -58 115q-47 0 -80 -78q-61 -143 -61 -336z M582 203q0 240 80 383q57 106 147 106q121 0 121 -188q0 -109 -20.5 -225.5t-53.5 -180.5q-53 -109 -145 -108q-129 0 -129 213zM657 209q0 -150 66 -150q53 0 86 113q47 158 47 336q0 115 -57 115q-47 0 -80 -78q-62 -143 -62 -336z" />
<glyph unicode="&#x26;" horiz-adv-x="894" d="M90 297q0 240 250 448q-84 195 -84 306q0 125 90 216t213 91q94 0 153.5 -60.5t59.5 -156.5q0 -102 -64.5 -195.5t-222.5 -220.5l179 -446q49 49 106 114l72 -86q-45 -53 -135 -141l61 -166h-131l-31 76q-113 -94 -235 -94q-121 0 -201 90t-80 225zM207 319 q0 -92 49 -152.5t123 -60.5q88 0 182 78l-178 451q-176 -164 -176 -316zM373 1059q0 -70 67 -236q6 4 15 11q84 59 140 143t56 149q0 53 -31.5 87t-80.5 34q-70 0 -118 -54t-48 -134z" />
<glyph unicode="'" horiz-adv-x="362" d="M178 823l39 543h150l-93 -543h-96z" />
<glyph unicode="(" horiz-adv-x="526" d="M106 344q0 287 98.5 599t270.5 568l92 -49q-180 -299 -263 -564t-83 -544q0 -324 127 -676l-104 -49q-138 326 -138 715z" />
<glyph unicode=")" horiz-adv-x="526" d="M-16 -322q346 567 346 1108q0 330 -127 676l104 49q137 -322 137 -712q0 -291 -98 -603.5t-270 -566.5z" />
<glyph unicode="*" horiz-adv-x="739" d="M182 1288l31 68l217 -103l31 242l69 -8l-28 -244l235 47l15 -71l-236 -48l115 -213l-62 -34l-116 213l-164 -179l-53 50l165 178z" />
<glyph unicode="+" horiz-adv-x="739" d="M94 641v113h246v247h115v-247h245v-113h-245v-250h-115v250h-246z" />
<glyph unicode="," horiz-adv-x="356" d="M-76 -250l191 420l118 -57l-227 -404z" />
<glyph unicode="-" horiz-adv-x="278" d="M-6 414l18 143h279l-19 -143h-278z" />
<glyph unicode="." horiz-adv-x="356" d="M39 68q0 39 31.5 70.5t70.5 31.5q35 0 57.5 -23.5t22.5 -56.5q0 -41 -30.5 -72.5t-71.5 -31.5q-35 0 -57.5 23.5t-22.5 58.5z" />
<glyph unicode="/" horiz-adv-x="823" d="M-127 -354l1016 1847h115l-1014 -1847h-117z" />
<glyph unicode="0" d="M74 389q0 215 43 437.5t110 349.5q109 209 277 208q219 0 219 -354q0 -219 -43 -460.5t-105 -372.5q-102 -215 -266 -215q-113 0 -174 105t-61 302zM197 406q0 -307 135 -308q57 0 98 55.5t78 182.5q96 336 96 692q0 240 -119 240q-98 0 -168 -166q-53 -133 -86.5 -325.5 t-33.5 -370.5z" />
<glyph unicode="1" d="M248 1247l41 119h272l-168 -1366h-125l154 1247h-174z" />
<glyph unicode="2" d="M16 0l349 580q133 223 180 335.5t47 210.5q0 66 -33 104t-90 38q-129 0 -170 -162q-10 -35 -18 -113h-123q20 135 45 195q35 92 108.5 144t167.5 52q111 0 175.5 -67.5t64.5 -183.5q0 -102 -53 -242q-45 -117 -195 -356l-256 -414h367l-15 -121h-551z" />
<glyph unicode="3" d="M61 240q0 59 13 135h123q-8 -74 -9 -113q0 -158 131 -158q106 0 156 121q43 106 43 252q0 215 -194 215h-60l15 113h51q84 0 129 23.5t78 82.5q45 84 45 209q0 141 -127 142q-98 0 -136 -88q-20 -47 -30 -127h-117q20 162 98 249.5t201 87.5q106 0 170 -64.5t64 -172.5 q0 -303 -197 -391q131 -61 131 -262q0 -242 -87 -377t-245 -135q-246 0 -246 258z" />
<glyph unicode="4" d="M61 367l17 129l461 870h123l-109 -883h100l-14 -116h-100l-45 -367h-123l45 367h-355zM195 483h235l51 430q6 57 47 252q-33 -90 -106 -233z" />
<glyph unicode="5" d="M47 59l49 125q98 -78 183 -78q100 0 166.5 108t66.5 267q0 113 -46 172.5t-134 59.5q-84 0 -189 -56l170 709h400l-15 -119h-288l-101 -418q49 6 74 7q119 0 187.5 -91.5t68.5 -248.5q0 -223 -105.5 -368.5t-267.5 -145.5q-125 -1 -219 77z" />
<glyph unicode="6" d="M76 279q0 262 174 591l264 496h129l-342 -639q78 47 139 47q94 0 148.5 -76.5t54.5 -208.5q0 -250 -90 -383q-86 -125 -236 -124q-115 0 -178 78t-63 219zM199 295q0 -96 35.5 -149.5t101.5 -53.5q96 0 143 121q45 113 45 272q0 84 -34.5 132.5t-94.5 48.5 q-86 0 -141 -104.5t-55 -266.5z" />
<glyph unicode="7" d="M61 0l533 1247h-387l14 119h553l-581 -1366h-132z" />
<glyph unicode="8" d="M70 270q0 186 59 315.5t164 170.5q-109 74 -109 225q0 178 88 290.5t228 112.5q102 0 159.5 -67.5t57.5 -190.5q0 -270 -182 -370q117 -70 116 -252q0 -113 -27.5 -219.5t-70.5 -169.5q-92 -133 -250 -133q-109 0 -171 76.5t-62 211.5zM193 297q0 -199 131 -199 q104 0 159 127q49 119 49 277q0 90 -35.5 143t-97.5 53q-90 0 -148 -112.5t-58 -288.5zM305 977q0 -164 119 -164q76 0 123 81t47 210q0 164 -119 164q-80 0 -125 -77t-45 -214z" />
<glyph unicode="9" d="M147 0l342 639q-76 -47 -139 -47q-92 0 -146 76.5t-54 208.5q0 250 90 383q82 125 233 124q115 0 178.5 -77.5t63.5 -216.5q0 -264 -174 -594l-262 -496h-132zM270 883q0 -84 34 -133.5t93 -49.5q86 0 140.5 104.5t54.5 268.5q0 96 -36 149.5t-99 53.5q-94 0 -144 -123 q-43 -116 -43 -270z" />
<glyph unicode=":" horiz-adv-x="356" d="M39 68q0 39 31.5 70.5t70.5 31.5q35 0 57.5 -23.5t22.5 -56.5q0 -41 -30.5 -72.5t-71.5 -31.5q-35 0 -57.5 23.5t-22.5 58.5zM133 840q0 41 32 71.5t73 30.5q33 0 56 -22.5t23 -57.5q0 -41 -31.5 -72.5t-72.5 -31.5q-35 0 -57.5 23.5t-22.5 58.5z" />
<glyph unicode=";" horiz-adv-x="356" d="M-76 -250l191 420l118 -57l-227 -404zM141 840q0 41 32 71.5t71 30.5q35 0 57.5 -23.5t22.5 -58.5q0 -41 -31 -71.5t-72 -30.5q-35 0 -57.5 23.5t-22.5 58.5z" />
<glyph unicode="&#x3c;" horiz-adv-x="1024" d="M92 633v108l887 408v-123l-754 -338l754 -340v-121z" />
<glyph unicode="=" d="M94 532v113h606v-113h-606zM94 750v112h606v-112h-606z" />
<glyph unicode="&#x3e;" horiz-adv-x="1024" d="M94 225v125l754 338l-754 338v123l887 -408v-108z" />
<glyph unicode="?" horiz-adv-x="669" d="M135 68q0 39 31 70.5t72 31.5q33 0 56 -23.5t23 -56.5q0 -41 -31.5 -72.5t-72.5 -31.5q-33 0 -55.5 23.5t-22.5 58.5zM174 1020l12 96q35 268 267 268q88 0 140 -50t52 -136q0 -139 -43 -315q-49 -207 -248 -213l-41 -328h-118l53 438h86q63 0 97 24.5t50 82.5 q39 147 39 280q0 106 -88 107q-106 0 -127 -168l-10 -86h-121z" />
<glyph unicode="@" horiz-adv-x="1333" d="M111 684q0 297 177 498.5t437 201.5q240 0 402.5 -173t162.5 -427q0 -199 -92 -343t-219 -144q-45 0 -83 31.5t-48 79.5l-6 28q-53 -86 -89 -114.5t-91 -28.5q-100 0 -166 103.5t-66 258.5q0 168 80 281t199 113q86 0 133 -82q10 -16 28 -58l15 121h104l-53 -455 q-6 -51 -6 -96q0 -80 67 -80q76 0 134.5 113t58.5 258q0 219 -132 361.5t-333 142.5q-209 0 -352.5 -171t-143.5 -421q0 -162 66.5 -300t183.5 -216q119 -78 279 -78q182 0 354 109l47 -105q-193 -111 -399 -110q-197 0 -346 96q-141 90 -222 253t-81 353zM549 647 q0 -109 32.5 -178.5t84.5 -69.5q74 0 128 93.5t54 220.5q0 100 -37 164.5t-92 64.5q-72 0 -121 -85t-49 -210z" />
<glyph unicode="A" horiz-adv-x="655" d="M-55 0l432 1366h117l102 -1366h-133l-17 281h-284l-84 -281h-133zM195 389h245l-30 483q-6 106 -7 162q0 45 9 160q-31 -168 -74 -322z" />
<glyph unicode="B" horiz-adv-x="708" d="M53 0l168 1366h197q137 0 190 -45q74 -63 74 -221q0 -197 -88 -309q-39 -51 -125 -91q88 -25 127 -78t39 -149q0 -244 -98 -362q-51 -63 -116 -87t-183 -24h-185zM193 109h65q143 0 195 98q51 96 51 233q0 209 -172 209h-74zM272 762h68q102 0 145 55q70 92 70 295 q0 80 -31.5 112.5t-109.5 32.5h-82z" />
<glyph unicode="C" horiz-adv-x="645" d="M84 412q0 209 48 434t118 342q121 199 309 198q98 0 158 -45l-17 -139q-86 61 -147 62q-160 0 -240 -215q-96 -256 -96 -625q0 -317 180 -318q78 0 176 62l-16 -129q-94 -57 -182 -57q-106 0 -189 81q-102 103 -102 349z" />
<glyph unicode="D" horiz-adv-x="747" d="M53 0l168 1366h158q139 0 213 -43q127 -76 127 -309q0 -254 -53 -537q-33 -172 -81 -269t-128 -149q-86 -59 -238 -59h-166zM193 117h59q156 0 233 157q41 84 72 303.5t31 423.5q0 131 -47 189.5t-156 58.5h-53z" />
<glyph unicode="E" horiz-adv-x="608" d="M53 0l168 1366h420l-14 -117h-295l-60 -481h289l-14 -117h-289l-65 -534h294l-12 -117h-422z" />
<glyph unicode="F" horiz-adv-x="595" d="M53 0l168 1366h428l-14 -117h-303l-60 -481h289l-14 -117h-289l-80 -651h-125z" />
<glyph unicode="G" horiz-adv-x="753" d="M82 324q0 236 38 480.5t91 356.5q104 223 307 223q127 0 191 -96q33 -49 49 -162l-129 -49q-8 98 -38 141.5t-91 43.5q-160 0 -226 -308q-66 -303 -65 -604q0 -246 147 -246q102 0 144 101q35 84 55 272l14 127h-182l14 117h308l-33 -275q-23 -195 -70 -286 q-90 -178 -274 -178q-250 0 -250 342z" />
<glyph unicode="H" horiz-adv-x="778" d="M53 0l168 1366h125l-67 -545h307l67 545h125l-168 -1366h-125l86 705h-307l-86 -705h-125z" />
<glyph unicode="I" horiz-adv-x="346" d="M53 0l168 1366h125l-168 -1366h-125z" />
<glyph unicode="J" horiz-adv-x="452" d="M-53 16l16 131q59 -59 117 -59q63 0 90 55q10 23 20 117l136 1106h125l-138 -1133q-16 -137 -53 -184q-57 -70 -174 -69q-65 -1 -139 36z" />
<glyph unicode="K" horiz-adv-x="663" d="M53 0l168 1366h125l-76 -621l346 621h140l-371 -649l205 -717h-141l-187 688l-84 -688h-125z" />
<glyph unicode="L" horiz-adv-x="530" d="M53 0l168 1366h125l-153 -1249h292l-14 -117h-418z" />
<glyph unicode="M" horiz-adv-x="1007" d="M-14 0l356 1366h109l28 -936q0 -8 1 -51t1 -68q0 -57 -2 -98q16 86 51 213l273 940h106l-2 -1366h-123l15 887q2 94 18 248q-6 -27 -8 -29l-10 -55q-10 -57 -41 -164l-258 -887h-103l-35 889v18q0 63 5 183l2 45q-31 -207 -41 -246l-219 -889h-123z" />
<glyph unicode="N" horiz-adv-x="780" d="M53 0l168 1366h109l192 -928l27 -162q2 98 14 199l109 891h108l-168 -1366h-108l-187 901q-8 41 -18 102.5t-14 90.5q-4 -123 -19 -242l-104 -852h-109z" />
<glyph unicode="O" horiz-adv-x="815" d="M86 410q0 227 44 449t114 339q109 186 274 186q96 0 156 -53q109 -96 108 -364q0 -225 -44 -452.5t-109 -346.5q-104 -186 -281 -186q-262 0 -262 428zM213 391q0 -285 152 -285q135 0 202 220q37 115 63.5 314.5t26.5 352.5q0 268 -149 269q-66 0 -114 -50.5t-85 -156.5 q-41 -117 -68.5 -305.5t-27.5 -358.5z" />
<glyph unicode="P" horiz-adv-x="663" d="M53 0l168 1366h162q162 0 232.5 -61.5t70.5 -202.5q0 -119 -29.5 -219.5t-81.5 -149.5q-80 -80 -264 -80h-53l-80 -653h-125zM272 770h84q111 0 156 78q47 80 47 242q0 115 -74 147q-31 12 -92 12h-61z" />
<glyph unicode="Q" horiz-adv-x="815" d="M86 412q0 227 44 448t114 338q111 186 274 186q96 0 156 -53q109 -96 108 -368q0 -252 -54 -497t-132 -347l80 -156l-107 -63l-65 127q-63 -45 -160 -45q-258 0 -258 430zM213 389q0 -283 154 -283q45 0 84 25l-97 188l107 66l76 -147q51 119 85.5 339t34.5 418 q0 266 -151 267q-125 0 -197 -207q-41 -117 -68.5 -305.5t-27.5 -360.5z" />
<glyph unicode="R" horiz-adv-x="757" d="M63 0l168 1366h168q115 0 172.5 -15.5t96.5 -54.5q70 -72 69 -202q0 -227 -102 -344q-76 -84 -211 -95l231 -655h-143l-231 668l-82 -668h-136zM293 768h84q76 0 117 23.5t67 80.5q39 84 39 211q0 90 -41 128t-139 38h-68z" />
<glyph unicode="S" horiz-adv-x="700" d="M49 51l21 164q92 -111 202 -111q100 0 170 83t70 202q0 70 -37 123t-141 131q-115 86 -161 157.5t-46 166.5q0 172 105.5 294.5t252.5 122.5q109 0 201 -71l-18 -162q-47 61 -89 86t-100 25q-92 0 -157.5 -76t-65.5 -182q0 -72 33 -125.5t112 -112.5q139 -102 189.5 -176 t50.5 -170q0 -178 -115.5 -309t-273.5 -131q-115 -1 -203 71z" />
<glyph unicode="T" horiz-adv-x="534" d="M98 1249l15 117h528l-14 -117h-201l-154 -1249h-125l154 1249h-203z" />
<glyph unicode="U" horiz-adv-x="786" d="M88 236q0 53 14 174l117 956h127l-117 -946q-16 -127 -16 -176q0 -63 37 -100.5t98 -37.5q98 0 141 76q31 51 56 238l117 946h124l-116 -956q-27 -223 -82 -299q-88 -129 -256 -129q-117 0 -180.5 65.5t-63.5 188.5z" />
<glyph unicode="V" horiz-adv-x="657" d="M113 1366h127l59 -905q4 -86 4 -113q0 -37 -6 -162q33 154 65 271l275 909h129l-440 -1366h-111z" />
<glyph unicode="W" horiz-adv-x="1019" d="M113 1366h127l16 -860l2 -25v-16q0 -49 -8 -180q0 -16 -2 -35q0 2 25.5 101.5t45.5 164.5l248 850h109l18 -864l2 -31q3 -35 3 -69q0 -17 -1 -33l-2 -88v-31q20 96 66 258l237 858h127l-403 -1366h-115l-22 889v29v47q0 53 4 122q0 4 1 11.5t2 21t1 23.5l-4 -17l-3 -12 q-1 -4 -1 -6l-8 -43q-14 -74 -46 -182l-258 -883h-114z" />
<glyph unicode="X" horiz-adv-x="641" d="M-55 0l346 694l-178 672h133l80 -338q31 -135 32 -240q23 76 95 232l161 346h136l-340 -672l172 -694h-133l-84 387q-29 139 -31 195q-14 -49 -82 -199l-174 -383h-133z" />
<glyph unicode="Y" horiz-adv-x="638" d="M113 1366h135l78 -399q23 -123 30 -244q29 102 90 250l164 393h135l-339 -768l-74 -598h-125l74 598z" />
<glyph unicode="Z" horiz-adv-x="563" d="M-41 0l526 1249h-338l15 117h495l-530 -1249h340l-14 -117h-494z" />
<glyph unicode="[" horiz-adv-x="538" d="M47 -354l227 1847h324l-12 -96h-205l-203 -1655h205l-12 -96h-324z" />
<glyph unicode="\" horiz-adv-x="823" d="M72 1493h114l564 -1847h-119z" />
<glyph unicode="]" horiz-adv-x="538" d="M-33 -354l13 96h204l205 1655h-207l13 96h323l-227 -1847h-324z" />
<glyph unicode="^" horiz-adv-x="1024" d="M86 762l371 606h161l369 -606h-135l-317 510l-314 -510h-135z" />
<glyph unicode="_" horiz-adv-x="1024" d="M25 -143h1024v-115h-1024v115z" />
<glyph unicode="`" horiz-adv-x="1024" d="M406 1262l106 73l147 -248l-71 -49z" />
<glyph unicode="a" horiz-adv-x="667" d="M63 233q0 145 25 302t59 243q70 164 218 164q82 0 135 -78l8 64h115l-115 -928h-115l8 74q-76 -88 -165 -88q-173 -1 -173 247zM182 246q0 -164 101 -164q82 0 118 92q29 70 53.5 234.5t24.5 277.5q0 160 -100 160q-88 0 -133 -135q-23 -70 -43.5 -216.5t-20.5 -248.5z " />
<glyph unicode="b" horiz-adv-x="657" d="M43 0l184 1493h115l-78 -629q72 78 156 78q182 0 182 -256q0 -141 -25.5 -301t-64.5 -248q-63 -152 -199 -151q-88 0 -145 88l-10 -74h-115zM188 238q0 -156 103 -156q49 0 82 37t55 119q20 76 37.5 210t17.5 226q0 172 -102 172q-109 0 -145 -193q-48 -231 -48 -415z " />
<glyph unicode="c" horiz-adv-x="499" d="M57 315q0 121 28 249t73 210q88 168 237 168q66 0 119 -35l-16 -137q-51 63 -105 64q-94 0 -155 -150q-59 -152 -60 -354q0 -109 33 -172.5t88 -63.5q57 0 127 84l-18 -145q-66 -47 -140 -47q-96 0 -153.5 89.5t-57.5 239.5z" />
<glyph unicode="d" horiz-adv-x="657" d="M53 233q0 145 24.5 302t59.5 243q70 164 217 164q82 0 135 -78l76 629h117l-184 -1493h-115l8 74q-76 -88 -166 -88q-172 -1 -172 247zM172 246q0 -164 100 -164q82 0 119 92q29 70 53.5 234.5t24.5 277.5q0 160 -100 160q-88 0 -133 -135q-23 -70 -43.5 -216.5 t-20.5 -248.5z" />
<glyph unicode="e" horiz-adv-x="638" d="M57 315q0 281 99 463q88 164 227 164q201 0 201 -315q0 -88 -17 -187h-387q-8 -72 -8 -125q0 -221 109 -221q111 0 149 221h115q-27 -160 -95.5 -244.5t-173.5 -84.5q-219 -1 -219 329zM195 539h270q6 74 6 110q0 184 -96 185q-131 0 -180 -295z" />
<glyph unicode="f" horiz-adv-x="413" d="M74 819l14 109h102l43 344q29 236 201 235q55 0 98 -20l-16 -127q-47 39 -78 39q-39 0 -63 -31q-16 -20 -27 -96l-41 -344h156l-12 -109h-158l-100 -819h-117l102 819h-104z" />
<glyph unicode="g" horiz-adv-x="675" d="M25 -162q0 35 8 86h114q-4 -33 -4 -65q0 -119 107 -119q76 0 108 57q16 29 41 195l11 74q-72 -66 -156 -66q-188 0 -188 270q0 141 23.5 282.5t62.5 221.5q78 168 215 168q86 0 139 -78l8 64h117l-121 -983q-12 -94 -22.5 -132t-34.5 -77q-68 -104 -222 -105 q-206 0 -206 207zM184 276q0 -180 111 -180q98 0 139 164q18 76 34.5 207t16.5 207q0 82 -27.5 127t-78.5 45q-90 0 -131 -133q-25 -76 -44.5 -209.5t-19.5 -227.5z" />
<glyph unicode="h" horiz-adv-x="673" d="M43 0l184 1493h115l-78 -639q88 88 187 88q74 0 114.5 -42t40.5 -116q0 -45 -6 -100l-86 -684h-115l82 666q8 82 8 90q0 39 -24.5 64.5t-61.5 25.5q-74 0 -118 -60q-35 -45 -49 -161l-78 -625h-115z" />
<glyph unicode="i" horiz-adv-x="317" d="M43 0l115 928h114l-114 -928h-115zM162 1192q0 41 29.5 69.5t68.5 28.5q33 0 54.5 -21.5t21.5 -54.5q0 -39 -30 -68.5t-68 -29.5q-33 0 -54.5 21.5t-21.5 54.5z" />
<glyph unicode="j" horiz-adv-x="323" d="M6 -354l158 1282h115l-158 -1282h-115zM168 1192q0 39 29.5 68.5t68.5 29.5q33 0 54.5 -21.5t21.5 -54.5q0 -39 -29.5 -68.5t-68.5 -29.5q-33 0 -54.5 21.5t-21.5 54.5z" />
<glyph unicode="k" horiz-adv-x="632" d="M43 0l184 1493h115l-115 -942l273 377h131l-314 -416l271 -512h-146l-229 444l-55 -444h-115z" />
<glyph unicode="l" horiz-adv-x="317" d="M43 0l184 1493h115l-184 -1493h-115z" />
<glyph unicode="m" horiz-adv-x="1036" d="M43 0l115 928h114l-10 -78q92 92 189 92q113 0 155 -108q53 59 99.5 83.5t103.5 24.5q76 0 119 -42t43 -116q0 -25 -8 -94l-84 -690h-117l86 686q4 41 4 57q0 102 -90 103q-80 0 -127 -74q-29 -47 -45 -180l-72 -592h-117l84 684q0 8 2 23.5l3.5 26.5t1.5 18q0 94 -82 94 q-74 0 -119 -60q-43 -57 -62 -211l-71 -575h-115z" />
<glyph unicode="n" horiz-adv-x="673" d="M43 0l115 928h114l-8 -74q88 88 189 88q72 0 112.5 -44t40.5 -122q0 -39 -6 -92l-86 -684h-115l82 666q8 82 8 90q0 39 -24.5 64.5t-61.5 25.5q-74 0 -118 -60q-35 -45 -49 -161l-78 -625h-115z" />
<glyph unicode="o" horiz-adv-x="659" d="M57 319q0 268 93 453q88 170 241 170q102 0 156.5 -78t54.5 -221q0 -137 -24.5 -273.5t-63.5 -213.5q-86 -170 -240 -170q-217 -1 -217 333zM176 299q0 -96 28.5 -150.5t82.5 -54.5q84 0 133 133q61 168 61 402q0 205 -104 205q-86 0 -137 -134q-64 -165 -64 -401z" />
<glyph unicode="p" horiz-adv-x="657" d="M0 -354l158 1282h114l-6 -64q70 78 154 78q184 0 184 -256q0 -141 -25.5 -301t-64.5 -248q-63 -152 -199 -151q-90 0 -147 88l-53 -428h-115zM188 236q0 -154 103 -154q51 0 84 37t55 119q23 78 39 211t16 227q0 170 -102 170q-106 0 -147 -193q-48 -227 -48 -417z" />
<glyph unicode="q" horiz-adv-x="667" d="M63 233q0 145 25 302t59 243q70 164 218 164q82 0 135 -78l8 64h115l-158 -1282h-115l51 428q-76 -88 -165 -88q-173 -1 -173 247zM182 246q0 -164 101 -164q82 0 118 92q29 70 53.5 234.5t24.5 277.5q0 160 -100 160q-88 0 -133 -135q-23 -70 -43.5 -216.5t-20.5 -248.5 z" />
<glyph unicode="r" horiz-adv-x="397" d="M43 0l115 928h114l-14 -123q76 137 170 137l-16 -137q-10 2 -23 2q-41 0 -80 -31t-55 -76q-14 -43 -27 -137l-69 -563h-115z" />
<glyph unicode="s" horiz-adv-x="505" d="M6 49l17 137q78 -92 151 -92q63 0 107.5 48t44.5 118q0 45 -20.5 79t-88.5 101q-133 133 -133 236q0 111 76 188.5t182 77.5q78 0 156 -59l-19 -144q-66 94 -143 95q-55 0 -93 -41t-38 -101q0 -72 106 -172q80 -74 107.5 -122t27.5 -111q0 -123 -81.5 -212t-196.5 -89 q-86 0 -162 63z" />
<glyph unicode="t" horiz-adv-x="405" d="M78 0l100 819h-96l12 109h99l30 254h115l-31 -254h152l-13 -109h-151l-102 -819h-115z" />
<glyph unicode="u" horiz-adv-x="677" d="M70 184q0 27 2 41l86 703h116l-73 -604q-10 -80 -11 -111q0 -119 105 -119q88 0 119 80q16 45 30 150l74 604h117l-86 -703q-14 -111 -87 -175t-181 -64q-98 0 -154.5 53t-56.5 145z" />
<glyph unicode="v" horiz-adv-x="563" d="M70 928h118l54 -555q8 -92 8 -199q23 96 55 195l182 559h119l-315 -928h-125z" />
<glyph unicode="w" horiz-adv-x="899" d="M78 928h117l34 -563l2 -117q0 -39 -2 -78q23 86 25 90q8 33 27 98l161 570h117l21 -559l2 -25v-174l55 197l180 561h119l-315 -928h-119l-21 627v59q0 23 -1 38t-1 21v27q-2 -8 -14 -63.5t-21 -83.5l-178 -625h-119z" />
<glyph unicode="x" horiz-adv-x="571" d="M-43 0l268 473l-133 455h127l55 -228q20 -92 27 -165q29 88 72 172l112 221h129l-260 -455l146 -473h-129l-68 264q-25 90 -27 137q-25 -76 -57 -139l-133 -262h-129z" />
<glyph unicode="y" horiz-adv-x="591" d="M43 -336l135 361l-108 903h118l52 -514q12 -123 12 -234q12 43 72 215l190 533h121l-469 -1264h-123z" />
<glyph unicode="z" horiz-adv-x="555" d="M-47 0l463 819h-314l15 109h485l-469 -819h309l-14 -109h-475z" />
<glyph unicode="{" horiz-adv-x="555" d="M109 514l14 121q66 16 97.5 57t41.5 123l49 402q18 145 85 212.5t192 67.5h30l-12 -102h-22q-82 0 -115 -42t-49 -163l-47 -383q-14 -104 -46 -153.5t-106 -84.5q53 -33 75.5 -71.5t22.5 -102.5l-6 -67l-45 -371q-8 -66 -8 -109q0 -66 43 -88q20 -12 80 -14q10 0 20 -2 l-12 -100q-84 0 -135 16q-109 35 -109 190q0 33 7 95l47 377q4 41 4 57q0 106 -96 135z" />
<glyph unicode="|" horiz-adv-x="1024" d="M475 -342v1708h123v-1708h-123z" />
<glyph unicode="}" horiz-adv-x="555" d="M-39 -356l12 100l21 2h26q66 0 94.5 44t43.5 161l47 383q12 102 45 152.5t108 84.5q-53 33 -75.5 72t-22.5 102q0 23 4 68l45 371q8 37 8 108q0 66 -41 88q-25 14 -79 15h-21l12 102h29q213 0 213 -209q0 -18 -6 -92l-45 -379q0 -10 -2 -23.5t-3 -22.5t-1 -13 q0 -104 98 -131l-16 -121q-63 -16 -95 -57t-43 -125l-49 -400q-18 -145 -85.5 -212.5t-192.5 -67.5h-29z" />
<glyph unicode="~" horiz-adv-x="1345" d="M215 1251q63 125 123.5 176.5t146.5 51.5q76 0 230 -74q143 -68 200 -68q59 0 101.5 32t89.5 112l76 -45q-111 -221 -283 -222q-43 0 -91 17.5t-187 83.5q-88 41 -144 41q-102 0 -186 -154z" />
<glyph unicode="&#xa1;" horiz-adv-x="477" d="M76 -354l125 1024h121l-125 -1024h-121zM203 922q0 41 31.5 71.5t72.5 30.5q33 0 56.5 -22.5t23.5 -57.5q0 -41 -30.5 -72.5t-71.5 -31.5q-35 0 -58.5 23.5t-23.5 58.5z" />
<glyph unicode="&#xa2;" d="M186 553q0 121 28 250t73 211q35 63 74.5 99t103.5 58l20 166h101l-19 -161q47 -10 78 -31l-16 -135q-53 61 -105 61q-100 0 -157 -149q-59 -147 -60 -355q0 -106 33 -169.5t88 -63.5q57 0 127 84l-16 -146q-35 -25 -88 -41l-23 -180h-100l22 180q-164 68 -164 322z" />
<glyph unicode="&#xa3;" d="M10 61q86 141 191 142q6 0 30 -4q76 96 76 196q0 76 -33 135h-188l12 86h144q-92 184 -92 324q0 174 100 288.5t252 114.5q106 0 176 -72.5t70 -185.5q0 -23 -3 -41l-118 -22v39q0 72 -41 116t-105 44q-90 0 -146 -74t-56 -195q0 -135 100 -336h211l-10 -86h-170 q23 -61 22 -106q0 -145 -106 -258q39 -27 45 -33q68 -51 100 -51q59 0 84 100l102 -35q-18 -84 -72.5 -135t-125.5 -51q-41 0 -69 13.5t-114 72.5q-47 35 -73 35q-57 0 -97 -82z" />
<glyph unicode="&#xa4;" horiz-adv-x="1345" d="M154 1212l71 72l189 -190q141 109 292.5 108.5t290.5 -106.5l189 188l69 -72l-186 -190q104 -139 104.5 -293t-104.5 -291l188 -192l-69 -72l-189 193q-135 -109 -290 -109q-150 0 -291 104l-189 -188l-69 72l186 190q-106 131 -106 295q0 152 102 289zM354 729 q0 -147 103.5 -252.5t249 -105.5t249 105.5t103.5 253t-102.5 254t-245.5 106.5q-150 0 -253.5 -104.5t-103.5 -256.5z" />
<glyph unicode="&#xa5;" d="M41 553l10 84h275l-29 133h-229l10 84h201l-111 512h129l78 -399q23 -109 31 -244q33 111 90 248l163 395h129l-225 -512h191l-11 -84h-219l-59 -133h262l-10 -84h-275l-67 -553h-115l70 553h-289z" />
<glyph unicode="&#xa6;" horiz-adv-x="1024" d="M475 313h123v-655h-123v655zM475 690v676h123v-676h-123z" />
<glyph unicode="&#xa7;" horiz-adv-x="739" d="M49 -59h119q-2 -20 -2 -52q0 -66 30.5 -103.5t84.5 -37.5q70 0 116.5 64.5t46.5 158.5q0 63 -35.5 111.5t-119.5 97.5q-113 63 -146 117q-49 76 -49 205q0 168 68.5 284.5t183.5 149.5q-133 98 -133 250q0 139 84 234.5t207 95.5q98 0 159.5 -67t61.5 -173q0 -27 -2 -43 h-119q0 174 -117 174q-66 0 -112.5 -63.5t-46.5 -153.5q0 -57 32.5 -103.5t110.5 -101.5q92 -63 123 -92t49 -66q31 -57 31 -170q0 -170 -64.5 -290.5t-171.5 -153.5q121 -84 121 -233q0 -145 -83 -242.5t-206 -97.5q-102 0 -161.5 68.5t-59.5 187.5v45zM209 487 q0 -201 139 -200q100 0 154.5 99t54.5 282q0 88 -38 139t-103 51q-90 0 -148.5 -104.5t-58.5 -266.5z" />
<glyph unicode="&#xa8;" horiz-adv-x="1024" d="M391 1137q0 39 30 68.5t68 29.5q35 0 56.5 -21.5t21.5 -56.5q0 -39 -30.5 -68.5t-69.5 -29.5q-31 0 -53.5 22.5t-22.5 55.5zM643 1137q0 39 29.5 68.5t68.5 29.5q33 0 55.5 -21.5t22.5 -56.5q0 -39 -30.5 -68.5t-69.5 -29.5q-31 0 -53.5 22.5t-22.5 55.5z" />
<glyph unicode="&#xa9;" horiz-adv-x="1525" d="M94 682q0 297 205 503t500 206q281 0 483.5 -209t202.5 -500q0 -293 -204 -500t-490.5 -207t-491.5 208t-205 499zM174 682q0 -260 181.5 -446.5t435 -186.5t434 186.5t180.5 446.5t-179 447.5t-427 187.5q-262 0 -443.5 -184.5t-181.5 -450.5zM530 532q0 123 30 252 t73 197q78 123 207 123q63 0 110 -31l-12 -112q-70 45 -107 45q-72 0 -110 -66q-80 -133 -80 -393q0 -184 104 -185q43 0 125 46l-14 -107q-70 -39 -127 -39q-92 0 -145.5 72.5t-53.5 197.5z" />
<glyph unicode="&#xaa;" horiz-adv-x="483" d="M68 582l8 67h377l-9 -67h-376zM127 918q0 221 53 348q47 109 146 108q51 0 84 -39l4 31h86l-76 -604h-84l4 37q-47 -45 -100 -45q-117 0 -117 164zM215 928q0 -102 59 -103q47 0 70 56q16 43 32.5 148.5t16.5 176.5q0 96 -59 97q-51 0 -80 -82q-39 -117 -39 -293z" />
<glyph unicode="&#xab;" horiz-adv-x="655" d="M70 485l266 385l72 -43l-234 -342l150 -350l-84 -47zM295 485l266 385l72 -43l-234 -342l150 -350l-84 -47z" />
<glyph unicode="&#xac;" horiz-adv-x="1024" d="M92 432v115h887v-547h-123v432h-764z" />
<glyph unicode="&#xad;" horiz-adv-x="278" d="M-6 414l18 143h279l-19 -143h-278z" />
<glyph unicode="&#xae;" horiz-adv-x="1525" d="M94 682q0 297 205 503t500 206q281 0 483.5 -209t202.5 -500q0 -293 -204 -500t-490.5 -207t-491.5 208t-205 499zM174 682q0 -260 181.5 -446.5t435 -186.5t434 186.5t180.5 446.5t-179 447.5t-427 187.5q-262 0 -443.5 -184.5t-181.5 -450.5zM563 272l101 820h112 q113 0 160 -39t47 -131q0 -242 -176 -267l135 -383h-113l-118 340l-41 -340h-107zM727 745h35q59 0 87 40t28 128q0 47 -19.5 65.5t-73.5 18.5h-26z" />
<glyph unicode="&#xaf;" horiz-adv-x="1024" d="M395 1085l15 109h413l-14 -109h-414z" />
<glyph unicode="&#xb0;" horiz-adv-x="739" d="M150 1094q0 125 89 212t216 87q121 0 209 -88t88 -211t-88.5 -210t-213 -87t-212.5 87t-88 210zM262 1094q0 -84 57.5 -142.5t139.5 -58.5t139 58.5t57 142.5t-57 143t-137 59q-82 0 -140.5 -59t-58.5 -143z" />
<glyph unicode="&#xb1;" d="M94 190v113h606v-113h-606zM94 641v113h246v247h115v-247h245v-113h-245v-250h-115v250h-246z" />
<glyph unicode="&#xb2;" horiz-adv-x="507" d="M70 545l221 352q84 133 111.5 196.5t27.5 123.5q0 80 -72 79q-96 0 -110 -163h-90q12 86 28 124q49 121 179 121q74 0 115.5 -42t41.5 -115q0 -63 -33 -146q-25 -57 -122 -211l-152 -235h225l-10 -84h-360z" />
<glyph unicode="&#xb3;" horiz-adv-x="507" d="M102 696q0 29 9 84h88q-4 -39 -4 -69q0 -90 75 -90q63 0 92 67q25 59 25 143q0 125 -117 125h-45l11 78h38q51 0 77 12.5t44 47.5q27 43 27 118q0 80 -74 80q-45 0 -65.5 -27.5t-30.5 -99.5h-86q29 213 194 213q70 0 111 -40t41 -111q0 -61 -22.5 -123t-88.5 -105 q41 -27 57.5 -60.5t16.5 -96.5q0 -145 -55 -225t-158 -80q-160 -1 -160 159z" />
<glyph unicode="&#xb4;" horiz-adv-x="1024" d="M549 1094l215 241l94 -88l-244 -209z" />
<glyph unicode="&#xb5;" horiz-adv-x="677" d="M2 -342l156 1270h116l-75 -604q-8 -59 -9 -109q0 -121 105 -121q88 0 119 80q16 45 30 150l74 604h117l-88 -703q-14 -109 -85 -174t-175 -65q-70 0 -133 41l-37 -369h-115z" />
<glyph unicode="&#xb6;" horiz-adv-x="739" d="M70 950q0 195 100 318q80 98 229 98h424l-43 -119h-82l-178 -1450h-121l179 1450h-117l-178 -1450h-121l110 895h-28q-82 0 -128 68.5t-46 189.5z" />
<glyph unicode="&#xb7;" horiz-adv-x="356" d="M88 475q0 41 32 72t70 31q35 0 57.5 -23t22.5 -57q0 -41 -30.5 -73t-71.5 -32q-35 0 -57.5 23.5t-22.5 58.5z" />
<glyph unicode="&#xb8;" horiz-adv-x="1024" d="M309 -344l166 270l90 -57l-192 -258z" />
<glyph unicode="&#xb9;" horiz-adv-x="512" d="M213 1282l31 84h180l-100 -819h-91l91 735h-111z" />
<glyph unicode="&#xba;" horiz-adv-x="483" d="M68 582l8 67h377l-9 -67h-376zM135 975q0 168 60 287q55 113 161 112q68 0 105 -50t37 -144q0 -199 -58.5 -312.5t-158.5 -113.5q-146 0 -146 221zM221 961q0 -127 68 -127q49 0 80 79q39 106 39 254q0 127 -62 127q-53 0 -84 -82q-41 -112 -41 -251z" />
<glyph unicode="&#xbb;" horiz-adv-x="655" d="M27 135l233 350l-147 342l82 43l172 -385l-269 -397zM252 135l235 350l-149 342l82 43l172 -385l-268 -397z" />
<glyph unicode="&#xbc;" horiz-adv-x="1253" d="M213 1282l31 84h180l-100 -819h-91l91 735h-111zM240 0l749 1366h82l-749 -1366h-82zM778 217l10 82l289 520h88l-65 -522h63l-10 -80h-61l-27 -217h-90l26 217h-223zM879 297h131l30 248q2 14 15 90q-10 -25 -23 -49l-18 -33z" />
<glyph unicode="&#xbd;" horiz-adv-x="1253" d="M213 1282l31 84h180l-100 -819h-91l91 735h-111zM240 0l749 1366h82l-749 -1366h-82zM748 0l221 352q82 129 110.5 195.5t28.5 124.5q0 80 -72 80q-96 0 -110 -164h-88q8 76 26 123q49 121 178 120q72 0 115 -41.5t43 -113.5q0 -70 -31.5 -143.5t-121.5 -213.5l-154 -235 h225l-10 -84h-360z" />
<glyph unicode="&#xbe;" horiz-adv-x="1251" d="M102 696q0 29 9 84h88q-4 -39 -4 -69q0 -90 75 -90q63 0 92 67q25 59 25 143q0 125 -117 125h-45l11 78h38q51 0 77 12.5t44 47.5q27 43 27 118q0 80 -74 80q-45 0 -65.5 -27.5t-30.5 -99.5h-86q29 213 194 213q70 0 111 -40t41 -111q0 -61 -22.5 -123t-88.5 -105 q41 -27 57.5 -60.5t16.5 -96.5q0 -145 -55 -225t-158 -80q-160 -1 -160 159zM238 0l749 1366h82l-750 -1366h-81zM776 217l10 82l289 520h88l-63 -522h61l-10 -80h-61l-27 -217h-90l26 217h-223zM877 297h133l28 248q8 55 17 90l-25 -49l-18 -33z" />
<glyph unicode="&#xbf;" horiz-adv-x="667" d="M33 -184q0 143 43 311q49 207 246 213l40 330h121l-55 -441h-84q-63 0 -97 -23.5t-50 -82.5q-41 -156 -41 -277q0 -109 88 -108q106 0 127 168l10 84h121l-13 -96q-35 -266 -264 -267q-90 0 -141 50.5t-51 138.5zM358 922q0 41 32 71.5t73 30.5q33 0 55.5 -23.5 t22.5 -56.5q0 -41 -31 -72.5t-72 -31.5q-35 0 -57.5 23.5t-22.5 58.5z" />
<glyph unicode="&#xc0;" horiz-adv-x="655" d="M-55 0l432 1366h117l102 -1366h-133l-17 281h-284l-84 -281h-133zM195 389h245l-30 483q-6 106 -7 162q0 45 9 160q-31 -168 -74 -322zM238 1683l106 76l148 -250l-72 -49z" />
<glyph unicode="&#xc1;" horiz-adv-x="655" d="M-55 0l432 1366h117l102 -1366h-133l-17 281h-284l-84 -281h-133zM195 389h245l-30 483q-6 106 -7 162q0 45 9 160q-31 -168 -74 -322zM395 1516l215 243l95 -88l-244 -211z" />
<glyph unicode="&#xc2;" horiz-adv-x="655" d="M-55 0l432 1366h117l102 -1366h-133l-17 281h-284l-84 -281h-133zM195 389h245l-30 483q-6 106 -7 162q0 45 9 160q-31 -168 -74 -322zM219 1540l256 219l199 -225l-86 -74l-129 146l-174 -146z" />
<glyph unicode="&#xc3;" horiz-adv-x="655" d="M-55 0l432 1366h117l102 -1366h-133l-17 281h-284l-84 -281h-133zM195 389h245l-30 483q-6 106 -7 162q0 45 9 160q-31 -168 -74 -322zM219 1501q35 156 154 156q39 0 96 -29q66 -31 84 -31q25 0 39 52h113q-29 -156 -156 -156q-53 0 -133 43q-29 16 -47 16 q-27 0 -37 -51h-113z" />
<glyph unicode="&#xc4;" horiz-adv-x="655" d="M-55 0l432 1366h117l102 -1366h-133l-17 281h-284l-84 -281h-133zM195 389h245l-30 483q-6 106 -7 162q0 45 9 160q-31 -168 -74 -322zM246 1559q0 39 29.5 69.5t68.5 30.5q33 0 55.5 -22.5t22.5 -55.5q0 -41 -31 -70.5t-69 -29.5q-33 0 -54.5 22.5t-21.5 55.5zM504 1559 q0 39 29.5 69.5t68.5 30.5q33 0 55.5 -22.5t22.5 -55.5q0 -41 -31 -70.5t-69 -29.5q-33 0 -54.5 22.5t-21.5 55.5z" />
<glyph unicode="&#xc5;" horiz-adv-x="657" d="M-55 0l432 1366h117l102 -1366h-133l-17 281h-284l-84 -281h-133zM195 389h245l-30 483q-6 106 -7 162q0 45 9 160q-31 -168 -74 -322zM309 1612q0 66 46 110.5t111.5 44.5t111 -46t45.5 -109q0 -66 -46.5 -112t-111.5 -46q-63 0 -109.5 47.5t-46.5 110.5zM391 1611.5 q0 -30.5 22.5 -53t51.5 -22.5q33 0 54.5 21.5t21.5 54.5q0 31 -21.5 52.5t-52.5 21.5q-33 0 -54.5 -22t-21.5 -52.5z" />
<glyph unicode="&#xc6;" horiz-adv-x="931" d="M-55 0l432 1366h448l6 -117h-288l26 -481h273l6 -117h-273l29 -534h283l4 -117h-416l-10 281h-305l-82 -281h-133zM195 389h266l-25 578q-2 14 -2 125q0 70 2 127l-69 -250z" />
<glyph unicode="&#xc7;" horiz-adv-x="645" d="M84 412q0 209 48 434t118 342q121 199 309 198q98 0 158 -45l-17 -139q-86 61 -147 62q-160 0 -240 -215q-96 -256 -96 -625q0 -317 180 -318q78 0 176 62l-16 -129q-94 -57 -182 -57q-106 0 -189 81q-102 103 -102 349zM131 -365l176 283l92 -57l-202 -271z" />
<glyph unicode="&#xc8;" horiz-adv-x="608" d="M53 0l168 1366h420l-14 -117h-295l-60 -481h289l-14 -117h-289l-65 -534h294l-12 -117h-422zM262 1683l107 76l147 -250l-72 -49z" />
<glyph unicode="&#xc9;" horiz-adv-x="608" d="M53 0l168 1366h420l-14 -117h-295l-60 -481h289l-14 -117h-289l-65 -534h294l-12 -117h-422zM385 1516l215 243l94 -88l-243 -211z" />
<glyph unicode="&#xca;" horiz-adv-x="608" d="M53 0l168 1366h420l-14 -117h-295l-60 -481h289l-14 -117h-289l-65 -534h294l-12 -117h-422zM223 1540l256 219l199 -225l-86 -74l-129 146l-174 -146z" />
<glyph unicode="&#xcb;" horiz-adv-x="608" d="M53 0l168 1366h420l-14 -117h-295l-60 -481h289l-14 -117h-289l-65 -534h294l-12 -117h-422zM231 1559q0 39 30 69.5t69 30.5q33 0 55.5 -22.5t22.5 -55.5q0 -41 -30 -70.5t-71 -29.5q-33 0 -54.5 22.5t-21.5 55.5zM489 1559q0 39 30 69.5t69 30.5q35 0 56.5 -22.5 t21.5 -55.5q0 -41 -30 -70.5t-71 -29.5q-33 0 -54.5 22.5t-21.5 55.5z" />
<glyph unicode="&#xcc;" horiz-adv-x="346" d="M53 0l168 1366h125l-168 -1366h-125zM106 1683l107 76l135 -250l-74 -49z" />
<glyph unicode="&#xcd;" horiz-adv-x="346" d="M53 0l168 1366h125l-168 -1366h-125zM256 1516l203 243l90 -88l-227 -211z" />
<glyph unicode="&#xce;" horiz-adv-x="346" d="M53 0l168 1366h125l-168 -1366h-125zM82 1540l242 219l186 -225l-86 -74l-117 146l-160 -146z" />
<glyph unicode="&#xcf;" horiz-adv-x="346" d="M53 0l168 1366h125l-168 -1366h-125zM100 1559q0 39 30 69.5t69 30.5q33 0 55 -22.5t22 -55.5q0 -41 -29.5 -70.5t-70.5 -29.5q-33 0 -54.5 22.5t-21.5 55.5zM342 1559q0 39 29.5 69.5t68.5 30.5q33 0 55.5 -22.5t22.5 -55.5q0 -41 -29.5 -70.5t-70.5 -29.5 q-33 0 -54.5 22.5t-21.5 55.5z" />
<glyph unicode="&#xd0;" horiz-adv-x="747" d="M39 657l12 103h96l74 606h158q137 0 215 -43q127 -76 127 -311q0 -258 -53 -537q-33 -170 -81 -267t-128 -149q-90 -59 -240 -59h-166l82 657h-96zM193 117h59q158 0 235 157q41 84 72 303.5t31 423.5q0 131 -48 189.5t-155 58.5h-55l-60 -489h181l-13 -103h-180z" />
<glyph unicode="&#xd1;" horiz-adv-x="780" d="M53 0l168 1366h109l192 -928l27 -162q2 98 14 199l109 891h108l-168 -1366h-108l-187 901q-8 41 -18 102.5t-14 90.5q-4 -123 -19 -242l-104 -852h-109zM297 1501q35 156 154 156q39 0 96 -29q66 -31 84 -31q25 0 39 52h112q-29 -156 -155 -156q-53 0 -133 43 q-29 16 -48 16q-27 0 -36 -51h-113z" />
<glyph unicode="&#xd2;" horiz-adv-x="815" d="M86 410q0 227 44 449t114 339q109 186 274 186q96 0 156 -53q109 -96 108 -364q0 -225 -44 -452.5t-109 -346.5q-104 -186 -281 -186q-262 0 -262 428zM213 391q0 -285 152 -285q135 0 202 220q37 115 63.5 314.5t26.5 352.5q0 268 -149 269q-66 0 -114 -50.5t-85 -156.5 q-41 -117 -68.5 -305.5t-27.5 -358.5zM369 1683l106 76l148 -250l-72 -49z" />
<glyph unicode="&#xd3;" horiz-adv-x="815" d="M86 410q0 227 44 449t114 339q109 186 274 186q96 0 156 -53q109 -96 108 -364q0 -225 -44 -452.5t-109 -346.5q-104 -186 -281 -186q-262 0 -262 428zM213 391q0 -285 152 -285q135 0 202 220q37 115 63.5 314.5t26.5 352.5q0 268 -149 269q-66 0 -114 -50.5t-85 -156.5 q-41 -117 -68.5 -305.5t-27.5 -358.5zM498 1516l215 243l94 -88l-244 -211z" />
<glyph unicode="&#xd4;" horiz-adv-x="815" d="M86 410q0 227 44 449t114 339q109 186 274 186q96 0 156 -53q109 -96 108 -364q0 -225 -44 -452.5t-109 -346.5q-104 -186 -281 -186q-262 0 -262 428zM213 391q0 -285 152 -285q135 0 202 220q37 115 63.5 314.5t26.5 352.5q0 268 -149 269q-66 0 -114 -50.5t-85 -156.5 q-41 -117 -68.5 -305.5t-27.5 -358.5zM324 1540l256 219l198 -225l-86 -74l-129 146l-174 -146z" />
<glyph unicode="&#xd5;" horiz-adv-x="815" d="M86 410q0 227 44 449t114 339q109 186 274 186q96 0 156 -53q109 -96 108 -364q0 -225 -44 -452.5t-109 -346.5q-104 -186 -281 -186q-262 0 -262 428zM213 391q0 -285 152 -285q135 0 202 220q37 115 63.5 314.5t26.5 352.5q0 268 -149 269q-66 0 -114 -50.5t-85 -156.5 q-41 -117 -68.5 -305.5t-27.5 -358.5zM346 1501q35 156 154 156q39 0 96 -29q66 -31 84 -31q25 0 39 52h112q-29 -156 -155 -156q-53 0 -133 43q-29 16 -47 16q-27 0 -37 -51h-113z" />
<glyph unicode="&#xd6;" horiz-adv-x="815" d="M86 410q0 227 44 449t114 339q109 186 274 186q96 0 156 -53q109 -96 108 -364q0 -225 -44 -452.5t-109 -346.5q-104 -186 -281 -186q-262 0 -262 428zM213 391q0 -285 152 -285q135 0 202 220q37 115 63.5 314.5t26.5 352.5q0 268 -149 269q-66 0 -114 -50.5t-85 -156.5 q-41 -117 -68.5 -305.5t-27.5 -358.5zM332 1559q0 39 29.5 69.5t68.5 30.5q33 0 55.5 -22.5t22.5 -55.5q0 -41 -31 -70.5t-69 -29.5q-33 0 -54.5 22.5t-21.5 55.5zM590 1559q0 39 29.5 69.5t68.5 30.5q33 0 55.5 -22.5t22.5 -55.5q0 -41 -30.5 -70.5t-69.5 -29.5 q-33 0 -54.5 22.5t-21.5 55.5z" />
<glyph unicode="&#xd7;" d="M133 508l184 188l-184 187l80 80l184 -187l183 187l77 -80l-182 -187l184 -186l-79 -80l-185 186l-184 -186z" />
<glyph unicode="&#xd8;" horiz-adv-x="829" d="M12 25l103 178q-20 88 -21 207q0 229 44 449t114 339q109 186 276 186q143 0 205 -120l72 118l72 -39l-105 -182q18 -72 19 -186q0 -233 -43 -459.5t-111 -347.5q-104 -186 -281 -186q-139 0 -202 122l-74 -120zM219 416q0 -29 2 -54l428 779q-33 121 -135 121 q-147 0 -221 -277q-74 -288 -74 -569zM240 229q27 -123 131 -123q158 0 223 289q72 309 72 609z" />
<glyph unicode="&#xd9;" horiz-adv-x="786" d="M88 236q0 53 14 174l117 956h127l-117 -946q-16 -127 -16 -176q0 -63 37 -100.5t98 -37.5q98 0 141 76q31 51 56 238l117 946h124l-116 -956q-27 -223 -82 -299q-88 -129 -256 -129q-117 0 -180.5 65.5t-63.5 188.5zM332 1683l106 76l148 -250l-72 -49z" />
<glyph unicode="&#xda;" horiz-adv-x="786" d="M88 236q0 53 14 174l117 956h127l-117 -946q-16 -127 -16 -176q0 -63 37 -100.5t98 -37.5q98 0 141 76q31 51 56 238l117 946h124l-116 -956q-27 -223 -82 -299q-88 -129 -256 -129q-117 0 -180.5 65.5t-63.5 188.5zM469 1516l215 243l94 -88l-243 -211z" />
<glyph unicode="&#xdb;" horiz-adv-x="786" d="M88 236q0 53 14 174l117 956h127l-117 -946q-16 -127 -16 -176q0 -63 37 -100.5t98 -37.5q98 0 141 76q31 51 56 238l117 946h124l-116 -956q-27 -223 -82 -299q-88 -129 -256 -129q-117 0 -180.5 65.5t-63.5 188.5zM293 1540l256 219l199 -225l-86 -74l-130 146 l-174 -146z" />
<glyph unicode="&#xdc;" horiz-adv-x="786" d="M88 236q0 53 14 174l117 956h127l-117 -946q-16 -127 -16 -176q0 -63 37 -100.5t98 -37.5q98 0 141 76q31 51 56 238l117 946h124l-116 -956q-27 -223 -82 -299q-88 -129 -256 -129q-117 0 -180.5 65.5t-63.5 188.5zM317 1559q0 39 30 69.5t69 30.5q33 0 55.5 -22.5 t22.5 -55.5q0 -41 -30 -70.5t-71 -29.5q-33 0 -54.5 22.5t-21.5 55.5zM575 1559q0 39 30 69.5t69 30.5q35 0 56.5 -22.5t21.5 -55.5q0 -41 -30 -70.5t-71 -29.5q-33 0 -54.5 22.5t-21.5 55.5z" />
<glyph unicode="&#xdd;" horiz-adv-x="638" d="M113 1366h135l78 -399q23 -123 30 -244q29 102 90 250l164 393h135l-339 -768l-74 -598h-125l74 598zM397 1516l215 243l95 -88l-244 -211z" />
<glyph unicode="&#xde;" horiz-adv-x="663" d="M53 0l168 1366h125l-29 -240h35q162 0 232.5 -61t70.5 -203q0 -119 -29.5 -218t-80.5 -148q-80 -80 -264 -80h-52l-51 -416h-125zM244 532h84q113 0 153 78q47 80 47 238q0 117 -73 149q-31 12 -90 13h-62z" />
<glyph unicode="&#xdf;" horiz-adv-x="686" d="M55 838l15 120h104l23 183q25 203 92 282q70 84 194 84q102 0 157.5 -62.5t55.5 -176.5q0 -295 -172 -369q57 -27 82 -80t25 -149q0 -158 -25.5 -301.5t-66.5 -216.5q-84 -152 -236 -152h-43l14 117h35q102 0 144 121q23 63 43 200t20 232q0 168 -117 168h-37l17 120h33 q51 0 79.5 20.5t51.5 72.5q31 78 30 194q0 154 -108 154q-66 0 -99.5 -54.5t-50.5 -189.5l-143 -1155h-115l103 838h-105z" />
<glyph unicode="&#xe0;" horiz-adv-x="667" d="M63 233q0 145 25 302t59 243q70 164 218 164q82 0 135 -78l8 64h115l-115 -928h-115l8 74q-76 -88 -165 -88q-173 -1 -173 247zM182 246q0 -164 101 -164q82 0 118 92q29 70 53.5 234.5t24.5 277.5q0 160 -100 160q-88 0 -133 -135q-23 -70 -43.5 -216.5t-20.5 -248.5z M236 1262l106 73l147 -248l-71 -49z" />
<glyph unicode="&#xe1;" horiz-adv-x="667" d="M63 233q0 145 25 302t59 243q70 164 218 164q82 0 135 -78l8 64h115l-115 -928h-115l8 74q-76 -88 -165 -88q-173 -1 -173 247zM182 246q0 -164 101 -164q82 0 118 92q29 70 53.5 234.5t24.5 277.5q0 160 -100 160q-88 0 -133 -135q-23 -70 -43.5 -216.5t-20.5 -248.5z M358 1094l215 241l95 -88l-244 -209z" />
<glyph unicode="&#xe2;" horiz-adv-x="667" d="M63 233q0 145 25 302t59 243q70 164 218 164q82 0 135 -78l8 64h115l-115 -928h-115l8 74q-76 -88 -165 -88q-173 -1 -173 247zM182 246q0 -164 101 -164q82 0 118 92q29 70 53.5 234.5t24.5 277.5q0 160 -100 160q-88 0 -133 -135q-23 -70 -43.5 -216.5t-20.5 -248.5z M193 1116l241 221l187 -225l-84 -74l-119 146l-162 -146z" />
<glyph unicode="&#xe3;" horiz-adv-x="667" d="M63 233q0 145 25 302t59 243q70 164 218 164q82 0 135 -78l8 64h115l-115 -928h-115l8 74q-76 -88 -165 -88q-173 -1 -173 247zM182 246q0 -164 101 -164q82 0 118 92q29 70 53.5 234.5t24.5 277.5q0 160 -100 160q-88 0 -133 -135q-23 -70 -43.5 -216.5t-20.5 -248.5z M221 1071q35 156 150 156q45 0 135 -45q18 -12 37 -13q25 0 37 50h112q-12 -76 -52 -116t-101 -40q-51 0 -125 43q-27 16 -43 16q-27 0 -37 -51h-113z" />
<glyph unicode="&#xe4;" horiz-adv-x="667" d="M63 233q0 145 25 302t59 243q70 164 218 164q82 0 135 -78l8 64h115l-115 -928h-115l8 74q-76 -88 -165 -88q-173 -1 -173 247zM182 246q0 -164 101 -164q82 0 118 92q29 70 53.5 234.5t24.5 277.5q0 160 -100 160q-88 0 -133 -135q-23 -70 -43.5 -216.5t-20.5 -248.5z M207 1137q0 39 29.5 68.5t68.5 29.5q35 0 56.5 -21.5t21.5 -56.5q0 -39 -30.5 -68.5t-69.5 -29.5q-31 0 -53.5 22.5t-22.5 55.5zM459 1137q0 39 29.5 68.5t68.5 29.5q33 0 55.5 -21.5t22.5 -56.5q0 -39 -31 -68.5t-69 -29.5q-31 0 -53.5 22.5t-22.5 55.5z" />
<glyph unicode="&#xe5;" horiz-adv-x="667" d="M63 233q0 145 25 302t59 243q70 164 218 164q82 0 135 -78l8 64h115l-115 -928h-115l8 74q-76 -88 -165 -88q-173 -1 -173 247zM182 246q0 -164 101 -164q82 0 118 92q29 70 53.5 234.5t24.5 277.5q0 160 -100 160q-88 0 -133 -135q-23 -70 -43.5 -216.5t-20.5 -248.5z M274 1196q0 66 46.5 111t111.5 45q63 0 109.5 -45t46.5 -111t-46 -112t-112 -46q-63 0 -109.5 47.5t-46.5 110.5zM356 1196q0 -31 22.5 -53.5t51.5 -22.5q33 0 54.5 21.5t21.5 54.5q0 31 -21.5 52.5t-52.5 21.5q-33 0 -54.5 -21.5t-21.5 -52.5z" />
<glyph unicode="&#xe6;" horiz-adv-x="1036" d="M43 242q0 168 76 272t196 104q100 0 154 -75q8 74 8 106q0 84 -41 133t-112 49q-63 0 -168 -71l16 129q88 53 174 53q164 0 213 -156q35 70 94.5 113t120.5 43q96 0 150.5 -87t54.5 -245q0 -41 -12 -166h-404q-8 -63 -8 -112q0 -238 121 -238q119 0 151 228h111 q-25 -152 -101.5 -244t-179.5 -92q-125 0 -178 155q-37 -72 -100.5 -113.5t-136.5 -41.5q-94 0 -146.5 67.5t-52.5 188.5zM156 254q0 -160 114 -160q76 0 125 73t49 183q0 172 -120 172q-76 0 -122 -73.5t-46 -194.5zM580 543h282q6 51 6 90q0 86 -31.5 143.5t-78.5 57.5 q-66 0 -115 -80t-63 -211z" />
<glyph unicode="&#xe7;" horiz-adv-x="499" d="M49 -344l166 270l90 -57l-192 -258zM57 315q0 121 28 249t73 210q88 168 237 168q66 0 119 -35l-16 -137q-51 63 -105 64q-98 0 -155 -150q-59 -152 -60 -354q0 -109 33 -172.5t88 -63.5q57 0 127 84l-18 -145q-66 -47 -140 -47q-96 0 -153.5 89.5t-57.5 239.5z" />
<glyph unicode="&#xe8;" horiz-adv-x="638" d="M57 315q0 281 99 463q88 164 227 164q201 0 201 -315q0 -88 -17 -187h-387q-8 -72 -8 -125q0 -221 109 -221q111 0 149 221h115q-27 -160 -95.5 -244.5t-173.5 -84.5q-219 -1 -219 329zM195 539h270q6 74 6 110q0 184 -96 185q-131 0 -180 -295zM221 1262l107 73 l147 -248l-72 -49z" />
<glyph unicode="&#xe9;" horiz-adv-x="638" d="M57 315q0 281 99 463q88 164 227 164q201 0 201 -315q0 -88 -17 -187h-387q-8 -72 -8 -125q0 -221 109 -221q111 0 149 221h115q-27 -160 -95.5 -244.5t-173.5 -84.5q-219 -1 -219 329zM195 539h270q6 74 6 110q0 184 -96 185q-131 0 -180 -295zM342 1094l215 241l94 -88 l-243 -209z" />
<glyph unicode="&#xea;" horiz-adv-x="638" d="M57 315q0 281 99 463q88 164 227 164q201 0 201 -315q0 -88 -17 -187h-387q-8 -72 -8 -125q0 -221 109 -221q111 0 149 221h115q-27 -160 -95.5 -244.5t-173.5 -84.5q-219 -1 -219 329zM184 1116l242 221l186 -225l-84 -74l-118 146l-162 -146zM195 539h270q6 74 6 110 q0 184 -96 185q-131 0 -180 -295z" />
<glyph unicode="&#xeb;" horiz-adv-x="638" d="M57 315q0 281 99 463q88 164 227 164q201 0 201 -315q0 -88 -17 -187h-387q-8 -72 -8 -125q0 -221 109 -221q111 0 149 221h115q-27 -160 -95.5 -244.5t-173.5 -84.5q-219 -1 -219 329zM195 539h270q6 74 6 110q0 184 -96 185q-131 0 -180 -295zM199 1137q0 39 29.5 68.5 t68.5 29.5q35 0 56.5 -21.5t21.5 -56.5q0 -39 -31 -68.5t-70 -29.5q-31 0 -53 22.5t-22 55.5zM451 1137q0 39 29.5 68.5t68.5 29.5q33 0 55.5 -21.5t22.5 -56.5q0 -39 -31 -68.5t-70 -29.5q-31 0 -53 22.5t-22 55.5z" />
<glyph unicode="&#xec;" horiz-adv-x="317" d="M39 1262l106 73l136 -248l-74 -49zM45 0l113 928h116l-114 -928h-115z" />
<glyph unicode="&#xed;" horiz-adv-x="317" d="M43 0l115 928h114l-114 -928h-115zM193 1094l200 241l92 -88l-227 -209z" />
<glyph unicode="&#xee;" horiz-adv-x="317" d="M33 1114l227 223l172 -229l-82 -70l-106 146l-148 -146zM43 0l115 928h114l-112 -928h-117z" />
<glyph unicode="&#xef;" horiz-adv-x="317" d="M43 0l115 928h114l-114 -928h-115zM57 1130q0 37 28 65t62 28q31 0 51.5 -20.5t20.5 -51.5q0 -37 -27.5 -64.5t-64.5 -27.5q-29 0 -49.5 20t-20.5 51zM276 1130q0 37 28 65t63 28q31 0 51 -20.5t20 -51.5q0 -37 -27.5 -64.5t-64.5 -27.5q-29 0 -49.5 20t-20.5 51z" />
<glyph unicode="&#xf0;" horiz-adv-x="659" d="M59 324q0 266 95 450q88 168 235 168q82 0 115 -61q8 76 8 127q0 156 -63 260l-140 -86l-45 78l117 73q-39 33 -166 99l51 67q111 -39 203 -108l133 79l47 -75l-117 -76q53 -68 75 -147.5t22 -210.5q0 -178 -22.5 -387t-55.5 -324q-33 -121 -107.5 -192.5t-167.5 -71.5 q-217 0 -217 338zM176 299q0 -96 28.5 -150.5t82.5 -54.5q84 0 133 133q61 168 61 402q0 205 -104 205q-86 0 -137 -134q-64 -165 -64 -401z" />
<glyph unicode="&#xf1;" horiz-adv-x="673" d="M43 0l115 928h114l-8 -74q88 88 189 88q72 0 112.5 -44t40.5 -122q0 -39 -6 -92l-86 -684h-115l82 666q8 82 8 90q0 39 -24.5 64.5t-61.5 25.5q-74 0 -118 -60q-35 -45 -49 -161l-78 -625h-115zM199 1071q35 156 149 156q45 0 135 -45q18 -12 37 -13q25 0 37 50h113 q-12 -76 -52 -116t-102 -40q-51 0 -125 43q-27 16 -43 16q-27 0 -37 -51h-112z" />
<glyph unicode="&#xf2;" horiz-adv-x="659" d="M57 319q0 268 93 453q88 170 241 170q102 0 156.5 -78t54.5 -221q0 -137 -24.5 -273.5t-63.5 -213.5q-86 -170 -240 -170q-217 -1 -217 333zM176 299q0 -96 28.5 -150.5t82.5 -54.5q84 0 133 133q61 168 61 402q0 205 -104 205q-86 0 -137 -134q-64 -165 -64 -401z M236 1262l106 73l147 -248l-71 -49z" />
<glyph unicode="&#xf3;" horiz-adv-x="659" d="M57 319q0 268 93 453q88 170 241 170q102 0 156.5 -78t54.5 -221q0 -137 -24.5 -273.5t-63.5 -213.5q-86 -170 -240 -170q-217 -1 -217 333zM176 299q0 -96 28.5 -150.5t82.5 -54.5q84 0 133 133q61 168 61 402q0 205 -104 205q-86 0 -137 -134q-64 -165 -64 -401z M369 1094l215 241l94 -88l-244 -209z" />
<glyph unicode="&#xf4;" horiz-adv-x="659" d="M57 319q0 268 93 453q88 170 241 170q102 0 156.5 -78t54.5 -221q0 -137 -24.5 -273.5t-63.5 -213.5q-86 -170 -240 -170q-217 -1 -217 333zM176 299q0 -96 28.5 -150.5t82.5 -54.5q84 0 133 133q61 168 61 402q0 205 -104 205q-86 0 -137 -134q-64 -165 -64 -401z M205 1116l241 221l187 -225l-84 -74l-119 146l-162 -146z" />
<glyph unicode="&#xf5;" horiz-adv-x="659" d="M57 319q0 268 93 453q88 170 241 170q102 0 156.5 -78t54.5 -221q0 -137 -24.5 -273.5t-63.5 -213.5q-86 -170 -240 -170q-217 -1 -217 333zM176 299q0 -96 28.5 -150.5t82.5 -54.5q84 0 133 133q61 168 61 402q0 205 -104 205q-86 0 -137 -134q-64 -165 -64 -401z M217 1071q35 156 150 156q45 0 135 -45q18 -12 37 -13q25 0 36 50h113q-12 -76 -52 -116t-101 -40q-51 0 -125 43q-27 16 -43 16q-27 0 -37 -51h-113z" />
<glyph unicode="&#xf6;" horiz-adv-x="659" d="M57 319q0 268 93 453q88 170 241 170q102 0 156.5 -78t54.5 -221q0 -137 -24.5 -273.5t-63.5 -213.5q-86 -170 -240 -170q-217 -1 -217 333zM176 299q0 -96 28.5 -150.5t82.5 -54.5q84 0 133 133q61 168 61 402q0 205 -104 205q-86 0 -137 -134q-64 -165 -64 -401z M223 1137q0 39 30 68.5t69 29.5q35 0 56 -21.5t21 -56.5q0 -39 -30.5 -68.5t-69.5 -29.5q-31 0 -53.5 22.5t-22.5 55.5zM475 1137q0 39 30 68.5t68 29.5q33 0 55.5 -21.5t22.5 -56.5q0 -39 -30.5 -68.5t-69.5 -29.5q-31 0 -53.5 22.5t-22.5 55.5z" />
<glyph unicode="&#xf7;" d="M94 641v113h606v-113h-606zM311 442q0 35 25.5 60.5t62.5 25.5q35 0 60.5 -25.5t25.5 -60.5q0 -37 -25.5 -62.5t-60.5 -25.5q-37 0 -62.5 25.5t-25.5 62.5zM311 950q0 35 25.5 60.5t62.5 25.5q35 0 60.5 -25.5t25.5 -60.5q0 -37 -25.5 -62.5t-60.5 -25.5 q-37 0 -62.5 25.5t-25.5 62.5z" />
<glyph unicode="&#xf8;" horiz-adv-x="686" d="M-2 27l90 133q-16 68 -16 162q0 266 92 450q84 170 244 170q98 0 159 -86l64 88l57 -39l-88 -129q16 -66 16 -133q0 -137 -24.5 -273.5t-63.5 -213.5q-86 -170 -237 -170q-115 0 -174 92l-66 -92zM188 287l293 463q-23 84 -90 84q-88 0 -141.5 -144.5t-61.5 -402.5z M205 184q27 -90 94 -90q96 0 145 170q45 154 52 375z" />
<glyph unicode="&#xf9;" horiz-adv-x="677" d="M70 184q0 27 2 41l86 703h116l-73 -604q-10 -80 -11 -111q0 -119 105 -119q88 0 119 80q16 45 30 150l74 604h117l-86 -703q-14 -111 -87 -175t-181 -64q-98 0 -154.5 53t-56.5 145zM227 1262l107 73l147 -248l-71 -49z" />
<glyph unicode="&#xfa;" horiz-adv-x="677" d="M70 184q0 27 2 41l86 703h116l-73 -604q-10 -80 -11 -111q0 -119 105 -119q88 0 119 80q16 45 30 150l74 604h117l-86 -703q-14 -111 -87 -175t-181 -64q-98 0 -154.5 53t-56.5 145zM365 1094l215 241l94 -88l-244 -209z" />
<glyph unicode="&#xfb;" horiz-adv-x="677" d="M70 184q0 27 2 41l86 703h116l-73 -604q-10 -80 -11 -111q0 -119 105 -119q88 0 119 80q16 45 30 150l74 604h117l-86 -703q-14 -111 -87 -175t-181 -64q-98 0 -154.5 53t-56.5 145zM201 1116l241 221l187 -225l-84 -74l-119 146l-162 -146z" />
<glyph unicode="&#xfc;" horiz-adv-x="677" d="M70 184q0 27 2 41l86 703h116l-73 -604q-10 -80 -11 -111q0 -119 105 -119q88 0 119 80q16 45 30 150l74 604h117l-86 -703q-14 -111 -87 -175t-181 -64q-98 0 -154.5 53t-56.5 145zM215 1137q0 39 29.5 68.5t68.5 29.5q35 0 56.5 -21.5t21.5 -56.5q0 -39 -30.5 -68.5 t-69.5 -29.5q-31 0 -53.5 22.5t-22.5 55.5zM467 1137q0 39 29.5 68.5t68.5 29.5q33 0 55.5 -21.5t22.5 -56.5q0 -39 -30.5 -68.5t-69.5 -29.5q-31 0 -53.5 22.5t-22.5 55.5z" />
<glyph unicode="&#xfd;" horiz-adv-x="591" d="M43 -336l135 361l-108 903h118l52 -514q12 -123 12 -234q12 43 72 215l190 533h121l-469 -1264h-123zM313 1094l215 241l95 -88l-244 -209z" />
<glyph unicode="&#xfe;" horiz-adv-x="657" d="M0 -354l227 1847h115l-76 -629q70 78 154 78q184 0 184 -256q0 -141 -25.5 -301t-64.5 -248q-63 -152 -199 -151q-90 0 -147 88l-53 -428h-115zM188 238q0 -156 103 -156q51 0 83 36t54 120q23 78 40 210t17 226q0 172 -102 172q-111 0 -147 -193q-48 -231 -48 -415z" />
<glyph unicode="&#xff;" horiz-adv-x="591" d="M43 -336l135 361l-108 903h118l52 -514q12 -123 12 -234q12 43 72 215l190 533h121l-469 -1264h-123zM168 1137q0 39 29.5 68.5t68.5 29.5q33 0 55.5 -21.5t22.5 -56.5q0 -39 -30.5 -68.5t-69.5 -29.5q-31 0 -53.5 22.5t-22.5 55.5zM420 1137q0 39 29.5 68.5t68.5 29.5 q35 0 56.5 -21.5t21.5 -56.5q0 -39 -30.5 -68.5t-69.5 -29.5q-31 0 -53.5 22.5t-22.5 55.5z" />
<glyph unicode="&#x152;" horiz-adv-x="1089" d="M86 393q0 205 34 404.5t87 326.5q113 260 303 260q123 0 184 -141l15 123h415l-14 -117h-297l-59 -481h288l-14 -117h-289l-65 -534h297l-15 -117h-415l18 143q-90 -164 -233 -163q-117 0 -178.5 105t-61.5 308zM207 383q0 -279 147 -279q133 0 201 220q35 111 59.5 306 t24.5 363q0 268 -137 269q-63 0 -106.5 -45.5t-80.5 -149.5q-45 -127 -76.5 -326.5t-31.5 -357.5z" />
<glyph unicode="&#x153;" horiz-adv-x="1026" d="M59 315q0 274 90.5 450.5t229.5 176.5q68 0 113 -52t55 -142q31 88 94.5 141t134.5 53q90 0 142.5 -83t52.5 -226q0 -61 -15 -189h-395q-6 -84 -6 -122q0 -106 31.5 -167t87.5 -61q117 0 139 225h109q-16 -154 -88 -243.5t-179 -89.5q-72 0 -120 52t-58 144 q-74 -197 -219 -196q-96 0 -147.5 85.5t-51.5 243.5zM170 324q0 -109 27.5 -169.5t76.5 -60.5q80 0 136.5 153.5t56.5 373.5q0 100 -27.5 156.5t-74.5 56.5q-82 0 -138.5 -148.5t-56.5 -361.5zM578 543h280q6 55 6 84q0 94 -28.5 150.5t-77.5 56.5q-68 0 -116 -79t-64 -212z " />
<glyph unicode="&#x178;" horiz-adv-x="638" d="M113 1366h135l78 -399q23 -123 30 -244q29 102 90 250l164 393h135l-339 -768l-74 -598h-125l74 598zM250 1559q0 39 29.5 69.5t68.5 30.5q33 0 55.5 -22.5t22.5 -55.5q0 -41 -30.5 -70.5t-69.5 -29.5q-33 0 -54.5 22.5t-21.5 55.5zM508 1559q0 39 29.5 69.5t68.5 30.5 q33 0 55.5 -22.5t22.5 -55.5q0 -41 -30.5 -70.5t-69.5 -29.5q-33 0 -54.5 22.5t-21.5 55.5z" />
<glyph unicode="&#x2c6;" horiz-adv-x="1024" d="M381 1116l242 221l186 -225l-84 -74l-119 146l-162 -146z" />
<glyph unicode="&#x2dc;" horiz-adv-x="1024" d="M373 1071q35 156 149 156q45 0 135 -45q18 -12 37 -13q25 0 37 50h113q-12 -76 -52 -116t-102 -40q-51 0 -125 43q-27 16 -43 16q-27 0 -37 -51h-112z" />
<glyph unicode="&#x2000;" horiz-adv-x="883" />
<glyph unicode="&#x2001;" horiz-adv-x="1767" />
<glyph unicode="&#x2002;" horiz-adv-x="883" />
<glyph unicode="&#x2003;" horiz-adv-x="1767" />
<glyph unicode="&#x2004;" horiz-adv-x="589" />
<glyph unicode="&#x2005;" horiz-adv-x="441" />
<glyph unicode="&#x2006;" horiz-adv-x="294" />
<glyph unicode="&#x2007;" horiz-adv-x="294" />
<glyph unicode="&#x2008;" horiz-adv-x="220" />
<glyph unicode="&#x2009;" horiz-adv-x="353" />
<glyph unicode="&#x200a;" horiz-adv-x="98" />
<glyph unicode="&#x2010;" horiz-adv-x="278" d="M-6 414l18 143h279l-19 -143h-278z" />
<glyph unicode="&#x2011;" horiz-adv-x="278" d="M-6 414l18 143h279l-19 -143h-278z" />
<glyph unicode="&#x2013;" horiz-adv-x="739" d="M127 414l18 143h471l-18 -143h-471z" />
<glyph unicode="&#x2014;" horiz-adv-x="835" d="M-6 414l18 143h834l-17 -143h-835z" />
<glyph unicode="&#x2018;" horiz-adv-x="411" d="M143 979l228 405l82 -41l-191 -421z" />
<glyph unicode="&#x2019;" horiz-adv-x="411" d="M141 963l191 421l119 -59l-228 -403z" />
<glyph unicode="&#x201a;" horiz-adv-x="411" d="M-20 -250l190 420l119 -57l-228 -404z" />
<glyph unicode="&#x201c;" horiz-adv-x="651" d="M143 979l228 405l82 -41l-191 -421zM381 979l229 405l80 -41l-190 -421z" />
<glyph unicode="&#x201d;" horiz-adv-x="651" d="M141 963l191 421l119 -59l-228 -403zM379 963l190 421l119 -59l-227 -403z" />
<glyph unicode="&#x201e;" horiz-adv-x="651" d="M-20 -250l190 420l119 -57l-228 -404zM217 -250l191 420l118 -57l-227 -404z" />
<glyph unicode="&#x2022;" horiz-adv-x="1366" d="M426 692q0 119 84 202t205 83q113 0 195.5 -84t82.5 -199q0 -119 -83 -201.5t-199.5 -82.5t-200.5 83.5t-84 198.5z" />
<glyph unicode="&#x2026;" horiz-adv-x="989" d="M27 68q0 39 31.5 70.5t70.5 31.5q35 0 57.5 -23.5t22.5 -56.5q0 -41 -31 -72.5t-72 -31.5q-35 0 -57 23.5t-22 58.5zM356 68q0 39 31 70.5t72 31.5q33 0 56.5 -23.5t23.5 -56.5q0 -41 -31 -72.5t-72 -31.5q-35 0 -57.5 23.5t-22.5 58.5zM686 68q0 39 32 70.5t70 31.5 q35 0 57.5 -23.5t22.5 -56.5q0 -41 -30.5 -72.5t-71.5 -31.5q-35 0 -57.5 23.5t-22.5 58.5z" />
<glyph unicode="&#x202f;" horiz-adv-x="353" />
<glyph unicode="&#x2039;" horiz-adv-x="430" d="M70 485l266 385l72 -43l-234 -342l150 -350l-84 -47z" />
<glyph unicode="&#x203a;" horiz-adv-x="430" d="M27 135l233 350l-147 342l82 43l172 -385l-269 -397z" />
<glyph unicode="&#x205f;" horiz-adv-x="441" />
<glyph unicode="&#x20ac;" horiz-adv-x="811" d="M74 563l28 84h76q8 59 12 84h-96l29 84h82q53 254 125 373q117 199 311 198q96 0 156 -45l-41 -120q-70 43 -123 43q-162 0 -242 -217q-29 -74 -59 -232h297l-27 -84h-285q-2 -14 -5 -43t-5 -41h266l-28 -84h-244q-4 -106 -4 -145q0 -311 180 -312q68 0 158 50l-14 -127 q-82 -47 -166 -47q-135 0 -213 115.5t-78 316.5q0 66 6 149h-96z" />
<glyph unicode="&#x2122;" horiz-adv-x="917" d="M123 1286l10 80h309l-10 -80h-113l-86 -698h-83l86 698h-113zM358 588l203 778h72l18 -575l168 575h72l-2 -778h-82l8 534l-156 -534h-69l-21 524l-129 -524h-82z" />
</font>
</defs>
</svg>
