<?xml version="1.0" standalone="no"?>
<!DOCTYPE svg PUBLIC "-//W3C//DTD SVG 1.1//EN" "http://www.w3.org/Graphics/SVG/1.1/DTD/svg11.dtd" >
<svg xmlns="http://www.w3.org/2000/svg">
<metadata>
This is a custom SVG webfont generated by Fontspring.
</metadata>
<defs>
<font id="webfontaydUloiw" horiz-adv-x="1447" >
<font-face units-per-em="2048" ascent="1542" descent="-506" />
<missing-glyph horiz-adv-x="512" />
<glyph unicode=" "  horiz-adv-x="512" />
<glyph unicode="&#x09;" horiz-adv-x="512" />
<glyph unicode="&#xa0;" horiz-adv-x="512" />
<glyph unicode="!" horiz-adv-x="841" d="M176 211q0 96 77 159.5t191.5 63.5t193.5 -67.5t79 -167.5q0 -90 -80 -158t-188 -68q-111 0 -192 71t-81 167zM244 537l114 938h496l-115 -938h-495z" />
<glyph unicode="&#x22;" horiz-adv-x="890" d="M238 803l18 563h297l-121 -563h-194zM655 803l21 563h295l-121 -563h-195z" />
<glyph unicode="#" horiz-adv-x="1228" d="M170 412l27 219h217l24 129h-200l26 221h215l70 385h221l-72 -385h133l72 385h223l-71 -385h174l-27 -221h-188l-25 -129h180l-26 -219h-193l-78 -412h-223l76 412h-131l-76 -412h-221l76 412h-203zM635 631h131l25 129h-132z" />
<glyph unicode="$" d="M131 139l162 371q190 -180 426 -180q88 0 138 27.5t50 74.5q0 39 -30.5 59.5t-104.5 28.5q-240 31 -356 103q-70 45 -112 125.5t-42 175.5q0 121 64.5 227t177.5 164q98 51 233 71l15 113h323l-14 -113q154 -14 346 -100l-160 -362q-147 129 -336 129q-164 0 -163 -95 q0 -35 26.5 -48t126.5 -31q254 -45 350 -113q141 -98 142 -293q0 -229 -197 -371q-68 -49 -135.5 -73.5t-186.5 -44.5l-28 -244h-320l31 244q-227 34 -426 155z" />
<glyph unicode="%" horiz-adv-x="2168" d="M172 1012q0 170 121 279.5t309 109.5q199 0 323 -104.5t124 -272.5q0 -164 -130.5 -276.5t-318.5 -112.5t-308 105.5t-120 271.5zM440 0l1184 1366h266l-1179 -1366h-271zM535 1016q0 -35 20 -59.5t53 -24.5q35 0 60.5 31.5t25.5 72.5q0 35 -20.5 59.5t-50.5 24.5 q-35 0 -61.5 -30.5t-26.5 -73.5zM1288 342q0 170 121 279.5t309 109.5q199 0 323 -104.5t124 -272.5q0 -164 -130 -276.5t-318.5 -112.5t-308.5 105.5t-120 271.5zM1651 346q0 -35 20.5 -59.5t52.5 -24.5q35 0 60.5 32t25.5 73q0 35 -20.5 59.5t-50.5 24.5q-35 0 -61.5 -31 t-26.5 -74z" />
<glyph unicode="&#x26;" horiz-adv-x="1779" d="M133 408q0 205 164 305q72 47 211 75q-102 129 -102 250q0 172 146 280.5t378 108.5q207 0 340 -90q76 -49 120 -129t44 -164q0 -229 -320 -354l105 -125q72 51 111.5 91t117.5 132l258 -337l-227 -154l295 -297h-600l-72 86q-248 -121 -459 -121q-219 0 -364.5 126.5 t-145.5 316.5zM614 422q0 -37 34 -60.5t87 -23.5q49 0 119 29l-139 159q-101 -30 -101 -104zM858 1030q0 -39 47 -108l17 8q88 45 88 110q0 33 -20.5 54.5t-49.5 21.5q-35 0 -58.5 -24.5t-23.5 -61.5z" />
<glyph unicode="'" horiz-adv-x="444" d="M223 803l19 563h297l-121 -563h-195z" />
<glyph unicode="(" horiz-adv-x="876" d="M166 332q0 389 129 719q84 211 297 544l346 -237q-186 -297 -264 -540t-78 -529q0 -334 113 -635l-392 -143q-84 248 -117.5 431t-33.5 390z" />
<glyph unicode=")" horiz-adv-x="876" d="M74 -252q186 297 264 539.5t78 527.5q0 336 -113 637l391 143q84 -246 118 -429t34 -390q0 -391 -129 -721q-43 -115 -105.5 -228.5t-189.5 -315.5z" />
<glyph unicode="*" d="M471 1180l104 221l195 -113l8 225l244 -28l-49 -221l217 61l47 -240l-225 -22l129 -189l-215 -118l-92 207l-140 -179l-180 168l170 150z" />
<glyph unicode="+" d="M281 545v301h362v348h301v-348h361v-301h-361v-346h-301v346h-362z" />
<glyph unicode="," horiz-adv-x="704" d="M-59 -328l270 703h479l-383 -703h-366z" />
<glyph unicode="-" horiz-adv-x="561" d="M35 285l51 409h561l-51 -409h-561z" />
<glyph unicode="." horiz-adv-x="727" d="M119 190q0 98 82 170t194 72q109 0 185.5 -66.5t76.5 -162.5q0 -94 -80.5 -162t-195.5 -68q-113 0 -187.5 62.5t-74.5 154.5z" />
<glyph unicode="/" horiz-adv-x="956" d="M-156 -395l1004 1888h354l-1003 -1888h-355z" />
<glyph unicode="0" d="M145 635q0 330 191.5 548t480.5 218q285 0 467 -191.5t182 -490.5q0 -137 -49 -277.5t-133 -240.5q-94 -113 -227 -174.5t-281 -61.5q-256 0 -430 164q-201 189 -201 506zM635 610q0 -109 37 -172t100 -63q82 0 142.5 113.5t60.5 267.5q0 106 -38 167.5t-101 61.5 q-80 0 -140.5 -112.5t-60.5 -262.5z" />
<glyph unicode="1" d="M446 944l52 422h727l-168 -1366h-504l115 944h-222z" />
<glyph unicode="2" d="M66 0l6 45l657 567q180 158 180 269q0 51 -31.5 83.5t-78.5 32.5q-127 0 -135 -184h-498q18 129 51 209t98 158q188 221 506 221q256 0 420 -136.5t164 -349.5q0 -238 -242 -407q-131 -94 -270 -137l8 -23q113 41 270 41h185l-47 -389h-1243z" />
<glyph unicode="3" d="M141 473h504q-2 -12 -2 -33q0 -57 36 -93t93 -36q61 0 104.5 41t43.5 99q0 53 -37 88.5t-95 35.5q-10 0 -47 -4l35 279q27 -6 39 -6q51 0 85 30.5t34 77.5q0 45 -28.5 75t-71.5 30q-88 0 -105 -113h-475q31 188 143 295q168 162 457 162q244 0 401.5 -116t157.5 -294 q0 -106 -65.5 -180t-169.5 -90v-21q102 -18 162.5 -96t60.5 -192q0 -86 -41 -170t-111 -140q-172 -137 -463 -137q-330 0 -510 185q-110 112 -135 323z" />
<glyph unicode="4" d="M94 260l45 373l639 733h588l-90 -733h188l-45 -373h-188l-33 -260h-457l33 260h-680zM571 606l9 -14q72 41 168 41h83l15 117q12 111 82 270h-21q-37 -78 -116 -178l-95 -119q-33 -43 -125 -117z" />
<glyph unicode="5" d="M160 70l106 379q219 -102 412 -103q109 0 170 33t61 90q0 121 -235 121q-180 0 -391 -78l235 854h918l-47 -383h-562l-36 -129q98 25 180 25q190 0 314 -113t124 -285q0 -229 -198.5 -372.5t-514.5 -143.5q-249 1 -536 105z" />
<glyph unicode="6" d="M125 526q0 156 73.5 291t237.5 275l320 274h694l-381 -301q-82 -68 -151 -94l6 -27q45 16 90 17q170 0 281.5 -122t111.5 -309q0 -244 -184.5 -404.5t-464.5 -160.5q-276 0 -454.5 157.5t-178.5 403.5zM604 506q0 -70 44 -114t110 -44q72 0 121 50.5t49 121.5 q0 74 -42 119t-110 45q-72 0 -122 -52t-50 -126z" />
<glyph unicode="7" d="M158 0l532 762q100 143 182 207l-8 16q-53 -16 -147 -16h-441l50 397h1304l-907 -1366h-565z" />
<glyph unicode="8" d="M154 422q0 172 143 264q59 37 162 47l2 15q-190 55 -191 245q0 174 161 291t405 117q250 0 420.5 -120t170.5 -294q0 -133 -96 -217q-55 -51 -170 -78v-16q94 -20 146 -64q90 -80 90 -206q0 -76 -38 -156t-102 -133q-174 -152 -469 -152q-268 0 -451 132t-183 325z M635 438q0 -57 43 -100t100.5 -43t98.5 41t41 96q0 61 -40 103.5t-98 42.5q-61 0 -103 -40.5t-42 -99.5zM735 954q0 -45 32 -77.5t79 -32.5t79.5 31.5t32.5 76.5q0 49 -32.5 82t-79.5 33t-79 -33t-32 -80z" />
<glyph unicode="9" d="M178 0l307 248q139 111 220 141l-11 23q-70 -14 -102 -15q-174 0 -292 126t-118 311q0 248 188.5 407.5t477.5 159.5q266 0 438 -154q184 -162 184 -405q0 -168 -88 -320q-55 -94 -194 -219l-340 -303h-670zM664 829q0 -70 43 -117.5t108 -47.5q72 0 126 55t54 129 q0 72 -44 118t-113 46q-72 0 -123 -53.5t-51 -129.5z" />
<glyph unicode=":" horiz-adv-x="727" d="M119 190q0 98 82 170t194 72q109 0 185.5 -66.5t76.5 -162.5q0 -94 -80.5 -162t-195.5 -68q-113 0 -187.5 62.5t-74.5 154.5zM186 741q0 98 82 170t195 72q109 0 185.5 -66.5t76.5 -162.5q0 -94 -81 -162t-195 -68q-113 0 -188 62.5t-75 154.5z" />
<glyph unicode=";" horiz-adv-x="704" d="M-59 -328l270 703h479l-383 -703h-366zM244 741q0 98 83 170t195 72q109 0 185.5 -66.5t76.5 -162.5q0 -94 -80.5 -162t-195.5 -68q-113 0 -188.5 62.5t-75.5 154.5z" />
<glyph unicode="&#x3c;" horiz-adv-x="1024" d="M94 522v344l887 500v-412l-451 -262l451 -262v-407z" />
<glyph unicode="=" d="M281 389v232h1024v-232h-1024zM281 772v232h1024v-232h-1024z" />
<glyph unicode="&#x3e;" horiz-adv-x="1024" d="M92 23v409l451 262l-451 264v408l887 -502v-342z" />
<glyph unicode="?" horiz-adv-x="1275" d="M207 1010q16 182 115 301q160 193 446 192q238 0 395.5 -137t157.5 -344q0 -219 -165 -355.5t-427 -136.5q-63 0 -178 15l43 358q63 -16 102 -16q74 0 121 42t47 107q0 43 -25.5 71t-64.5 28q-96 0 -96 -125h-471zM397 201q0 96 81 164.5t196 68.5q109 0 186.5 -69.5 t77.5 -167.5q0 -92 -80 -158t-192.5 -66t-190.5 67t-78 161z" />
<glyph unicode="@" horiz-adv-x="1501" d="M184 672q0 285 201 483.5t489 198.5q256 0 440.5 -167t184.5 -403q0 -113 -49 -212t-139 -164q-127 -94 -254 -95q-96 0 -148 70q-80 -49 -119.5 -63.5t-89.5 -14.5q-115 0 -190.5 81t-75.5 204q0 164 123 298t274 134q121 0 199 -82l19 49h215l-156 -485l-4 -12 q-2 -6 -3 -10.5t-1 -6.5q-8 -16 -8 -31q0 -12 11 -22t25 -10q27 0 73 31.5t81 72.5q88 115 88 256q0 188 -146.5 324.5t-349.5 136.5q-231 0 -390.5 -162t-159.5 -397q0 -238 162.5 -403t398.5 -165q106 0 190 35t180 119l84 -94q-215 -184 -462 -184q-287 0 -490 201.5 t-203 488.5zM670 510q0 -47 20.5 -75.5t52.5 -28.5q96 0 164 192l45 129q20 55 21 98q0 35 -20.5 59.5t-49.5 24.5q-94 0 -164 -147q-69 -154 -69 -252z" />
<glyph unicode="A" horiz-adv-x="1449" d="M0 0l631 1378h565l254 -1378h-506l-10 182h-336l-66 -182h-532zM713 496h188l-20 245q-4 57 -4 96.5t6 110.5h-17q-23 -106 -61 -207z" />
<glyph unicode="B" horiz-adv-x="1394" d="M137 0l168 1366h615q207 0 313 -78q137 -98 137 -284q0 -131 -78 -222q-51 -59 -149 -84l2 -12q86 -18 133 -65q90 -90 90 -228q0 -170 -132 -281.5t-333 -111.5h-766zM651 319h33q113 0 160 33q47 31 47 92q0 94 -129 95h-84zM717 854h43q78 0 108 18q45 29 45 82 q0 78 -104 78h-70z" />
<glyph unicode="C" horiz-adv-x="1191" d="M154 643q0 326 215 542t538 216q178 0 355 -64l-41 -487q-131 106 -273 106q-121 0 -211 -89t-90 -210q0 -106 75 -177.5t187 -71.5q147 0 271 116l-60 -497q-178 -61 -311 -62q-242 0 -426 152q-229 192 -229 526z" />
<glyph unicode="D" horiz-adv-x="1523" d="M137 0l168 1366h463q367 0 565 -174q96 -86 149.5 -214t53.5 -273q0 -164 -65.5 -304.5t-184.5 -234.5q-113 -90 -251 -128t-351 -38h-547zM682 406h70q123 0 209 91t86 222q0 106 -67 176t-169 70h-59z" />
<glyph unicode="E" horiz-adv-x="1124" d="M137 0l168 1366h899l-45 -354h-401l-19 -152h369l-43 -338h-369l-18 -155h418l-45 -367h-914z" />
<glyph unicode="F" horiz-adv-x="1071" d="M137 0l168 1366h873l-45 -365h-377l-19 -149h353l-46 -360h-352l-59 -492h-496z" />
<glyph unicode="G" horiz-adv-x="1654" d="M156 651q0 328 224 539t570 211q299 0 496 -154q88 -68 174 -192l-467 -183q-53 66 -96 90.5t-105 24.5q-127 0 -215 -105.5t-88 -258.5q0 -123 73 -201t187 -78q154 0 219 139h-251l36 314h750q2 -33 2 -74q0 -340 -208 -549t-548 -209q-338 0 -555 205 q-198 182 -198 481z" />
<glyph unicode="H" horiz-adv-x="1556" d="M137 0l168 1366h496l-58 -467h293l58 467h495l-168 -1366h-495l59 496h-291l-61 -496h-496z" />
<glyph unicode="I" horiz-adv-x="776" d="M137 0l168 1366h502l-168 -1366h-502z" />
<glyph unicode="J" horiz-adv-x="933" d="M-12 72l159 442q57 -123 138 -123q37 0 52 25.5t25 97.5l105 852h496l-117 -954q-14 -129 -44 -198t-93 -124q-143 -125 -357 -125q-178 1 -364 107z" />
<glyph unicode="K" horiz-adv-x="1499" d="M137 0l168 1366h496l-43 -352q-12 -109 -43 -240l12 -4q47 113 133 252l217 344h578l-531 -692l349 -674h-525l-174 393q-49 111 -67 201l-17 -2q2 -18 2 -41q0 -61 -10 -158l-49 -393h-496z" />
<glyph unicode="L" horiz-adv-x="1085" d="M137 0l168 1366h502l-117 -954l420 12l-51 -424h-922z" />
<glyph unicode="M" horiz-adv-x="1941" d="M82 0l397 1366h525l53 -426q10 -86 10 -152q0 -78 -12 -149h20q37 188 121 391l137 336h522l5 -1366h-482l27 403q14 211 47 381l-18 2q-33 -137 -50.5 -191t-70.5 -181l-174 -414h-312l-53 432q-16 154 -16 252q0 53 4 102h-17q-23 -178 -61 -354l-100 -432h-502z" />
<glyph unicode="N" horiz-adv-x="1662" d="M137 0l168 1366h498l244 -514q43 -92 98 -285h18q-12 137 -12 235.5t6 160.5l35 403h504l-168 -1366h-481l-238 471q-70 139 -115 303l-18 -2q8 -76 8 -164q0 -76 -4 -137l-45 -471h-498z" />
<glyph unicode="O" horiz-adv-x="1654" d="M156 664q0 309 218 523t533 214q307 0 532.5 -188.5t225.5 -524.5q0 -305 -216 -514t-531 -209q-156 0 -304.5 57.5t-255.5 157.5q-202 197 -202 484zM653 659q0 -115 69 -189.5t173 -74.5q115 0 193.5 82t78.5 203q0 115 -69.5 191.5t-171.5 76.5q-113 0 -193 -85 t-80 -204z" />
<glyph unicode="P" horiz-adv-x="1361" d="M137 0l168 1366h569q258 0 394 -102q172 -137 172 -365q0 -209 -144 -348q-141 -135 -422 -135h-190l-51 -416h-496zM725 756h47q186 0 186 145q0 63 -47 92q-29 16 -104 17h-51z" />
<glyph unicode="Q" horiz-adv-x="1660" d="M158 664q0 346 260 561q217 176 506 176q309 0 526 -191q227 -199 227 -524q0 -154 -43 -252t-155 -201l178 -268l-416 -133l-90 186q-135 -53 -268 -53q-264 0 -467 158q-258 201 -258 541zM655 637q0 -113 71 -190.5t173 -77.5q23 0 64 6l-142 190l348 35q10 61 11 92 q0 102 -75 179t-175 77q-113 0 -194 -92t-81 -219z" />
<glyph unicode="R" horiz-adv-x="1435" d="M137 0l168 1366h545q166 0 259 -23.5t169 -87.5q74 -61 117 -152t43 -188q0 -186 -138 -301q-74 -61 -202 -79l297 -535h-537l-123 330q-37 104 -51 182l-16 -2q4 -47 4 -100q0 -92 -10 -181l-29 -229h-496zM725 754h43q84 0 134 36.5t50 100.5q0 109 -157 108h-39z" />
<glyph unicode="S" horiz-adv-x="1243" d="M90 129l184 369q61 -76 153.5 -119t188.5 -43q51 0 82 22.5t31 57.5q0 68 -127 96q-125 27 -196 61q-195 98 -195 336q0 205 164 348.5t397 143.5q236 0 510 -141l-182 -365q-135 123 -299 123q-41 0 -67.5 -20.5t-26.5 -51.5t29.5 -49t117.5 -39q139 -35 223 -88 q68 -47 109 -130t41 -177q0 -205 -175 -351.5t-421 -146.5q-242 0 -541 164z" />
<glyph unicode="T" horiz-adv-x="983" d="M129 936l53 430h955l-52 -430l-219 14l-116 -950h-502l117 950z" />
<glyph unicode="U" horiz-adv-x="1552" d="M201 469q0 59 6 111l96 786h502l-92 -756q-8 -78 -8 -100q0 -129 122 -129q70 0 107 49t51 162l94 774h504l-94 -756q-27 -213 -63.5 -308t-127.5 -177q-176 -160 -460 -160q-299 0 -484 148q-153 123 -153 356z" />
<glyph unicode="V" horiz-adv-x="1421" d="M168 1366h518l55 -430q12 -109 13 -203q0 -78 -9 -182l19 -2q27 240 106 432l158 385h561l-684 -1366h-430z" />
<glyph unicode="W" horiz-adv-x="2129" d="M168 1366h512l45 -530q8 -119 8 -181q0 -59 -4 -108h21q25 188 94 375l164 444h407l58 -520q14 -137 14 -246v-55h18q16 141 31.5 209.5t52.5 177.5l148 434h561l-656 -1366h-417l-62 440q-16 121 -16 226q0 33 2 57l-19 2q-31 -147 -106 -350l-139 -375h-443z" />
<glyph unicode="X" horiz-adv-x="1515" d="M0 0l569 731l-370 635h559l65 -172q37 -98 41 -137l13 -2q16 49 65 149l84 162h598l-518 -655l410 -711h-535l-104 223q-35 74 -56 156h-16q-23 -70 -74 -156l-131 -223h-600z" />
<glyph unicode="Y" horiz-adv-x="1400" d="M154 1366h542l70 -223q20 -66 27 -154l18 -2q8 45 49 129l125 250h598l-575 -784l-72 -582h-492l74 592z" />
<glyph unicode="Z" horiz-adv-x="1296" d="M27 0l14 123l479 672q90 127 148 161l-9 15q-76 -23 -178 -25l-313 -10l53 430h1192l-14 -121l-508 -713q-49 -70 -72.5 -95t-58.5 -50l8 -16q78 25 180 26l371 9l-49 -406h-1243z" />
<glyph unicode="[" horiz-adv-x="880" d="M102 -395l232 1888h676l-21 -170h-266l-191 -1548h267l-21 -170h-676z" />
<glyph unicode="\" horiz-adv-x="956" d="M135 1493h328l538 -1888h-325z" />
<glyph unicode="]" horiz-adv-x="880" d="M6 -395l21 170h266l190 1548h-266l21 170h675l-231 -1888h-676z" />
<glyph unicode="^" horiz-adv-x="935" d="M-12 682l276 694h457l276 -694h-358l-145 416l-146 -416h-360z" />
<glyph unicode="_" horiz-adv-x="1024" d="M25 -94h1024v-240h-1024v240z" />
<glyph unicode="`" horiz-adv-x="1024" d="M408 1335l221 170l196 -270l-163 -143z" />
<glyph unicode="a" horiz-adv-x="1335" d="M109 422q0 227 143 398t336 171q143 0 223 -86q35 -39 66 -121l14 7q-10 86 -10 165h471l-117 -956h-471q16 68 53 170l-16 6q-59 -106 -129 -154.5t-164 -48.5q-162 0 -280.5 134.5t-118.5 314.5zM586 457q0 -51 33.5 -86t82.5 -35q57 0 96.5 43t39.5 106q0 57 -32 93 t-81 36q-57 0 -98 -47t-41 -110z" />
<glyph unicode="b" horiz-adv-x="1308" d="M98 0l185 1493h473l-58 -467q-14 -123 -57 -229l12 -9q90 203 281 203q162 0 270.5 -137t108.5 -342q0 -225 -133 -382t-324 -157q-197 0 -295 193l-14 -4q10 -63 10 -162h-459zM606 469q0 -57 33 -95t82 -38q51 0 87 43t36 104.5t-31 98t-80 36.5q-53 0 -90 -43 t-37 -106z" />
<glyph unicode="c" horiz-adv-x="894" d="M113 451q0 250 154.5 404.5t404.5 154.5q117 0 284 -54l-59 -401q-70 84 -166 84q-68 0 -108.5 -45t-40.5 -119q0 -63 36.5 -101t100.5 -38q84 0 160 67l-70 -393q-127 -37 -215 -37q-186 0 -326 117q-155 132 -155 361z" />
<glyph unicode="d" horiz-adv-x="1316" d="M111 426q0 233 133 399t321 166q217 0 287 -211l16 4q-6 55 -6 82q0 86 15 197l53 430h473l-184 -1493h-474q18 76 48 160l-17 8q-88 -195 -287 -195q-164 0 -271 129t-107 324zM580 473q0 -51 34.5 -89t81.5 -38q53 0 89 44t36 108q0 59 -30.5 93t-81.5 34 q-53 0 -91 -44.5t-38 -107.5z" />
<glyph unicode="e" horiz-adv-x="1265" d="M115 469q0 231 169 387t423 156q236 0 398.5 -144.5t162.5 -355.5q0 -41 -8 -98h-678q-2 -12 -2 -35q0 -59 28.5 -94t75.5 -35q70 0 102 82h457q-49 -135 -135 -213q-168 -145 -420 -146q-254 0 -413.5 138.5t-159.5 357.5zM600 610h221q-2 127 -104 127q-97 0 -117 -127 z" />
<glyph unicode="f" horiz-adv-x="739" d="M88 590l45 375l119 -21l27 219q20 176 128.5 271.5t286.5 95.5q86 0 203 -29l-47 -383q-20 10 -37 10q-61 0 -76 -96l-12 -88l119 12l-45 -366l-115 12l-74 -602h-475l74 602z" />
<glyph unicode="g" horiz-adv-x="1318" d="M82 -356l127 311q168 -102 307 -102q164 0 227 116q29 53 58 201l-15 4q-39 -86 -81 -121q-72 -59 -197 -59q-170 0 -282.5 130t-112.5 325q0 227 136 384.5t335 157.5q209 0 282 -196l15 4q0 10 -1 23.5t-2 20.5t-1 11l-5 70v32h465l-104 -858q-20 -166 -64.5 -260 t-134.5 -166q-176 -137 -454 -137q-238 0 -498 109zM582 463q0 -57 32.5 -93t83.5 -36q57 0 95 41t38 100.5t-31.5 98t-80.5 38.5q-57 0 -97 -44t-40 -105z" />
<glyph unicode="h" horiz-adv-x="1294" d="M98 0l185 1493h473l-54 -432q-20 -164 -51 -256l19 -6q109 193 305 192q127 0 213 -88t86 -219q0 -35 -8 -109l-70 -575h-475l57 463q6 49 6 65q0 70 -61 70q-41 0 -70 -35q-16 -25 -28 -117l-54 -446h-473z" />
<glyph unicode="i" horiz-adv-x="679" d="M106 0l117 956h473l-116 -956h-474zM231 1292q0 96 81 167t192 71q109 0 186.5 -67.5t77.5 -162.5q0 -92 -81 -158.5t-193 -66.5q-111 0 -187 63.5t-76 153.5z" />
<glyph unicode="j" horiz-adv-x="681" d="M59 -395l166 1351h473l-166 -1351h-473zM231 1292q0 96 81 167t192 71q109 0 186.5 -67.5t77.5 -162.5q0 -92 -81 -158.5t-193 -66.5q-111 0 -187 63.5t-76 153.5z" />
<glyph unicode="k" horiz-adv-x="1331" d="M98 0l185 1493h473l-70 -569q-14 -129 -59 -359l14 -2q35 86 125 221l117 172h563l-412 -493l275 -463h-525l-86 188q-63 139 -82 232h-18q6 -88 6 -119q0 -53 -4 -80l-29 -221h-473z" />
<glyph unicode="l" horiz-adv-x="669" d="M98 0l185 1493h473l-185 -1493h-473z" />
<glyph unicode="m" horiz-adv-x="1849" d="M98 0l117 956h461q-12 -61 -43 -157l22 -4q61 106 131 151t172 45q215 0 246 -200h17q78 201 295 200q141 0 227 -85t86 -224q0 -49 -10 -135l-68 -547h-461l60 483q6 49 6 64q0 29 -16.5 48t-39.5 19q-43 0 -67 -47q-8 -23 -21 -114l-57 -453h-461l58 471q8 66 8 78 q0 27 -15.5 45t-37.5 18q-41 0 -66 -39q-14 -25 -25 -108l-57 -465h-461z" />
<glyph unicode="n" horiz-adv-x="1296" d="M98 0l117 956h475q-18 -94 -47 -168l16 -6q72 115 140.5 162t161.5 47q135 0 224 -89t89 -222q0 -59 -10 -145l-66 -535h-475l57 463q6 45 6 65q0 70 -61 70q-41 0 -70 -35q-16 -25 -28 -117l-56 -446h-473z" />
<glyph unicode="o" horiz-adv-x="1304" d="M117 485q0 225 170 375t424 150q262 0 434 -138q166 -133 166 -376q0 -221 -171 -372t-425 -151q-258 0 -428 145.5t-170 366.5zM586 481q0 -57 34.5 -95t88.5 -38q55 0 94 43t39 107q0 59 -34 98t-85 39q-57 0 -97 -45.5t-40 -108.5z" />
<glyph unicode="p" horiz-adv-x="1310" d="M49 -395l166 1351h473q-8 -57 -37 -145l19 -8q41 76 69 104q78 84 199 84q158 0 268.5 -139t110.5 -338q0 -217 -131 -379t-307 -162q-115 0 -209 64q-59 43 -90 133l-19 -6q8 -76 8 -117q0 -66 -12 -158l-35 -284h-473zM612 461q0 -55 31 -90t80 -35q53 0 89 42t36 105 q0 59 -31 97t-78 38q-51 0 -89 -45.5t-38 -111.5z" />
<glyph unicode="q" horiz-adv-x="1304" d="M109 430q0 225 136 393t318 168q203 0 281 -203l20 7q-20 72 -22 161h481l-166 -1351l-475 -15l43 340q18 141 66 244l-19 8q-88 -209 -291 -209q-160 0 -266 131t-106 326zM578 475q0 -55 31.5 -92t78.5 -37q53 0 90 43t37 102.5t-29.5 94.5t-78.5 35q-55 0 -92 -42.5 t-37 -103.5z" />
<glyph unicode="r" horiz-adv-x="880" d="M98 0l117 956h479q-16 -78 -53 -168l21 -10q61 109 110 154q68 61 156 61q14 0 59 -10l-57 -471q-63 35 -111 35q-94 0 -155 -88q-39 -49 -54 -178l-35 -281h-477z" />
<glyph unicode="s" horiz-adv-x="974" d="M57 84l117 289q154 -100 281 -101q76 0 75 54q0 47 -106 71q-100 25 -154 56q-109 66 -108 194q0 156 128 259.5t320 103.5q188 0 408 -86l-117 -289q-104 80 -221 80q-82 0 -82 -51q0 -29 19.5 -39.5t123.5 -32.5q106 -25 168 -94.5t62 -167.5q0 -156 -132 -256.5 t-339 -100.5q-104 0 -195.5 22.5t-247.5 88.5z" />
<glyph unicode="t" horiz-adv-x="722" d="M88 590l45 375l119 -21l41 336h475l-43 -336l119 10l-45 -364l-115 12l-74 -602h-475l76 602z" />
<glyph unicode="u" horiz-adv-x="1296" d="M152 381q0 33 8 111l55 464h475l-57 -464q-8 -78 -8 -84q0 -31 20.5 -51.5t48.5 -20.5q45 0 66 35q12 23 22 102l60 483h475l-66 -526q-16 -133 -50 -206.5t-107 -131.5q-145 -119 -392 -119q-272 0 -421 117q-59 45 -94 124t-35 167z" />
<glyph unicode="v" horiz-adv-x="1157" d="M96 956h475l21 -282q4 -66 4 -103q0 -4 -4 -135h18q16 135 62 266l90 254h532l-555 -956h-399z" />
<glyph unicode="w" horiz-adv-x="1691" d="M96 956h479l25 -243q6 -61 6 -117q0 -35 -6 -156l18 -4q20 106 58 221l96 299h338l39 -276q14 -102 18 -238h19q8 113 47 254l72 260h524l-506 -956h-387l-21 174q-18 170 -18 232q0 39 2 69l-16 4q-45 -168 -76 -246l-94 -233h-383z" />
<glyph unicode="x" horiz-adv-x="1296" d="M-4 0l444 504l-317 452h539l32 -100q14 -41 19 -88h18q8 35 37 88l55 100h578l-432 -479l331 -477h-522l-41 88q-29 59 -35 121l-14 2q-12 -35 -51 -98l-72 -113h-569z" />
<glyph unicode="y" horiz-adv-x="1185" d="M96 -395l156 272q68 121 133 199l-289 880h488l41 -266q16 -106 16 -153q0 -25 -6 -99l20 -2q27 145 70 269l88 251h510l-719 -1351h-508z" />
<glyph unicode="z" horiz-adv-x="1054" d="M43 0l16 129l277 367q61 82 117 118l-11 17q-55 -29 -131 -29h-172l45 354h942l-10 -94l-293 -385q-63 -82 -114 -115l8 -24q41 25 117 24h221l-45 -362h-967z" />
<glyph unicode="{" horiz-adv-x="854" d="M164 446l26 226q68 14 96.5 46t37.5 109l45 379q18 160 98 227.5t252 67.5q82 0 258 -4l-29 -235q-18 2 -43 2q-94 0 -127 -17q-25 -14 -34 -34.5t-17 -90.5l-39 -313q-14 -109 -46 -161t-107 -99q53 -39 73.5 -78t20.5 -109q0 -31 -4 -71l-41 -338q-4 -33 -4 -43 q0 -43 31.5 -58.5t119.5 -15.5h41l-29 -233q-33 -2 -67 -2l-66 -2q-12 0 -38.5 -1t-43.5 -1q-170 0 -235 36q-90 53 -90 189q0 29 6 72l45 376q4 29 4 60q0 98 -94 116z" />
<glyph unicode="|" horiz-adv-x="1024" d="M328 -342v1708h415v-1708h-415z" />
<glyph unicode="}" horiz-adv-x="854" d="M12 -397l29 233h43q109 0 137.5 23.5t40.5 117.5l39 314q14 109 46 161t108 97q-53 41 -74 80t-21 106q0 29 5 74l38 313q6 45 7 68q0 43 -32 58.5t-120 15.5q-25 0 -41 -2l29 235l133 4q14 0 42 1t40 1q170 0 235 -37q90 -53 90 -188q0 -29 -6 -72l-45 -379 q-4 -29 -4 -57q0 -98 94 -119l-28 -225q-63 -12 -93 -45t-38 -111l-45 -376q-20 -162 -100.5 -228.5t-250.5 -66.5q-37 0 -258 4z" />
<glyph unicode="~" horiz-adv-x="1366" d="M209 1255q63 166 140 241t186 75q39 0 85 -13.5t209 -74.5q37 -14 66 -15q33 0 57.5 24t57.5 83l196 -166q-66 -158 -133 -231q-82 -82 -192 -82q-59 0 -228 63q-104 39 -135 39q-57 0 -112 -108z" />
<glyph unicode="&#xa1;" horiz-adv-x="841" d="M129 -395l115 938h495l-114 -938h-496zM266 881q0 90 80 157.5t189 67.5q111 0 191.5 -70.5t80.5 -167t-77 -160t-191.5 -63.5t-193.5 68t-79 168z" />
<glyph unicode="&#xa2;" d="M381 674q0 131 53 244.5t148 185.5q154 115 315 108l51 -2l10 82h123l-12 -92q57 -8 148 -39l-60 -395q-70 82 -160 82q-66 0 -109.5 -43t-43.5 -109q0 -57 41 -94t102 -37q82 0 164 70l-70 -391q-49 -18 -133 -35l-12 -92h-131l12 92q-147 12 -248 86q-188 135 -188 379 z" />
<glyph unicode="&#xa3;" d="M106 268q135 66 269 113q57 88 88 170h-166l31 258h157q-23 129 -22 203q0 197 132 313.5t353 116.5q217 0 334 -135q66 -80 90 -228l-338 -112q-16 147 -104 147q-39 0 -64.5 -26.5t-25.5 -65.5q0 -47 30 -213h291l-31 -258h-278q-33 -94 -80 -189q98 -41 130 -51 t73 -10q68 0 162 47l172 -227q-201 -156 -342 -156q-86 0 -250 55q-127 45 -189 46q-102 0 -249 -91z" />
<glyph unicode="&#xa4;" horiz-adv-x="1501" d="M123 219l217 217q-61 123 -61 254q0 133 69 266l-223 222l211 213l227 -228q131 61 256 62q127 0 252 -60l225 221l209 -208l-217 -217q74 -133 74 -271q0 -125 -64 -252l215 -217l-206 -211l-215 215q-129 -74 -275 -73q-127 0 -270 71l-215 -211zM637 694 q0 -78 53 -132t129 -54t130.5 54t54.5 132q0 76 -53.5 130.5t-129.5 54.5t-130 -54.5t-54 -130.5z" />
<glyph unicode="&#xa5;" d="M72 285l26 221h404l10 86l-49 102h-340l27 221h208l-211 451h543l70 -223q20 -68 26 -156h19q14 61 49 129l125 250h598l-330 -451h217l-26 -221h-353l-84 -114l-8 -74h420l-27 -221h-421l-35 -285h-492l35 285h-401z" />
<glyph unicode="&#xa6;" horiz-adv-x="1024" d="M328 313h415v-655h-415v655zM328 621v745h415v-745h-415z" />
<glyph unicode="&#xa7;" d="M143 23h387v-15q0 -66 46.5 -109.5t115.5 -43.5q59 0 94 31.5t35 84.5q0 55 -40 90t-136 66q-135 41 -188.5 65.5t-100.5 69.5q-106 100 -106 258q0 109 51 186.5t164 135.5q-106 121 -107 270q0 180 147.5 284.5t403.5 104.5q238 0 361 -110q129 -113 129 -275 q0 -33 -2 -57h-348v22q0 74 -45.5 119t-118.5 45q-55 0 -90 -28.5t-35 -75.5q0 -66 61 -101q37 -23 185 -73q162 -57 237 -133q104 -111 105 -254q0 -131 -86 -213q-41 -41 -146 -97q61 -76 85 -136t24 -144q0 -188 -137.5 -294t-382.5 -106q-260 0 -405 112t-157 321z M641 553q0 -59 42 -99t103 -40q63 0 109.5 41t46.5 100q0 57 -41 96t-102 39q-70 0 -114 -38t-44 -99z" />
<glyph unicode="&#xa8;" horiz-adv-x="1024" d="M287 1282q0 72 52 123t126 51q70 0 121 -52t51 -122q0 -72 -52.5 -124t-124 -52t-122.5 52t-51 124zM754 1282q0 72 52 123t126 51q70 0 121 -52t51 -122q0 -72 -52.5 -124t-124 -52t-122.5 52t-51 124z" />
<glyph unicode="&#xa9;" horiz-adv-x="1501" d="M125 682q0 299 209 507t512 208q287 0 492.5 -211t205.5 -504q0 -295 -208 -504t-500.5 -209t-501.5 210t-209 503zM281 682q0 -236 162.5 -403.5t392 -167.5t391.5 167.5t162 403.5t-161 404.5t-384 168.5q-238 0 -400.5 -165.5t-162.5 -407.5zM424 662q0 193 136 321.5 t343 128.5q111 0 234 -41l-27 -317q-59 45 -96 59t-86 14q-70 0 -120 -46t-50 -109q0 -57 44 -95t109 -38q74 0 133 43q8 6 50 41l-41 -330q-127 -39 -207 -39q-182 0 -302 116t-120 292z" />
<glyph unicode="&#xaa;" horiz-adv-x="825" d="M150 1042q0 139 92 241.5t217 102.5q113 0 164 -73l4 -6v59h319l-69 -582h-322q2 14 14 58l-6 -6q-68 -68 -151 -68q-106 0 -184 81.5t-78 192.5zM473 1065q0 -25 17.5 -42t44.5 -17q29 0 48 20.5t19 50.5q0 29 -16.5 46.5t-42.5 17.5q-29 0 -49.5 -22.5t-20.5 -53.5z " />
<glyph unicode="&#xab;" horiz-adv-x="1103" d="M129 496l389 477l166 -146l-287 -331l215 -318l-192 -127zM553 496l393 477l174 -146l-291 -331l211 -318l-196 -127z" />
<glyph unicode="&#xac;" horiz-adv-x="1024" d="M92 252v362h887v-614h-404v252h-483z" />
<glyph unicode="&#xad;" horiz-adv-x="561" d="M35 285l51 409h561l-51 -409h-561z" />
<glyph unicode="&#xae;" horiz-adv-x="1501" d="M125 682q0 299 209 507t512 208q287 0 492.5 -211t205.5 -504q0 -295 -208 -504t-500.5 -209t-501.5 210t-209 503zM281 682q0 -236 162.5 -403.5t392 -167.5t391.5 167.5t162 403.5t-161 404.5t-384 168.5q-238 0 -400.5 -165.5t-162.5 -407.5zM446 328l97 778h334 q174 0 260 -64q100 -74 100 -196q0 -84 -52 -145.5t-138 -75.5l180 -297h-350l-91 225q0 -41 -4 -86l-18 -139h-318zM817 758h12q109 0 109 69q0 59 -94 60h-10z" />
<glyph unicode="&#xaf;" horiz-adv-x="1024" d="M301 1163l23 191h710l-22 -191h-711z" />
<glyph unicode="&#xb0;" d="M588 1116q0 111 81 190.5t191 79.5q113 0 194 -79.5t81 -192.5t-80 -193.5t-193 -80.5q-115 0 -194.5 80.5t-79.5 195.5zM743 1116q0 -49 35 -84t82 -35t82 35t35 82t-35 82t-82 35t-82 -34t-35 -81z" />
<glyph unicode="&#xb1;" d="M281 -123v287h1024v-287h-1024zM281 545v301h362v348h301v-348h361v-301h-361v-305h-301v305h-362z" />
<glyph unicode="&#xb2;" horiz-adv-x="983" d="M137 547l6 45l410 334q106 88 106 143q0 25 -16 41t-41 16q-37 0 -52 -24.5t-18 -83.5h-337q20 147 98 235q117 133 323 133q164 0 270.5 -82.5t106.5 -213.5q0 -168 -194 -271l-43 -22l211 2l-33 -252h-797z" />
<glyph unicode="&#xb3;" horiz-adv-x="983" d="M180 848h336v-14q-2 -8 -2 -19q0 -29 21.5 -48t54.5 -19q35 0 58.5 20t23.5 51q0 29 -21.5 47.5t-54.5 18.5q-16 0 -27 -2h-16l22 174q33 -4 35 -4q70 0 70 57q0 23 -16.5 39t-40.5 16q-47 0 -58 -57l-2 -14h-315q14 90 45 137q100 156 344 155q156 0 258 -71.5 t102 -179.5q0 -57 -26.5 -93t-93.5 -71q115 -49 114 -172q0 -121 -108.5 -197t-284.5 -76q-252 0 -356 144q-29 37 -40.5 69.5t-21.5 108.5z" />
<glyph unicode="&#xb4;" horiz-adv-x="1024" d="M541 1235l258 270l207 -168l-299 -245z" />
<glyph unicode="&#xb5;" horiz-adv-x="1296" d="M49 -395l166 1351h473l-55 -464q-10 -76 -10 -84q-2 -29 19.5 -50.5t49.5 -21.5q45 0 66 35q14 23 24 102l60 483h473l-64 -526q-14 -131 -50 -204.5t-109 -133.5q-143 -119 -373 -119q-133 0 -256 45l59 -413h-473z" />
<glyph unicode="&#xb6;" d="M270 993q0 180 113 277q111 96 354 96h742l-33 -272h-152l-157 -1282h-252l157 1282h-170l-157 -1282h-252l106 874q-143 -2 -221 79t-78 228z" />
<glyph unicode="&#xb7;" horiz-adv-x="536" d="M59 477q0 98 82 170t195 72q109 0 185.5 -66.5t76.5 -163.5q0 -94 -81 -161.5t-195 -67.5q-113 0 -188 62.5t-75 154.5z" />
<glyph unicode="&#xb8;" horiz-adv-x="1024" d="M371 -367l235 279l174 -160l-245 -262z" />
<glyph unicode="&#xb9;" horiz-adv-x="983" d="M369 1094l32 272h480l-101 -819h-342l68 547h-137z" />
<glyph unicode="&#xba;" horiz-adv-x="825" d="M154 1030q0 150 122.5 253t298.5 103q162 0 256.5 -73.5t94.5 -200.5q0 -147 -124 -251.5t-298 -104.5q-154 0 -252 76.5t-98 197.5zM475 1057q0 -25 15.5 -41.5t39.5 -16.5q31 0 52.5 25t21.5 59q0 25 -15.5 41.5t-37.5 16.5q-31 0 -53.5 -24.5t-22.5 -59.5z" />
<glyph unicode="&#xbb;" horiz-adv-x="1103" d="M111 197l288 331l-209 318l197 127l291 -445l-393 -477zM547 197l287 331l-216 318l193 127l291 -445l-389 -477z" />
<glyph unicode="&#xbc;" horiz-adv-x="2215" d="M354 1094l33 272h479l-100 -819h-342l68 547h-138zM723 43l846 1362l131 -82l-844 -1362zM1339 150l29 235l401 434h385l-53 -426h117l-29 -243h-118l-19 -150h-309l18 150h-422zM1673 381q39 12 88 12h37l8 53q8 63 29 113z" />
<glyph unicode="&#xbd;" horiz-adv-x="2142" d="M354 1094l33 272h479l-100 -819h-342l68 547h-138zM723 43l846 1362l131 -82l-844 -1362zM1286 0l6 45l410 334q106 88 106 143q0 25 -16 41.5t-43 16.5q-35 0 -50.5 -25t-17.5 -84h-338q20 147 99 236q117 133 323 133q164 0 270.5 -83t106.5 -214q0 -168 -194 -271 l-43 -22l211 2l-33 -252h-797z" />
<glyph unicode="&#xbe;" horiz-adv-x="2201" d="M160 848h336v-14q-2 -8 -2 -19q0 -29 21.5 -48t53.5 -19q35 0 58.5 20t23.5 51q0 29 -21.5 47.5t-54.5 18.5q-16 0 -26 -2h-17l23 174q33 -4 35 -4q70 0 69 57q0 23 -16 39t-41 16q-47 0 -57 -57l-2 -14h-316q14 90 45 137q100 156 344 155q156 0 258.5 -71.5 t102.5 -179.5q0 -57 -26.5 -93t-94.5 -71q115 -49 115 -172q0 -121 -108.5 -197t-284.5 -76q-252 0 -357 144q-29 37 -40 69.5t-21 108.5zM709 43l845 1362l132 -82l-844 -1362zM1325 150l29 235l401 434h385l-53 -426h117l-29 -243h-119l-18 -150h-309l18 150h-422z M1659 381q39 12 88 12h37l8 53q8 63 29 113z" />
<glyph unicode="&#xbf;" horiz-adv-x="1275" d="M88 57q0 219 165 355.5t427 136.5q63 0 178 -14l-43 -359q-63 16 -102 17q-74 0 -121 -42t-47 -108q0 -43 25.5 -70.5t64.5 -27.5q45 0 70.5 32.5t25.5 92.5h471q-16 -182 -115 -301q-160 -193 -446 -193q-238 0 -395.5 137t-157.5 344zM471 883q0 92 80 157.5 t192.5 65.5t190.5 -66.5t78 -160.5q0 -96 -81 -165t-196 -69q-109 0 -186.5 70t-77.5 168z" />
<glyph unicode="&#xc0;" horiz-adv-x="1449" d="M0 0l631 1378h565l254 -1378h-506l-10 182h-336l-66 -182h-532zM608 1763l303 99l176 -293l-251 -74zM713 496h188l-20 245q-4 57 -4 96.5t6 110.5h-17q-23 -106 -61 -207z" />
<glyph unicode="&#xc1;" horiz-adv-x="1449" d="M0 0l631 1378h565l254 -1378h-506l-10 182h-336l-66 -182h-532zM713 496h188l-20 245q-4 57 -4 96.5t6 110.5h-17q-23 -106 -61 -207zM782 1569l234 293l307 -99l-287 -268z" />
<glyph unicode="&#xc2;" horiz-adv-x="1449" d="M0 0l631 1378h565l254 -1378h-506l-10 182h-336l-66 -182h-532zM569 1681l412 181l336 -181l-121 -186l-231 131l-310 -131zM713 496h188l-20 245q-4 57 -4 96.5t6 110.5h-17q-23 -106 -61 -207z" />
<glyph unicode="&#xc3;" horiz-adv-x="1449" d="M0 0l631 1378h565l254 -1378h-506l-10 182h-336l-66 -182h-532zM559 1591q57 109 120.5 158t147.5 49q43 0 73 -8t130 -49q27 -12 57 -12q29 0 44.5 13t31.5 54l178 -76q-88 -195 -245 -194q-55 0 -195 49q-53 20 -82 20q-31 0 -45 -12t-37 -53zM713 496h188l-20 245 q-4 57 -4 96.5t6 110.5h-17q-23 -106 -61 -207z" />
<glyph unicode="&#xc4;" horiz-adv-x="1449" d="M0 0l631 1378h565l254 -1378h-506l-10 182h-336l-66 -182h-532zM496 1677.5q0 71.5 52 122.5t126 51q70 0 121 -52t51 -122q0 -72 -52.5 -124t-124 -52t-122.5 52.5t-51 124zM713 496h188l-20 245q-4 57 -4 96.5t6 110.5h-17q-23 -106 -61 -207zM1020 1677.5 q0 71.5 52 122.5t126 51q70 0 121 -52t51 -122q0 -72 -52 -124t-124 -52t-123 52.5t-51 124z" />
<glyph unicode="&#xc5;" horiz-adv-x="1449" d="M0 0l631 1378h565l254 -1378h-506l-10 182h-336l-66 -182h-532zM696 1694q0 92 71 156.5t173 64.5q100 0 169 -66.5t69 -165.5q0 -88 -68 -148t-168 -60q-102 0 -174 63.5t-72 155.5zM713 496h188l-20 245q-4 57 -4 96.5t6 110.5h-17q-23 -106 -61 -207zM860 1696 q0 -33 22.5 -55.5t55.5 -22.5t55.5 22.5t22.5 55.5q0 31 -22.5 54.5t-53.5 23.5q-33 0 -56.5 -22.5t-23.5 -55.5z" />
<glyph unicode="&#xc6;" horiz-adv-x="1884" d="M14 0l635 1366h981l64 -358h-418l27 -146h415l62 -348h-416l27 -143h413l66 -371h-912l-10 180h-338l-65 -180h-531zM727 489h193l-25 269q-4 41 -4 65q0 49 8 117l-22 4q-14 -84 -52 -186z" />
<glyph unicode="&#xc7;" horiz-adv-x="1191" d="M154 643q0 326 215 542t538 216q178 0 355 -64l-41 -487q-131 106 -273 106q-121 0 -211 -89t-90 -210q0 -106 75 -177.5t187 -71.5q147 0 271 116l-60 -497q-178 -61 -311 -62q-242 0 -426 152q-229 192 -229 526zM461 -367l235 279l174 -160l-245 -262z" />
<glyph unicode="&#xc8;" horiz-adv-x="1124" d="M137 0l168 1366h899l-45 -354h-401l-19 -152h369l-43 -338h-369l-18 -155h418l-45 -367h-914zM483 1763l303 99l177 -293l-252 -74z" />
<glyph unicode="&#xc9;" horiz-adv-x="1124" d="M137 0l168 1366h899l-45 -354h-401l-19 -152h369l-43 -338h-369l-18 -155h418l-45 -367h-914zM592 1569l233 293l308 -99l-287 -268z" />
<glyph unicode="&#xca;" horiz-adv-x="1124" d="M137 0l168 1366h899l-45 -354h-401l-19 -152h369l-43 -338h-369l-18 -155h418l-45 -367h-914zM414 1681l411 181l336 -181l-121 -186l-231 131l-309 -131z" />
<glyph unicode="&#xcb;" horiz-adv-x="1124" d="M137 0l168 1366h899l-45 -354h-401l-19 -152h369l-43 -338h-369l-18 -155h418l-45 -367h-914zM348 1677.5q0 71.5 52.5 122.5t125.5 51q70 0 121 -52t51 -122q0 -72 -52 -124t-123.5 -52t-123 52.5t-51.5 124zM858 1677.5q0 71.5 52.5 122.5t125.5 51q70 0 121 -52 t51 -122q0 -72 -52 -124t-123.5 -52t-123 52.5t-51.5 124z" />
<glyph unicode="&#xcc;" horiz-adv-x="776" d="M137 0l168 1366h502l-168 -1366h-502zM254 1763l303 99l176 -293l-252 -74z" />
<glyph unicode="&#xcd;" horiz-adv-x="776" d="M137 0l168 1366h502l-168 -1366h-502zM430 1569l234 293l307 -99l-287 -268z" />
<glyph unicode="&#xce;" horiz-adv-x="776" d="M137 0l168 1366h502l-168 -1366h-502zM221 1681l412 181l336 -181l-121 -186l-232 131l-309 -131z" />
<glyph unicode="&#xcf;" horiz-adv-x="776" d="M137 0l168 1366h502l-168 -1366h-502zM201 1675q0 70 51 120t123 50q70 0 120 -51t50 -121q0 -72 -51.5 -122t-120.5 -50q-72 0 -122 51t-50 123zM633 1673q0 70 51 120t123 50q68 0 118 -50t50 -120q0 -72 -51.5 -122t-121 -50t-119.5 50t-50 122z" />
<glyph unicode="&#xd0;" horiz-adv-x="1523" d="M98 578l29 239h111l65 549h465q367 0 565 -174q96 -84 149.5 -212t53.5 -275q0 -164 -65.5 -304.5t-184.5 -234.5q-113 -90 -251 -128t-351 -38h-547l70 578h-109zM682 406h70q123 0 209 90t86 221q0 106 -67 177t-169 71h-61l-17 -148h139l-30 -239h-140z" />
<glyph unicode="&#xd1;" horiz-adv-x="1662" d="M137 0l168 1366h498l244 -514q43 -92 98 -285h18q-12 137 -12 235.5t6 160.5l35 403h504l-168 -1366h-481l-238 471q-70 139 -115 303l-18 -2q8 -76 8 -164q0 -76 -4 -137l-45 -471h-498zM647 1591q57 109 120.5 158t147.5 49q43 0 73 -8t130 -49q29 -12 57.5 -12t44 13 t31.5 54l179 -76q-88 -195 -246 -194q-55 0 -195 49q-53 20 -82 20q-31 0 -45 -12t-37 -53z" />
<glyph unicode="&#xd2;" horiz-adv-x="1654" d="M156 664q0 309 218 523t533 214q307 0 532.5 -188.5t225.5 -524.5q0 -305 -216 -514t-531 -209q-156 0 -304.5 57.5t-255.5 157.5q-202 197 -202 484zM653 659q0 -115 69 -189.5t173 -74.5q115 0 193.5 82t78.5 203q0 115 -69.5 191.5t-171.5 76.5q-113 0 -193 -85 t-80 -204zM698 1763l303 99l177 -293l-252 -74z" />
<glyph unicode="&#xd3;" horiz-adv-x="1654" d="M156 664q0 309 218 523t533 214q307 0 532.5 -188.5t225.5 -524.5q0 -305 -216 -514t-531 -209q-156 0 -304.5 57.5t-255.5 157.5q-202 197 -202 484zM653 659q0 -115 69 -189.5t173 -74.5q115 0 193.5 82t78.5 203q0 115 -69.5 191.5t-171.5 76.5q-113 0 -193 -85 t-80 -204zM811 1569l233 293l308 -99l-287 -268z" />
<glyph unicode="&#xd4;" horiz-adv-x="1654" d="M156 664q0 309 218 523t533 214q307 0 532.5 -188.5t225.5 -524.5q0 -305 -216 -514t-531 -209q-156 0 -304.5 57.5t-255.5 157.5q-202 197 -202 484zM653 659q0 -115 69 -189.5t173 -74.5q115 0 193.5 82t78.5 203q0 115 -69.5 191.5t-171.5 76.5q-113 0 -193 -85 t-80 -204zM659 1681l412 181l336 -181l-121 -186l-231 131l-310 -131z" />
<glyph unicode="&#xd5;" horiz-adv-x="1654" d="M156 664q0 309 218 523t533 214q307 0 532.5 -188.5t225.5 -524.5q0 -305 -216 -514t-531 -209q-156 0 -304.5 57.5t-255.5 157.5q-202 197 -202 484zM653 659q0 -115 69 -189.5t173 -74.5q115 0 193.5 82t78.5 203q0 115 -69.5 191.5t-171.5 76.5q-113 0 -193 -85 t-80 -204zM664 1591q57 109 120.5 158t147.5 49q43 0 72.5 -8t130.5 -49q29 -12 57.5 -12t43.5 13t32 54l178 -76q-88 -195 -246 -194q-55 0 -194 49q-53 20 -82 20q-31 0 -45.5 -12t-36.5 -53z" />
<glyph unicode="&#xd6;" horiz-adv-x="1654" d="M156 664q0 309 218 523t533 214q307 0 532.5 -188.5t225.5 -524.5q0 -305 -216 -514t-531 -209q-156 0 -304.5 57.5t-255.5 157.5q-202 197 -202 484zM598 1677.5q0 71.5 52 122.5t126 51q70 0 121 -52t51 -122q0 -72 -52 -124t-124 -52t-123 52.5t-51 124zM653 659 q0 -115 69 -189.5t173 -74.5q115 0 193.5 82t78.5 203q0 115 -69.5 191.5t-171.5 76.5q-113 0 -193 -85t-80 -204zM1122 1677.5q0 71.5 52.5 122.5t125.5 51q70 0 121.5 -52t51.5 -122q0 -72 -52.5 -124t-124 -52t-123 52.5t-51.5 124z" />
<glyph unicode="&#xd7;" d="M313 422l275 274l-275 275l203 203l275 -275l276 275l203 -203l-277 -275l277 -274l-203 -203l-276 275l-275 -275z" />
<glyph unicode="&#xd8;" horiz-adv-x="1654" d="M102 98l181 170q-127 180 -127 396q0 309 218 523t535 214q254 0 447 -129l186 176l180 -191l-172 -161q117 -174 117 -402q0 -311 -214 -520t-531 -209q-252 0 -445 127l-201 -186zM653 659q0 -115 69 -189.5t175 -74.5q115 0 193.5 83t78.5 202q0 115 -69.5 191.5 t-173.5 76.5q-113 0 -193 -85t-80 -204z" />
<glyph unicode="&#xd9;" horiz-adv-x="1552" d="M201 469q0 59 6 111l96 786h502l-92 -756q-8 -78 -8 -100q0 -129 122 -129q70 0 107 49t51 162l94 774h504l-94 -756q-27 -213 -63.5 -308t-127.5 -177q-176 -160 -460 -160q-299 0 -484 148q-153 123 -153 356zM653 1763l303 99l177 -293l-252 -74z" />
<glyph unicode="&#xda;" horiz-adv-x="1552" d="M201 469q0 59 6 111l96 786h502l-92 -756q-8 -78 -8 -100q0 -129 122 -129q70 0 107 49t51 162l94 774h504l-94 -756q-27 -213 -63.5 -308t-127.5 -177q-176 -160 -460 -160q-299 0 -484 148q-153 123 -153 356zM795 1569l233 293l307 -99l-286 -268z" />
<glyph unicode="&#xdb;" horiz-adv-x="1552" d="M201 469q0 59 6 111l96 786h502l-92 -756q-8 -78 -8 -100q0 -129 122 -129q70 0 107 49t51 162l94 774h504l-94 -756q-27 -213 -63.5 -308t-127.5 -177q-176 -160 -460 -160q-299 0 -484 148q-153 123 -153 356zM610 1681l412 181l336 -181l-121 -186l-231 131l-310 -131 z" />
<glyph unicode="&#xdc;" horiz-adv-x="1552" d="M201 469q0 59 6 111l96 786h502l-92 -756q-8 -78 -8 -100q0 -129 122 -129q70 0 107 49t51 162l94 774h504l-94 -756q-27 -213 -63.5 -308t-127.5 -177q-176 -160 -460 -160q-299 0 -484 148q-153 123 -153 356zM547 1677.5q0 71.5 52 122.5t126 51q70 0 121 -52t51 -122 q0 -72 -52 -124t-124 -52t-123 52.5t-51 124zM1071 1677.5q0 71.5 52.5 122.5t125.5 51q70 0 121 -52t51 -122q0 -72 -52 -124t-123.5 -52t-123 52.5t-51.5 124z" />
<glyph unicode="&#xdd;" horiz-adv-x="1400" d="M154 1366h542l70 -223q20 -66 27 -154l18 -2q8 45 49 129l125 250h598l-575 -784l-72 -582h-492l74 592zM707 1569l233 293l307 -99l-286 -268z" />
<glyph unicode="&#xde;" horiz-adv-x="1361" d="M137 0l168 1366h496l-23 -178h74q262 0 393 -103q82 -63 127 -159.5t45 -202.5q0 -207 -141 -348q-139 -137 -424 -137h-190l-29 -238h-496zM705 580h45q186 0 186 143q0 63 -47 92q-29 16 -103 16h-51z" />
<glyph unicode="&#xdf;" horiz-adv-x="1327" d="M98 0l123 997q20 162 52 247t98 147q145 139 424 139q238 0 378 -108.5t140 -291.5q0 -215 -205 -321q221 -84 221 -326q0 -129 -44 -232.5t-122 -158.5q-129 -94 -407 -94q-66 0 -115 2l31 250q16 -2 47 -2q90 0 112 55q14 31 25.5 112t11.5 140q0 72 -30.5 101.5 t-112.5 39.5l33 260q33 -6 59 -6q45 0 74 24.5t29 65.5q0 39 -30 66t-71 27q-68 0 -100 -60q-18 -37 -35 -158l-113 -915h-473z" />
<glyph unicode="&#xe0;" horiz-adv-x="1335" d="M109 422q0 227 143 398t336 171q143 0 223 -86q35 -39 66 -121l14 7q-10 86 -10 165h471l-117 -956h-471q16 68 53 170l-16 6q-59 -106 -129 -154.5t-164 -48.5q-162 0 -280.5 134.5t-118.5 314.5zM557 1335l221 170l197 -270l-164 -143zM586 457q0 -51 33.5 -86 t82.5 -35q57 0 96.5 43t39.5 106q0 57 -32 93t-81 36q-57 0 -98 -47t-41 -110z" />
<glyph unicode="&#xe1;" horiz-adv-x="1335" d="M109 422q0 227 143 398t336 171q143 0 223 -86q35 -39 66 -121l14 7q-10 86 -10 165h471l-117 -956h-471q16 68 53 170l-16 6q-59 -106 -129 -154.5t-164 -48.5q-162 0 -280.5 134.5t-118.5 314.5zM586 457q0 -51 33.5 -86t82.5 -35q57 0 96.5 43t39.5 106q0 57 -32 93 t-81 36q-57 0 -98 -47t-41 -110zM705 1235l258 270l206 -168l-299 -245z" />
<glyph unicode="&#xe2;" horiz-adv-x="1335" d="M109 422q0 227 143 398t336 171q143 0 223 -86q35 -39 66 -121l14 7q-10 86 -10 165h471l-117 -956h-471q16 68 53 170l-16 6q-59 -106 -129 -154.5t-164 -48.5q-162 0 -280.5 134.5t-118.5 314.5zM508 1268l389 231l324 -248l-148 -164l-194 160l-263 -160zM586 457 q0 -51 33.5 -86t82.5 -35q57 0 96.5 43t39.5 106q0 57 -32 93t-81 36q-57 0 -98 -47t-41 -110z" />
<glyph unicode="&#xe3;" horiz-adv-x="1335" d="M109 422q0 227 143 398t336 171q143 0 223 -86q35 -39 66 -121l14 7q-10 86 -10 165h471l-117 -956h-471q16 68 53 170l-16 6q-59 -106 -129 -154.5t-164 -48.5q-162 0 -280.5 134.5t-118.5 314.5zM477 1200q59 111 117.5 157t140.5 46q39 0 69 -8.5t130 -48.5 q29 -12 55.5 -12.5t40.5 13t31 54.5l178 -76q-37 -76 -74 -117q-68 -74 -164 -73q-53 0 -188 49q-53 20 -82 20q-27 0 -41 -13t-35 -52zM586 457q0 -51 33.5 -86t82.5 -35q57 0 96.5 43t39.5 106q0 57 -32 93t-81 36q-57 0 -98 -47t-41 -110z" />
<glyph unicode="&#xe4;" horiz-adv-x="1335" d="M109 422q0 227 143 398t336 171q143 0 223 -86q35 -39 66 -121l14 7q-10 86 -10 165h471l-117 -956h-471q16 68 53 170l-16 6q-59 -106 -129 -154.5t-164 -48.5q-162 0 -280.5 134.5t-118.5 314.5zM459 1282q0 72 52 123t126 51q70 0 121 -52t51 -122q0 -72 -52 -124 t-124 -52t-123 52t-51 124zM586 457q0 -51 33.5 -86t82.5 -35q57 0 96.5 43t39.5 106q0 57 -32 93t-81 36q-57 0 -98 -47t-41 -110zM926 1282q0 72 52 123t126 51q70 0 121 -52t51 -122q0 -72 -52.5 -124t-124 -52t-122.5 52t-51 124z" />
<glyph unicode="&#xe5;" horiz-adv-x="1335" d="M109 422q0 227 143 398t336 171q143 0 223 -86q35 -39 66 -121l14 7q-10 86 -10 165h471l-117 -956h-471q16 68 53 170l-16 6q-59 -106 -129 -154.5t-164 -48.5q-162 0 -280.5 134.5t-118.5 314.5zM586 457q0 -51 33.5 -86t82.5 -35q57 0 96.5 43t39.5 106q0 57 -32 93 t-81 36q-57 0 -98 -47t-41 -110zM618 1313q0 92 71 156.5t173 64.5q100 0 169 -66.5t69 -164.5q0 -88 -67.5 -148.5t-168.5 -60.5q-102 0 -174 63.5t-72 155.5zM782 1315q0 -33 22.5 -55.5t55.5 -22.5t55.5 22.5t22.5 55.5q0 31 -22.5 54.5t-53.5 23.5q-33 0 -56.5 -22.5 t-23.5 -55.5z" />
<glyph unicode="&#xe6;" horiz-adv-x="1935" d="M96 313q0 137 110.5 231.5t270.5 94.5q164 0 318 -119q2 49 10 78q6 20 6 31q0 47 -77 81.5t-181 34.5q-172 0 -371 -108l37 297q213 76 381 76q106 0 188 -30t191 -110q152 139 397 140q217 0 369 -117q88 -70 139 -172.5t51 -208.5q0 -41 -8 -96h-680v-31q0 -57 30 -93 t77 -36q72 0 102 78h455q-53 -150 -158 -232q-164 -129 -393 -129q-252 0 -422 150q-131 -86 -215 -118t-191 -32q-188 0 -312 96.5t-124 243.5zM500 311q0 -47 37.5 -79.5t91.5 -32.5q88 0 192 96l-14 14q-106 106 -193 107q-49 0 -81.5 -30t-32.5 -75zM1270 610h221 q-8 127 -102 127q-107 0 -119 -127z" />
<glyph unicode="&#xe7;" horiz-adv-x="894" d="M113 451q0 250 154.5 404.5t404.5 154.5q117 0 284 -54l-59 -401q-70 84 -166 84q-68 0 -108.5 -45t-40.5 -119q0 -63 36.5 -101t100.5 -38q84 0 160 67l-70 -393q-127 -37 -215 -37q-186 0 -326 117q-155 132 -155 361zM248 -367l235 279l174 -160l-247 -262z" />
<glyph unicode="&#xe8;" horiz-adv-x="1265" d="M115 469q0 231 169 387t423 156q236 0 398.5 -144.5t162.5 -355.5q0 -41 -8 -98h-678q-2 -12 -2 -35q0 -59 28.5 -94t75.5 -35q70 0 102 82h457q-49 -135 -135 -213q-168 -145 -420 -146q-254 0 -413.5 138.5t-159.5 357.5zM496 1335l221 170l196 -270l-163 -143z M600 610h221q-2 127 -104 127q-97 0 -117 -127z" />
<glyph unicode="&#xe9;" horiz-adv-x="1265" d="M115 469q0 231 169 387t423 156q236 0 398.5 -144.5t162.5 -355.5q0 -41 -8 -98h-678q-2 -12 -2 -35q0 -59 28.5 -94t75.5 -35q70 0 102 82h457q-49 -135 -135 -213q-168 -145 -420 -146q-254 0 -413.5 138.5t-159.5 357.5zM600 610h221q-2 127 -104 127q-97 0 -117 -127 zM604 1235l258 270l207 -168l-299 -245z" />
<glyph unicode="&#xea;" horiz-adv-x="1265" d="M115 469q0 231 169 387t423 156q236 0 398.5 -144.5t162.5 -355.5q0 -41 -8 -98h-678q-2 -12 -2 -35q0 -59 28.5 -94t75.5 -35q70 0 102 82h457q-49 -135 -135 -213q-168 -145 -420 -146q-254 0 -413.5 138.5t-159.5 357.5zM424 1268l389 231l324 -248l-148 -164 l-194 160l-263 -160zM600 610h221q-2 127 -104 127q-97 0 -117 -127z" />
<glyph unicode="&#xeb;" horiz-adv-x="1265" d="M115 469q0 231 169 387t423 156q236 0 398.5 -144.5t162.5 -355.5q0 -41 -8 -98h-678q-2 -12 -2 -35q0 -59 28.5 -94t75.5 -35q70 0 102 82h457q-49 -135 -135 -213q-168 -145 -420 -146q-254 0 -413.5 138.5t-159.5 357.5zM375 1282q0 72 52 123t126 51q70 0 121 -52 t51 -122q0 -72 -52 -124t-124 -52t-123 52t-51 124zM600 610h221q-2 127 -104 127q-97 0 -117 -127zM842 1282q0 72 52 123t126 51q70 0 121 -52t51 -122q0 -72 -52.5 -124t-124 -52t-122.5 52t-51 124z" />
<glyph unicode="&#xec;" horiz-adv-x="679" d="M106 0l117 956h473l-116 -956h-474zM207 1335l221 170l197 -270l-164 -143z" />
<glyph unicode="&#xed;" horiz-adv-x="679" d="M106 0l117 956h473l-116 -956h-474zM358 1235l258 270l207 -168l-299 -245z" />
<glyph unicode="&#xee;" horiz-adv-x="679" d="M106 0l117 956h473l-116 -956h-474zM154 1268l389 231l323 -248l-147 -164l-195 160l-262 -160z" />
<glyph unicode="&#xef;" horiz-adv-x="679" d="M106 0l117 956h473l-116 -956h-474zM115 1280q0 70 51 120t123 50q70 0 120 -51t50 -121t-51.5 -121t-120.5 -51q-72 0 -122 51t-50 123zM535 1278q0 70 51 120t123 50q68 0 118 -50t50 -120t-51.5 -121t-121 -51t-119.5 50t-50 122z" />
<glyph unicode="&#xf0;" horiz-adv-x="1304" d="M121 477q0 201 133 322q70 63 202 110t242 47l62 -4q-51 117 -135 187l-230 -138l-82 146l160 96q-43 33 -162 66l129 221q170 -31 324 -109l235 135l95 -151l-158 -86q143 -115 215 -219q160 -240 160 -535q0 -262 -135 -407q-80 -86 -204 -135.5t-259 -49.5 q-127 0 -246 42t-199 114q-147 131 -147 348zM588 481q0 -57 34.5 -95t86.5 -38q55 0 93 43t38 107q0 59 -33 98t-84 39q-57 0 -96 -44t-39 -110z" />
<glyph unicode="&#xf1;" horiz-adv-x="1296" d="M98 0l117 956h475q-18 -94 -47 -168l16 -6q72 115 140.5 162t161.5 47q135 0 224 -89t89 -222q0 -59 -10 -145l-66 -535h-475l57 463q6 45 6 65q0 70 -61 70q-41 0 -70 -35q-16 -25 -28 -117l-56 -446h-473zM426 1200q59 111 117.5 157t140.5 46q39 0 68.5 -8.5 t130.5 -48.5q27 -12 55 -13q27 0 41 13.5t31 54.5l178 -76q-37 -76 -74 -117q-68 -74 -164 -73q-53 0 -188 49q-53 20 -82 20q-27 0 -41 -13t-35 -52z" />
<glyph unicode="&#xf2;" horiz-adv-x="1304" d="M117 485q0 225 170 375t424 150q262 0 434 -138q166 -133 166 -376q0 -221 -171 -372t-425 -151q-258 0 -428 145.5t-170 366.5zM518 1335l221 170l197 -270l-164 -143zM586 481q0 -57 34.5 -95t88.5 -38q55 0 94 43t39 107q0 59 -34 98t-85 39q-57 0 -97 -45.5 t-40 -108.5z" />
<glyph unicode="&#xf3;" horiz-adv-x="1304" d="M117 485q0 225 170 375t424 150q262 0 434 -138q166 -133 166 -376q0 -221 -171 -372t-425 -151q-258 0 -428 145.5t-170 366.5zM586 481q0 -57 34.5 -95t88.5 -38q55 0 94 43t39 107q0 59 -34 98t-85 39q-57 0 -97 -45.5t-40 -108.5zM637 1235l258 270l207 -168 l-299 -245z" />
<glyph unicode="&#xf4;" horiz-adv-x="1304" d="M117 485q0 225 170 375t424 150q262 0 434 -138q166 -133 166 -376q0 -221 -171 -372t-425 -151q-258 0 -428 145.5t-170 366.5zM455 1268l389 231l323 -248l-147 -164l-195 160l-262 -160zM586 481q0 -57 34.5 -95t88.5 -38q55 0 94 43t39 107q0 59 -34 98t-85 39 q-57 0 -97 -45.5t-40 -108.5z" />
<glyph unicode="&#xf5;" horiz-adv-x="1304" d="M117 485q0 225 170 375t424 150q262 0 434 -138q166 -133 166 -376q0 -221 -171 -372t-425 -151q-258 0 -428 145.5t-170 366.5zM434 1200q59 111 117.5 157t140.5 46q39 0 69 -8.5t130 -48.5q27 -12 55 -13q27 0 41 13.5t31 54.5l178 -76q-37 -76 -74 -117 q-68 -74 -164 -73q-53 0 -188 49q-53 20 -82 20q-27 0 -41 -13t-35 -52zM586 481q0 -57 34.5 -95t88.5 -38q55 0 94 43t39 107q0 59 -34 98t-85 39q-57 0 -97 -45.5t-40 -108.5z" />
<glyph unicode="&#xf6;" horiz-adv-x="1304" d="M117 485q0 225 170 375t424 150q262 0 434 -138q166 -133 166 -376q0 -221 -171 -372t-425 -151q-258 0 -428 145.5t-170 366.5zM406 1282q0 72 52 123t126 51q70 0 121 -52t51 -122q0 -72 -52.5 -124t-124 -52t-122.5 52t-51 124zM586 481q0 -57 34.5 -95t88.5 -38 q55 0 94 43t39 107q0 59 -34 98t-85 39q-57 0 -97 -45.5t-40 -108.5zM872 1282q0 72 52.5 123t126.5 51q70 0 121 -52t51 -122q0 -72 -52.5 -124t-124 -52t-123 52t-51.5 124z" />
<glyph unicode="&#xf7;" d="M281 561v273h1024v-273h-1024zM602 291q0 66 56.5 113t134.5 47q80 0 135 -47.5t55 -115t-55.5 -115.5t-135 -48t-135 48t-55.5 118zM602 1108q0 66 56.5 113t134.5 47q80 0 135 -47t55 -115t-55.5 -116t-135 -48t-135 48t-55.5 118z" />
<glyph unicode="&#xf8;" horiz-adv-x="1318" d="M70 51l149 142q-96 129 -96 292q0 225 170 375t426 150q190 0 348 -82l182 155l150 -176l-156 -137q74 -123 74 -270q0 -223 -171 -375t-425 -152q-168 0 -318 74l-182 -170zM592 481q0 -57 35 -95t88 -38q55 0 94 43t39 107q0 59 -34 98t-85 39q-57 0 -97 -45.5 t-40 -108.5z" />
<glyph unicode="&#xf9;" horiz-adv-x="1296" d="M152 381q0 33 8 111l55 464h475l-57 -464q-8 -78 -8 -84q0 -31 20.5 -51.5t48.5 -20.5q45 0 66 35q12 23 22 102l60 483h475l-66 -526q-16 -133 -50 -206.5t-107 -131.5q-145 -119 -392 -119q-272 0 -421 117q-59 45 -94 124t-35 167zM524 1335l221 170l197 -270 l-164 -143z" />
<glyph unicode="&#xfa;" horiz-adv-x="1296" d="M152 381q0 33 8 111l55 464h475l-57 -464q-8 -78 -8 -84q0 -31 20.5 -51.5t48.5 -20.5q45 0 66 35q12 23 22 102l60 483h475l-66 -526q-16 -133 -50 -206.5t-107 -131.5q-145 -119 -392 -119q-272 0 -421 117q-59 45 -94 124t-35 167zM631 1235l258 270l207 -168 l-299 -245z" />
<glyph unicode="&#xfb;" horiz-adv-x="1296" d="M152 381q0 33 8 111l55 464h475l-57 -464q-8 -78 -8 -84q0 -31 20.5 -51.5t48.5 -20.5q45 0 66 35q12 23 22 102l60 483h475l-66 -526q-16 -133 -50 -206.5t-107 -131.5q-145 -119 -392 -119q-272 0 -421 117q-59 45 -94 124t-35 167zM455 1268l389 231l323 -248 l-147 -164l-195 160l-262 -160z" />
<glyph unicode="&#xfc;" horiz-adv-x="1296" d="M152 381q0 33 8 111l55 464h475l-57 -464q-8 -78 -8 -84q0 -31 20.5 -51.5t48.5 -20.5q45 0 66 35q12 23 22 102l60 483h475l-66 -526q-16 -133 -50 -206.5t-107 -131.5q-145 -119 -392 -119q-272 0 -421 117q-59 45 -94 124t-35 167zM401 1282q0 72 52.5 123t126.5 51 q70 0 121 -52t51 -122q0 -72 -52.5 -124t-124 -52t-123 52t-51.5 124zM868 1282q0 72 52.5 123t126.5 51q70 0 121 -52t51 -122q0 -72 -52.5 -124t-124 -52t-123 52t-51.5 124z" />
<glyph unicode="&#xfd;" horiz-adv-x="1185" d="M96 -395l156 272q68 121 133 199l-289 880h488l41 -266q16 -106 16 -153q0 -25 -6 -99l20 -2q27 145 70 269l88 251h510l-719 -1351h-508zM590 1235l258 270l207 -168l-299 -245z" />
<glyph unicode="&#xfe;" horiz-adv-x="1310" d="M49 -395l232 1888h475l-68 -537q-6 -61 -37 -145l19 -8q41 76 69 104q78 84 199 84q158 0 268.5 -139t110.5 -338q0 -217 -131 -379t-307 -162q-115 0 -209 64q-59 43 -90 133l-19 -6q8 -76 8 -117q0 -66 -12 -158l-35 -284h-473zM612 461q0 -55 31 -90t80 -35 q53 0 89 42t36 105q0 59 -31 97t-78 38q-51 0 -89 -45.5t-38 -111.5z" />
<glyph unicode="&#xff;" horiz-adv-x="1185" d="M96 -395l156 272q68 121 133 199l-289 880h488l41 -266q16 -106 16 -153q0 -25 -6 -99l20 -2q27 145 70 269l88 251h510l-719 -1351h-508zM344 1282q0 72 52.5 123t125.5 51q70 0 121 -52t51 -122q0 -72 -52 -124t-124 -52t-123 52t-51 124zM811 1282q0 72 52 123t126 51 q70 0 121 -52t51 -122q0 -72 -52 -124t-124 -52t-123 52t-51 124z" />
<glyph unicode="&#x152;" horiz-adv-x="2015" d="M156 659q0 305 188 523.5t453 218.5q115 0 198.5 -50.5t186.5 -181.5l24 197h887l-43 -354h-401l-19 -152h367l-41 -338h-367l-18 -155h414l-46 -367h-901l21 170q-84 -94 -152 -135q-115 -70 -231 -70q-213 0 -366.5 204.5t-153.5 489.5zM653 684q0 -119 70 -196.5 t176 -77.5q127 0 193 108q53 84 53 182q0 121 -64.5 198t-167.5 77q-111 0 -185.5 -83t-74.5 -208z" />
<glyph unicode="&#x153;" horiz-adv-x="1935" d="M117 475q0 219 158.5 377t377.5 158q244 0 416 -205q49 82 102 121q111 84 265 84q201 0 350 -148.5t149 -347.5q0 -43 -6 -106h-678q-2 -10 -2 -27q0 -49 30 -84t73 -35q61 0 90 68h467q-33 -92 -67 -143.5t-95 -96.5q-152 -117 -342 -117q-231 0 -371 209 q-70 -96 -180.5 -152.5t-230.5 -56.5q-207 0 -356.5 148.5t-149.5 353.5zM586 473q0 -53 30.5 -87t77.5 -34q49 0 87 46t38 108q0 55 -28.5 88t-75.5 33q-55 0 -92 -44t-37 -110zM1272 614h225q-25 119 -113 119q-89 0 -112 -119z" />
<glyph unicode="&#x178;" horiz-adv-x="1400" d="M154 1366h542l70 -223q20 -66 27 -154l18 -2q8 45 49 129l125 250h598l-575 -784l-72 -582h-492l74 592zM465 1677.5q0 71.5 52 122.5t126 51q70 0 121 -52t51 -122q0 -72 -52 -124t-124 -52t-123 52.5t-51 124zM989 1677.5q0 71.5 52.5 122.5t125.5 51q70 0 121 -52 t51 -122q0 -72 -52 -124t-123.5 -52t-123 52.5t-51.5 124z" />
<glyph unicode="&#x2c6;" horiz-adv-x="1024" d="M311 1268l389 231l324 -248l-147 -164l-195 160l-262 -160z" />
<glyph unicode="&#x2dc;" horiz-adv-x="1024" d="M295 1200q59 111 117.5 157t140.5 46q39 0 68.5 -8.5t130.5 -48.5q27 -12 55 -13q27 0 41 13.5t31 54.5l178 -76q-37 -76 -74 -117q-68 -74 -164 -73q-53 0 -188 49q-53 20 -82 20q-27 0 -41 -13t-35 -52z" />
<glyph unicode="&#x2000;" horiz-adv-x="957" />
<glyph unicode="&#x2001;" horiz-adv-x="1915" />
<glyph unicode="&#x2002;" horiz-adv-x="957" />
<glyph unicode="&#x2003;" horiz-adv-x="1915" />
<glyph unicode="&#x2004;" horiz-adv-x="638" />
<glyph unicode="&#x2005;" horiz-adv-x="478" />
<glyph unicode="&#x2006;" horiz-adv-x="319" />
<glyph unicode="&#x2007;" horiz-adv-x="319" />
<glyph unicode="&#x2008;" horiz-adv-x="239" />
<glyph unicode="&#x2009;" horiz-adv-x="383" />
<glyph unicode="&#x200a;" horiz-adv-x="106" />
<glyph unicode="&#x2010;" horiz-adv-x="561" d="M35 285l51 409h561l-51 -409h-561z" />
<glyph unicode="&#x2011;" horiz-adv-x="561" d="M35 285l51 409h561l-51 -409h-561z" />
<glyph unicode="&#x2013;" d="M209 285l51 409h1098l-49 -409h-1100z" />
<glyph unicode="&#x2014;" horiz-adv-x="1652" d="M35 285l51 409h1653l-51 -409h-1653z" />
<glyph unicode="&#x2018;" horiz-adv-x="593" d="M31 690l405 676h365l-301 -676h-469z" />
<glyph unicode="&#x2019;" horiz-adv-x="593" d="M45 690l301 676h469l-405 -676h-365z" />
<glyph unicode="&#x201a;" horiz-adv-x="872" d="M72 -301l301 676h448l-385 -676h-364z" />
<glyph unicode="&#x201c;" horiz-adv-x="1437" d="M180 690l385 676h365l-301 -676h-449zM748 690l385 676h364l-303 -676h-446z" />
<glyph unicode="&#x201d;" horiz-adv-x="1437" d="M195 690l301 676h448l-385 -676h-364zM762 690l301 676h448l-385 -676h-364z" />
<glyph unicode="&#x201e;" horiz-adv-x="1437" d="M72 -301l301 676h448l-385 -676h-364zM639 -301l301 676h449l-385 -676h-365z" />
<glyph unicode="&#x2022;" horiz-adv-x="1366" d="M426 694q0 119 84 202t205 83q113 0 195.5 -84t82.5 -199q0 -119 -83 -201.5t-199.5 -82.5t-200.5 82.5t-84 199.5z" />
<glyph unicode="&#x2026;" horiz-adv-x="2181" d="M119 190q0 98 82 170t194 72q109 0 185.5 -66.5t76.5 -162.5q0 -94 -80.5 -162t-195.5 -68q-113 0 -187.5 62.5t-74.5 154.5zM846 190q0 98 82 170t194 72q109 0 185.5 -66.5t76.5 -162.5q0 -94 -80.5 -162t-195.5 -68q-113 0 -187.5 62.5t-74.5 154.5zM1573 190 q0 98 83 170t195 72q109 0 186 -66.5t77 -162.5q0 -94 -81 -162t-196 -68q-113 0 -188.5 62.5t-75.5 154.5z" />
<glyph unicode="&#x202f;" horiz-adv-x="383" />
<glyph unicode="&#x2039;" horiz-adv-x="679" d="M129 496l393 477l174 -146l-290 -331l210 -318l-196 -127z" />
<glyph unicode="&#x203a;" horiz-adv-x="679" d="M111 197l288 331l-209 318l197 127l291 -445l-393 -477z" />
<glyph unicode="&#x205f;" horiz-adv-x="478" />
<glyph unicode="&#x20ac;" horiz-adv-x="1433" d="M145 561l134 246h81q51 262 257 428t481 166q178 0 354 -64v-8l-203 -389q-61 16 -106 16q-172 0 -260 -149h301l-133 -246h-193q31 -72 95.5 -112.5t148.5 -40.5q43 0 102 16l-39 -440q-96 -18 -166 -19q-260 0 -441 167t-210 429h-203z" />
<glyph unicode="&#x2122;" horiz-adv-x="1755" d="M129 1102l33 264h600l-33 -264l-131 8l-63 -522h-328l63 522zM694 588l238 778h336l37 -244q6 -49 6 -84q27 78 51 133l84 195h336l10 -778h-317l22 325l-143 -325h-207l-45 334l-78 -334h-330z" />
</font>
</defs>
</svg>
