<?xml version="1.0" standalone="no"?>
<!DOCTYPE svg PUBLIC "-//W3C//DTD SVG 1.1//EN" "http://www.w3.org/Graphics/SVG/1.1/DTD/svg11.dtd" >
<svg xmlns="http://www.w3.org/2000/svg">
<metadata>
This is a custom SVG webfont generated by Fontspring.
</metadata>
<defs>
<font id="webfontnsr76S00" horiz-adv-x="1089" >
<font-face units-per-em="2048" ascent="1542" descent="-506" />
<missing-glyph horiz-adv-x="382" />
<glyph unicode=" "  horiz-adv-x="382" />
<glyph unicode="&#x09;" horiz-adv-x="382" />
<glyph unicode="&#xa0;" horiz-adv-x="382" />
<glyph unicode="!" horiz-adv-x="659" d="M123 188q0 84 61.5 145.5t145.5 61.5q88 0 148.5 -61.5t60.5 -149.5q0 -84 -61.5 -144t-147.5 -60q-84 0 -145.5 61t-61.5 147zM154 489v955h360v-955h-360z" />
<glyph unicode="&#x22;" horiz-adv-x="829" d="M63 1366h326l-49 -563h-227zM440 1366h326l-49 -563h-230z" />
<glyph unicode="#" horiz-adv-x="1107" d="M123 412v200h158l20 168h-131v201h158l47 385h209l-49 -385h110l47 385h211l-47 -385h127v-201h-154l-18 -168h129v-200h-156l-49 -412h-211l51 412h-110l-49 -412h-209l49 412h-133zM489 612h111l21 168h-111z" />
<glyph unicode="$" d="M188 43v424q100 -152 238 -152q47 0 76.5 25t29.5 63q0 47 -38 84q-14 16 -103 86q-109 86 -156 171t-47 194q0 180 111 309q61 72 184 125v191h166v-181q115 -16 219 -67v-416q-115 147 -223 148q-39 0 -65.5 -23t-26.5 -57q0 -33 22.5 -55.5t137.5 -112.5 q100 -78 145 -163t45 -198q0 -164 -90 -286q-63 -84 -174 -138v-207h-168v175q-98 4 -152.5 16t-130.5 45z" />
<glyph unicode="%" horiz-adv-x="1411" d="M55 1059q0 150 82 238.5t217 88.5q131 0 212 -91t81 -240q0 -147 -81 -241.5t-208 -94.5q-139 0 -221 92t-82 248zM150 55l966 1366l148 -102l-971 -1366zM295 1051q0 -133 57 -133q55 0 56 131q0 137 -56 137q-57 0 -57 -135zM766 319q0 150 82 239t217 89 q131 0 212 -91t81 -241q0 -147 -81 -241t-208 -94q-139 0 -221 91.5t-82 247.5zM1006 311q0 -133 57 -133q55 0 55 131q0 137 -55 137q-57 0 -57 -135z" />
<glyph unicode="&#x26;" horiz-adv-x="1290" d="M82 397q0 227 235 363q-106 133 -106 268q0 150 110.5 256.5t268.5 106.5q172 0 294 -108.5t122 -260.5q0 -205 -232 -356l133 -177q37 39 127 158l189 -250q-92 -98 -142 -143l189 -254h-400l-53 74q-147 -98 -303 -99q-178 0 -305 124t-127 298zM432 406q0 -47 31 -80 t76 -33t92 35l-135 180q-64 -41 -64 -102zM545 1038q0 -41 65 -137q53 53 68.5 79t15.5 58q0 29 -21.5 50.5t-52 21.5t-53 -21.5t-22.5 -50.5z" />
<glyph unicode="'" horiz-adv-x="454" d="M63 1366h326l-49 -563h-227z" />
<glyph unicode="(" horiz-adv-x="686" d="M96 532.5q0 503.5 256 966.5l266 -143q-205 -399 -204.5 -823t204.5 -824l-266 -143q-256 463 -256 966.5z" />
<glyph unicode=")" horiz-adv-x="686" d="M68 -291q205 403 204.5 823t-204.5 824l264 143q258 -459 258 -967q0 -506 -258 -966z" />
<glyph unicode="*" horiz-adv-x="1091" d="M162 1130l71 220l211 -82l-14 225h232l-15 -225l211 82l72 -220l-219 -57l143 -174l-186 -137l-123 190l-121 -190l-186 137l143 174z" />
<glyph unicode="+" horiz-adv-x="1091" d="M96 590v213h342v364h219v-364h340v-213h-340v-365h-219v365h-342z" />
<glyph unicode="," horiz-adv-x="600" d="M8 -330l168 658h361l-238 -658h-291z" />
<glyph unicode="-" horiz-adv-x="444" d="M0 354v273h444v-273h-444z" />
<glyph unicode="." horiz-adv-x="602" d="M92 188q0 84 60.5 144.5t144.5 60.5q88 0 148.5 -61.5t60.5 -149.5q0 -82 -61.5 -142t-145.5 -60t-145.5 61t-61.5 147z" />
<glyph unicode="/" horiz-adv-x="1210" d="M6 -326l977 1825l193 -102l-977 -1831z" />
<glyph unicode="0" d="M63 696q0 317 132.5 506t355.5 189q225 0 351 -189.5t126 -527.5q0 -319 -127 -509t-342 -190q-231 0 -363.5 191.5t-132.5 529.5zM426 719q0 -256 39 -354q27 -70 80 -70q121 0 121 385q0 393 -121 393q-119 0 -119 -354z" />
<glyph unicode="1" d="M274 1044v322h517v-1366l-369 2v1042h-148z" />
<glyph unicode="2" d="M59 0l373 498q129 172 177 272t48 197q0 53 -23.5 86.5t-62.5 33.5q-88 0 -88 -167q0 -27 2 -50h-358q-2 23 -2 50q0 205 128 338t327 133q193 0 315.5 -125t122.5 -322q0 -160 -84 -309.5t-275 -331.5q150 10 340 12v-315h-940z" />
<glyph unicode="3" horiz-adv-x="1091" d="M80 401h360q2 -123 90 -122q45 0 73 34.5t28 92.5q0 68 -40 105.5t-110 37.5q-29 0 -63 -4v291q18 -2 43 -2q80 0 115.5 32.5t35.5 106.5q0 51 -21.5 81.5t-56 30.5t-51 -23.5t-22.5 -84.5h-355q14 190 133 302t308 112q180 0 303 -114t123 -284q0 -186 -166 -286 q184 -104 184 -318q0 -180 -130 -297t-333 -117q-143 0 -249.5 60.5t-159.5 169.5q-39 79 -39 196z" />
<glyph unicode="4" d="M55 276v287l412 803h453v-797h116v-293h-116v-276h-369v276h-496zM360 569h203l6 256q0 47 9 156q-134 -285 -218 -412z" />
<glyph unicode="5" d="M96 82l43 324q162 -94 293 -95q84 0 137.5 42t53.5 112q0 72 -58.5 111.5t-161.5 39.5q-117 0 -239 -47l104 797h680v-322h-389l-29 -153q23 2 62 2q170 0 284.5 -121t114.5 -301q0 -211 -148.5 -353.5t-369.5 -142.5q-191 1 -377 107z" />
<glyph unicode="6" d="M86 469q0 139 70 326q68 174 149 331l125 240h397l-219 -389l-67 -107q72 39 131 39q139 0 237.5 -127t98.5 -309q0 -221 -132.5 -359.5t-343.5 -138.5q-201 0 -323.5 136.5t-122.5 357.5zM446 461q0 -190 103 -191q104 0 104 193q0 180 -106 180q-101 0 -101 -182z" />
<glyph unicode="7" d="M80 0l330 727q72 160 176 317h-463v322h969l-615 -1366h-397z" />
<glyph unicode="8" d="M80 389q0 154 106 250q43 39 125 72q-205 72 -205 286q0 170 123 282t310 112q193 0 320.5 -110t127.5 -273q0 -109 -57 -193q-41 -61 -131 -104q213 -88 213 -322q0 -180 -125 -289q-141 -125 -342 -125q-193 0 -329 121t-136 293zM455 426q0 -59 25.5 -97t66.5 -38 q39 0 64.5 39t25.5 98q0 61 -25.5 99t-66.5 38q-39 0 -64.5 -40t-25.5 -99zM469 983q0 -125 78 -125q35 0 56.5 33t21.5 86q0 55 -21.5 88t-58.5 33q-35 0 -55.5 -32t-20.5 -83z" />
<glyph unicode="9" d="M82 893q0 221 132 359.5t343 138.5q201 0 324 -136.5t123 -357.5q0 -145 -70 -326q-55 -145 -152 -331l-125 -240h-395l217 389l68 107q-70 -39 -129 -39q-139 0 -237.5 127t-98.5 309zM436 905q0 -182 107 -182q100 0 100 184q0 190 -102 191q-105 0 -105 -193z" />
<glyph unicode=":" horiz-adv-x="602" d="M92 188q0 84 60.5 144.5t144.5 60.5q88 0 148.5 -61.5t60.5 -149.5q0 -82 -61.5 -142t-145.5 -60t-145.5 61t-61.5 147zM92 774q0 84 60.5 144.5t144.5 60.5q88 0 148.5 -61.5t60.5 -149.5q0 -82 -61.5 -142.5t-145.5 -60.5t-145.5 61.5t-61.5 147.5z" />
<glyph unicode=";" horiz-adv-x="600" d="M8 -330l168 658h361l-238 -658h-291zM160 772q0 84 60.5 144.5t144.5 60.5q88 0 148 -61.5t60 -149.5q0 -82 -61 -142.5t-145 -60.5t-145.5 61.5t-61.5 147.5z" />
<glyph unicode="&#x3c;" horiz-adv-x="1024" d="M68 532v324l886 492v-387l-477 -269l475 -270l2 -383z" />
<glyph unicode="=" horiz-adv-x="1091" d="M82 446v193h928v-193h-928zM82 754v192h928v-192h-928z" />
<glyph unicode="&#x3e;" horiz-adv-x="1024" d="M68 39v387l477 268l-475 271l-2 383l886 -494v-324z" />
<glyph unicode="?" horiz-adv-x="1040" d="M82 1001q0 162 59 267q49 88 151.5 141t221.5 53q195 0 319.5 -127t124.5 -321q0 -147 -68.5 -246.5t-193.5 -132.5v-141h-350v333q25 -2 55 -2q100 0 145.5 43t45.5 138q0 152 -78 151q-76 0 -76 -156h-356zM319 186q0 86 61.5 147.5t145.5 61.5q88 0 148.5 -61.5 t60.5 -149.5q0 -84 -61.5 -144t-147.5 -60q-84 0 -145.5 61t-61.5 145z" />
<glyph unicode="@" horiz-adv-x="1419" d="M88 684q0 297 188.5 501t462.5 204q250 0 421 -175.5t171 -431.5q0 -201 -100.5 -346t-237.5 -145q-78 0 -135 86q-92 -90 -180 -90q-109 0 -182.5 105.5t-73.5 260.5q0 172 88 288t219 116q70 0 135 -58l10 41h156l-53 -448q-4 -49 -4 -82q0 -55 31 -55q55 0 102 98 t47 217q0 195 -116.5 322t-297.5 127q-195 0 -326.5 -155t-131.5 -380q0 -229 133 -380.5t334 -151.5q213 0 391 106l78 -152q-131 -74 -227.5 -101.5t-223.5 -27.5q-209 0 -365 97q-145 92 -229 256t-84 354zM616 641q0 -76 21.5 -125t54.5 -49q55 0 99.5 73.5t44.5 166.5 q0 72 -28 119.5t-69 47.5q-51 0 -87 -67.5t-36 -165.5z" />
<glyph unicode="A" d="M10 0l328 1366h453l288 -1366h-383l-26 174h-248l-31 -174h-381zM471 467h156l-25 160q0 4 -14 116l-10 82l-11 111l-10 104l-14 -108q-27 -219 -33 -250z" />
<glyph unicode="B" horiz-adv-x="1085" d="M96 0v1366h428q242 0 357 -106q119 -109 118 -281q0 -150 -104 -229q-53 -41 -152 -50q129 -18 193 -73q88 -82 88 -236q0 -176 -113.5 -283.5t-298.5 -107.5h-516zM465 297q14 -2 31 -2q70 0 110.5 36t40.5 97t-41 96t-112 35q-16 0 -29 -2v-260zM465 836q76 0 106 16 q61 33 62 100q0 119 -131 119q-20 0 -37 -2v-233z" />
<glyph unicode="C" horiz-adv-x="911" d="M61 678q0 340 179 532q168 180 426 181q94 0 182 -33v-391q-82 82 -170 82q-113 0 -176.5 -97.5t-63.5 -267.5q0 -166 61.5 -259t172.5 -93q94 0 192 88l-22 -395q-121 -49 -219 -50q-258 0 -418 207q-144 187 -144 496z" />
<glyph unicode="D" horiz-adv-x="1099" d="M96 0v1366h320q297 0 456 -180q168 -188 168 -504q0 -342 -170 -524q-143 -158 -430 -158h-344zM465 330q199 10 199 342q0 162 -53 260q-50 94 -127 94h-7q-6 0 -12 -2v-694z" />
<glyph unicode="E" horiz-adv-x="841" d="M96 0v1366h686v-322h-317v-198h285v-309h-285v-209h317v-328h-686z" />
<glyph unicode="F" horiz-adv-x="794" d="M96 0v1366h652v-322h-283v-198h264v-309h-264v-537h-369z" />
<glyph unicode="G" horiz-adv-x="1146" d="M61 676q0 332 141.5 523.5t385.5 191.5q326 0 469 -338l-357 -133q-8 66 -37.5 103.5t-72.5 37.5q-152 0 -152 -420q0 -176 34 -257t106 -81q59 0 94 52.5t35 146.5h-136v286h516v-55q0 -342 -90 -522q-55 -109 -164.5 -172.5t-242.5 -63.5q-248 0 -388.5 186.5 t-140.5 514.5z" />
<glyph unicode="H" horiz-adv-x="1103" d="M96 0v1366h369v-483h176v483h369v-1366h-369v549h-176v-549h-369z" />
<glyph unicode="I" horiz-adv-x="559" d="M96 0v1366h369v-1366h-369z" />
<glyph unicode="J" horiz-adv-x="724" d="M0 20v381q66 -80 147 -79q113 0 113 170v874h369v-948q0 -121 -20.5 -193.5t-71.5 -132.5q-100 -117 -297 -117q-113 0 -240 45z" />
<glyph unicode="K" horiz-adv-x="1107" d="M96 0v1366h369l-10 -586l217 586h391l-295 -659l330 -707h-398l-245 629l10 -629h-369z" />
<glyph unicode="L" horiz-adv-x="755" d="M96 0v1366h369v-1038h276v-328h-645z" />
<glyph unicode="M" horiz-adv-x="1568" d="M61 0l160 1366h459l78 -461q16 -98 28 -266q12 121 33 231l94 496h455l133 -1366h-385l-29 623l-2 73l-2 86q0 14 -4 88q-12 -125 -37 -262l-114 -608h-301l-107 657q-12 74 -24 213q0 -193 -7 -301l-32 -569h-396z" />
<glyph unicode="N" horiz-adv-x="1153" d="M96 0v1366h353l184 -479q23 -57 61 -182q27 -76 51 -162q-41 354 -40 516v307h352v-1366h-352l-185 502q-70 193 -94 284q23 -283 23 -438v-348h-353z" />
<glyph unicode="O" horiz-adv-x="1161" d="M61 694q0 336 162 523q150 174 363 174q236 0 375 -192.5t139 -520.5q0 -313 -141.5 -508t-370.5 -195q-104 0 -204.5 49.5t-168.5 133.5q-154 190 -154 536zM444 684q0 -172 36 -267t99.5 -95t100.5 94t37 260q0 371 -131 371q-66 0 -104 -97.5t-38 -265.5z" />
<glyph unicode="P" horiz-adv-x="1034" d="M96 0v1366h357q268 0 397 -109q152 -127 151 -356q0 -131 -51 -234.5t-141 -158.5q-102 -61 -287 -62q-33 0 -57 3v-449h-369zM465 754h16q68 0 108 42t40 111q0 72 -39 119q-36 43 -89 43h-9l-27 -2v-313z" />
<glyph unicode="Q" horiz-adv-x="1175" d="M61 680q0 340 154 532q143 178 367 179q231 0 374.5 -191.5t143.5 -501.5q0 -350 -154 -538l168 -189l-297 -161l-125 182q-59 -16 -110 -17q-119 0 -222.5 58.5t-173.5 163.5q-125 184 -125 483zM444 682q0 -170 36 -265t99.5 -95t100.5 94t37 260q0 176 -37 273.5 t-102 97.5q-59 0 -96.5 -99.5t-37.5 -265.5z" />
<glyph unicode="R" horiz-adv-x="1091" d="M96 0v1366h377q250 0 373 -98q158 -125 158 -359q0 -246 -211 -342l274 -567h-399l-125 336q-55 150 -82 231q4 -150 4 -180v-387h-369zM465 735q8 -2 24 -2q63 0 105.5 49t42.5 123q0 154 -172 154v-324z" />
<glyph unicode="S" horiz-adv-x="827" d="M61 942q0 199 140 338q111 111 276 111q133 0 264 -70v-418q-96 150 -215 150q-41 0 -69.5 -24.5t-28.5 -57.5q0 -35 23.5 -62.5t109.5 -89.5q117 -84 168 -173t51 -208q0 -201 -124 -332t-310 -131q-139 0 -278 60v428q109 -150 233 -150q47 0 78 24.5t31 63.5 q0 41 -18.5 63.5t-106.5 90.5q-119 92 -171.5 183t-52.5 204z" />
<glyph unicode="T" horiz-adv-x="784" d="M0 1038v328h784v-328h-213v-1038h-368v1038h-203z" />
<glyph unicode="U" horiz-adv-x="1116" d="M96 453v913h369v-881q0 -88 21.5 -125.5t72.5 -37.5q59 0 80 47q14 33 14 114v883h369v-967q0 -111 -30.5 -182.5t-106.5 -134.5q-121 -106 -307 -107q-213 0 -349 119q-133 119 -133 359z" />
<glyph unicode="V" horiz-adv-x="1060" d="M0 1366h387l68 -391q37 -211 61 -500q12 213 57 438l86 453h402l-373 -1366h-375z" />
<glyph unicode="W" horiz-adv-x="1542" d="M0 1366h365l59 -377l35 -233q4 -27 26 -244q4 37 7.5 76t5.5 56.5t2 23.5q16 139 45 307l67 391h318l61 -328q49 -264 78 -542q16 264 47 446l66 424h360l-276 -1366h-355l-86 479q-2 14 -5 31.5t-5 28t-2 14.5l-41 301q-4 -25 -7 -54.5t-3 -33.5l-10 -98 q-4 -29 -9.5 -85.5t-9.5 -86.5l-69 -496h-361z" />
<glyph unicode="X" horiz-adv-x="1058" d="M0 0l332 709l-314 657h410l61 -184q10 -31 13 -39l30 -101q20 100 33 138l56 186h413l-311 -657l336 -709h-410l-67 195q-20 57 -54 172l-10 -35q-6 -20 -8 -25l-18 -61q-10 -39 -23 -66l-68 -180h-401z" />
<glyph unicode="Y" horiz-adv-x="1024" d="M0 1366h385l68 -203q33 -102 61 -219q23 82 64 217l65 205h383l-317 -786v-580h-369v580z" />
<glyph unicode="Z" horiz-adv-x="1054" d="M35 0v29l293 667q66 145 93.5 198.5t90.5 149.5h-395v322h903v-39l-334 -743l-131 -273q90 8 135 8l285 9v-328h-940z" />
<glyph unicode="[" horiz-adv-x="714" d="M123 -428v1921h522v-244h-209v-1433h209v-244h-522z" />
<glyph unicode="\" horiz-adv-x="1210" d="M35 1397l192 102l977 -1825l-192 -108z" />
<glyph unicode="]" horiz-adv-x="714" d="M68 -184h211v1433h-211v244h524v-1921h-524v244z" />
<glyph unicode="^" horiz-adv-x="1024" d="M12 690l285 686h428l287 -686h-338l-162 424l-162 -424h-338z" />
<glyph unicode="_" horiz-adv-x="1024" d="M0 -100h1024v-226h-1024v226z" />
<glyph unicode="`" horiz-adv-x="1024" d="M240 1389h286l97 -304h-203z" />
<glyph unicode="a" horiz-adv-x="1017" d="M55 485q0 227 81 359.5t220 132.5q76 0 129.5 -40t100.5 -132l-11 151h361v-956h-354q2 20 2 45q0 12 1 24.5t2 19.5t1 9q0 20 6 64q-49 -96 -107.5 -139t-140.5 -43q-135 0 -213 134.5t-78 370.5zM414 446q0 -174 80 -174q84 0 84 217q0 106 -17.5 150.5t-58.5 44.5 q-88 0 -88 -238z" />
<glyph unicode="b" horiz-adv-x="1017" d="M82 0v1493h354v-522l-2 -47v-50q0 -6 -4 -55q47 86 99.5 122t127.5 36q145 0 225.5 -133t80.5 -375t-91 -375q-37 -51 -96 -82.5t-121 -31.5q-70 0 -118 32.5t-101 116.5q0 -8 1 -20.5t2 -19.5t1 -9l2 -39q0 -23 2 -41h-362zM426 487q0 -203 82 -202q88 0 88 192 q0 205 -90 205q-80 0 -80 -195z" />
<glyph unicode="c" horiz-adv-x="620" d="M55 483q0 211 129 352.5t324 141.5q10 0 72 -4v-311q-158 -10 -158 -170q0 -74 39 -127.5t94 -53.5h25v-325q-55 -6 -97 -6q-182 0 -293 122q-63 70 -99 173.5t-36 207.5z" />
<glyph unicode="d" horiz-adv-x="1017" d="M55 469q0 242 80 375t225 133q76 0 128.5 -36t99.5 -122q-4 49 -4 55q0 16 -1 49t-1 48v522h354v-1493h-363q2 18 2 41l3 39q0 2 1 9t2 19.5t1 20.5q-53 -84 -101.5 -116.5t-118.5 -32.5q-61 0 -120.5 31.5t-96.5 82.5q-90 133 -90 375zM422 481q0 -197 88 -196 q82 0 82 202q0 195 -80 195q-90 0 -90 -201z" />
<glyph unicode="e" horiz-adv-x="985" d="M55 461q0 227 125 370.5t322 143.5q195 0 312.5 -139.5t117.5 -368.5q0 -35 -2 -64h-520q8 -147 82 -147q61 0 79 68l347 -7q-35 -164 -144.5 -250.5t-279.5 -86.5q-205 0 -322 128t-117 353zM414 594h166q-6 121 -84 121q-76 0 -82 -121z" />
<glyph unicode="f" horiz-adv-x="616" d="M20 672v284h103v177q0 172 67 258q94 117 248 116q70 0 166 -24v-328q-43 33 -74 33q-53 0 -53 -98v-134h127v-284h-127v-672h-354v672h-103z" />
<glyph unicode="g" horiz-adv-x="1009" d="M55 479q0 219 86 358.5t221 139.5q63 0 109.5 -32t106.5 -114l-9 125h359v-985q0 -119 -31 -194.5t-100 -128.5q-117 -92 -299 -92q-195 0 -299.5 84t-130.5 262h362q6 -78 76 -78q82 0 82 135v152q-94 -125 -223 -125q-139 0 -224.5 136t-85.5 357zM422 485 q0 -96 21.5 -151t60.5 -55q80 0 80 202q0 207 -76 207q-86 0 -86 -203z" />
<glyph unicode="h" horiz-adv-x="1005" d="M82 0v1493h354v-532q0 -29 -2 -64t-2 -41l-2 -45l-2 -37q86 203 252 203q59 0 112.5 -29.5t84.5 -81.5q47 -76 47 -213v-653h-355v506q0 66 -12 91.5t-45 25.5q-76 0 -76 -142v-481h-354z" />
<glyph unicode="i" horiz-adv-x="518" d="M53 1253q0 86 60.5 146.5t146.5 60.5t146.5 -60.5t60.5 -148.5q0 -84 -61.5 -144t-145.5 -60t-145.5 61t-61.5 145zM82 0v956h354v-956h-354z" />
<glyph unicode="j" horiz-adv-x="520" d="M53 1253q0 86 60.5 146.5t146.5 60.5t146.5 -60.5t60.5 -148.5q0 -84 -61.5 -144t-145.5 -60t-145.5 61t-61.5 145zM82 956h356v-1376h-354z" />
<glyph unicode="k" horiz-adv-x="1013" d="M82 0v1493h354v-967q20 68 53 148l115 282h385l-235 -438l258 -518h-408l-137 371q0 2 -10.5 35.5t-20.5 72.5v-479h-354z" />
<glyph unicode="l" horiz-adv-x="518" d="M82 0v1493h354v-1493h-354z" />
<glyph unicode="m" horiz-adv-x="1501" d="M82 0v956h354l-2 -49v-51q0 -4 -1 -12t-2 -22.5t-1 -24.5q51 96 108.5 138t139.5 42q168 0 252 -199q37 104 93 151.5t144 47.5q137 0 205 -107q47 -76 47 -215v-655h-354v502q0 76 -11.5 103.5t-41.5 27.5q-82 0 -82 -150v-483h-355v481q0 94 -8 111q-16 35 -51 35 q-57 0 -72 -60q-8 -27 -8 -90v-477h-354z" />
<glyph unicode="n" horiz-adv-x="1005" d="M82 0v956h354q-4 -90 -4 -100l-4 -82q86 203 252 203q59 0 112.5 -29.5t84.5 -81.5q47 -76 47 -213v-653h-355v506q0 66 -12 91.5t-45 25.5q-76 0 -76 -142v-481h-354z" />
<glyph unicode="o" horiz-adv-x="997" d="M55 475q0 225 121 363.5t320 138.5q211 0 329.5 -136t118.5 -378q0 -221 -122 -352t-328 -131q-201 0 -320 134t-119 361zM399 479.5q0 -102.5 28 -167t73 -64.5t72.5 63.5t27.5 163.5q0 104 -27.5 169t-72.5 65t-73 -63.5t-28 -166z" />
<glyph unicode="p" horiz-adv-x="1013" d="M82 -428v1384h354l-8 -135q45 84 95 120t124 36q139 0 225 -138.5t86 -361.5q0 -229 -82.5 -363t-222.5 -134q-70 0 -121 34.5t-104 114.5q8 -90 8 -158v-399h-354zM426 483q0 -94 21.5 -149t58.5 -55q39 0 62.5 56t23.5 152q0 197 -84 197q-82 0 -82 -201z" />
<glyph unicode="q" horiz-adv-x="1013" d="M55 477q0 223 86 361.5t226 138.5q74 0 124 -36t95 -120l-8 135h354v-1384h-354v399q0 68 8 158q-51 -82 -103.5 -115.5t-122.5 -33.5q-139 0 -222 134t-83 363zM422 492q0 -100 22.5 -156.5t63.5 -56.5q37 0 58.5 55t21.5 149q0 201 -82 201q-39 0 -61.5 -52t-22.5 -140 z" />
<glyph unicode="r" horiz-adv-x="704" d="M82 0v956h354l-18 -186q35 100 105 156q68 53 155 53h6v-397q-57 33 -98 32q-68 0 -113 -55q-37 -47 -37 -149v-410h-354z" />
<glyph unicode="s" horiz-adv-x="808" d="M47 80l129 264q96 -100 178 -100q29 0 48.5 14t19.5 35q0 25 -19.5 41t-72.5 35q-131 45 -190.5 112.5t-59.5 167.5q0 141 111.5 234.5t279.5 93.5q137 0 285 -78l-121 -260q-86 86 -146 86q-23 0 -39 -13.5t-16 -31.5q0 -27 23.5 -47.5t83.5 -44.5q109 -43 151 -82 q78 -72 78 -189q0 -137 -98 -235q-102 -102 -283 -102q-88 0 -159.5 21.5t-182.5 78.5z" />
<glyph unicode="t" horiz-adv-x="616" d="M29 672v284h100v281h354v-281h119v-284h-119v-672h-354v672h-100z" />
<glyph unicode="u" horiz-adv-x="1021" d="M82 369v587h354v-538q0 -84 15.5 -113t60.5 -29q43 0 58.5 30t15.5 112v538h354v-587q0 -203 -137 -301q-125 -88 -293 -88q-166 0 -291 88q-137 98 -137 301z" />
<glyph unicode="v" horiz-adv-x="913" d="M0 956h358l56 -280q18 -94 41 -324q25 193 47 305l61 299h350l-278 -956h-371z" />
<glyph unicode="w" horiz-adv-x="1396" d="M0 956h348l55 -307q20 -121 35 -268q12 131 47 297l62 278h303l51 -307q16 -102 33 -268q23 174 57 338l51 237h355l-279 -956h-350l-74 573l-108 -573h-348z" />
<glyph unicode="x" horiz-adv-x="987" d="M0 0l291 492l-275 464h404l39 -108q0 -4 3 -11.5t6 -17.5t5 -18l16 -51q4 16 11.5 33.5t7.5 19.5l18 51l41 102h394l-283 -456l309 -500h-412l-32 88q-16 49 -27 76l-6 16l-12 45q-39 -98 -58 -137l-43 -88h-397z" />
<glyph unicode="y" horiz-adv-x="933" d="M0 956h356l68 -274q33 -137 45 -268q35 246 57 336l54 206h354l-440 -1357h-365l156 440z" />
<glyph unicode="z" horiz-adv-x="890" d="M35 0l231 496q39 84 90 176h-270v284h772l-227 -487q-43 -90 -92 -180h262v-289h-766z" />
<glyph unicode="{" horiz-adv-x="751" d="M104 426v231q68 14 89 45q25 37 24 115v371q0 168 77 239.5t255 71.5q20 0 82 -2q25 -2 86 -2v-248h-21h-41q-98 0 -119.5 -21.5t-21.5 -121.5v-305q0 -106 -25.5 -160.5t-97.5 -106.5q70 -47 96.5 -105t26.5 -163v-303q0 -100 21.5 -122.5t123.5 -22.5q18 0 58 2v-248 h-60q-25 -4 -90 -4h-22q-174 0 -251 73.5t-77 239.5v367q0 94 -23.5 130t-89.5 50z" />
<glyph unicode="|" horiz-adv-x="1024" d="M317 -342v1708h392v-1708h-392z" />
<glyph unicode="}" horiz-adv-x="751" d="M35 -182h20h41q96 0 119 21.5t23 121.5v305q0 106 25.5 160.5t96.5 105.5q-70 47 -96 105.5t-26 163.5v303q0 100 -22.5 122.5t-123.5 22.5q-18 0 -57 -2v248h59h24q17 0 29 2l37 2h23q174 0 251 -73.5t77 -239.5v-367q0 -94 23.5 -130t88.5 -50v-231q-68 -14 -88 -46 q-25 -37 -24 -114v-371q0 -168 -77 -239.5t-255 -71.5q-20 0 -82 2q-25 2 -86 2v248z" />
<glyph unicode="~" horiz-adv-x="1366" d="M190 1255q111 264 297 265q74 0 232 -72q127 -55 168 -55q90 0 162 133l129 -107q-57 -139 -131 -199.5t-187 -60.5q-59 0 -229 76q-102 47 -154 47q-86 0 -158 -133z" />
<glyph unicode="&#xa1;" horiz-adv-x="659" d="M123 831q0 84 61.5 144.5t147.5 60.5q84 0 145.5 -61.5t61.5 -145.5q0 -86 -61.5 -147t-145.5 -61q-88 0 -148.5 61t-60.5 149zM145 -428v954h361v-954h-361z" />
<glyph unicode="&#xa2;" d="M242 717q0 182 100 325q55 78 156 129v162h172v-119q14 2 32 3q16 0 66 -9v-303q-74 -4 -116 -50t-42 -126q0 -70 39 -120t94 -50q14 0 25 2v-332q-18 -2 -37 -2l-37 -2l-24 -2v-186h-172v225q-256 148 -256 455z" />
<glyph unicode="&#xa3;" d="M92 160q94 66 160 98q37 63 37 137q0 80 -35 195h-127v190h68q-49 162 -50 238q0 158 115 263t287 105q219 0 397 -190l-196 -197q-63 102 -136 103q-39 0 -68.5 -32t-29.5 -75q0 -33 33 -139q14 -43 18 -76h330v-190h-307v-25q0 -123 -88 -239q76 -4 151 -43 q47 -23 76 -23q63 0 109 66l182 -99q-92 -252 -324 -252q-84 0 -172 35q-12 4 -30.5 11.5l-25.5 10.5t-18.5 7t-15.5 5t-12 4t-12.5 3t-11.5 1t-12 1h-13q-78 0 -176 -61z" />
<glyph unicode="&#xa4;" horiz-adv-x="1445" d="M49 246l215 213q-74 131 -74 266q0 131 78 272l-219 217l184 185l222 -221q139 74 268 73q135 0 264 -71l219 217l183 -183l-213 -213q82 -141 81 -276q0 -131 -73 -264l213 -213l-180 -185l-213 213q-137 -82 -279 -81q-135 0 -281 79l-213 -211zM502 725 q0 -92 65.5 -157.5t155.5 -65.5q92 0 157.5 65.5t65.5 159.5q0 90 -65.5 156.5t-153.5 66.5q-96 0 -160.5 -65.5t-64.5 -159.5z" />
<glyph unicode="&#xa5;" horiz-adv-x="1091" d="M35 1366h385l67 -203q33 -98 62 -221q25 96 63 219l66 205h381l-191 -479h179v-148h-238l-55 -135h293v-147h-304v-457h-368v457h-328v147h315l-57 135h-258v148h195z" />
<glyph unicode="&#xa6;" horiz-adv-x="1024" d="M317 313h392v-655h-392v655zM317 625v741h392v-741h-392z" />
<glyph unicode="&#xa7;" horiz-adv-x="1091" d="M94 16h305q0 -72 15 -114q33 -76 131 -76q53 0 88 34t35 85q0 47 -32 78.5t-138 87.5q-188 100 -258 153q-139 113 -140 287q0 176 148 287q-66 82 -90.5 139t-24.5 135q0 170 123 279.5t311 109.5q119 0 212 -48t141 -134q29 -53 38 -104.5t9 -161.5v-11h-291 q-2 10 -2 21l-2 51q-4 66 -38 102.5t-91 36.5q-53 0 -83 -27.5t-30 -74.5q0 -55 45 -92q27 -23 225 -127q162 -84 228.5 -168t66.5 -201q0 -164 -135 -274q80 -63 115 -132t35 -165q0 -186 -132.5 -308t-334.5 -122q-123 0 -226.5 48t-158.5 132q-64 94 -64 274zM414 557 q0 -59 39 -98t96 -39q59 0 96 37t37 96t-37 96t-96.5 37t-97 -36t-37.5 -93z" />
<glyph unicode="&#xa8;" horiz-adv-x="1024" d="M166 1235q0 61 43 104t104 43q63 0 106.5 -44t43.5 -107q0 -59 -44 -102.5t-104 -43.5q-61 0 -105 44.5t-44 105.5zM559 1235q0 61 43 104t105 43q63 0 106 -44t43 -107q0 -59 -44 -102.5t-103 -43.5q-61 0 -105.5 44.5t-44.5 105.5z" />
<glyph unicode="&#xa9;" horiz-adv-x="1556" d="M68 682q0 299 208.5 507t511.5 208q287 0 493 -211t206 -504q0 -295 -208 -504t-501 -209t-501.5 210t-208.5 503zM229 682q0 -233 162 -399t387.5 -166t385 166t159.5 399q0 231 -158.5 398t-380.5 167q-231 0 -393 -164.5t-162 -400.5zM457 680q0 195 107.5 310.5 t287.5 115.5q59 0 127 -23v-260q-10 8 -21 19l-10 8q-41 41 -90 41q-63 0 -100 -56.5t-37 -152.5q0 -94 35 -147.5t98 -53.5q35 0 57.5 11.5t79.5 60.5l-16 -262q-86 -33 -152 -33q-166 0 -266 116t-100 306z" />
<glyph unicode="&#xaa;" horiz-adv-x="581" d="M31 602v109h504v-109h-504zM31 1083q0 131 46 207t126 76t131 -98q-4 33 -6 86h207v-549h-205l4 45q0 23 4 49q-51 -106 -141 -106q-76 0 -121 78.5t-45 211.5zM236 1063q0 -100 45 -100q47 0 47 124q0 111 -43 111q-49 0 -49 -135z" />
<glyph unicode="&#xab;" horiz-adv-x="989" d="M55 492l312 411l157 -119l-231 -292l231 -293l-157 -119zM465 492l311 411l158 -119l-232 -292l232 -293l-158 -119z" />
<glyph unicode="&#xac;" horiz-adv-x="1024" d="M68 270v340h886v-610h-379v270h-507z" />
<glyph unicode="&#xad;" horiz-adv-x="444" d="M0 354v273h444v-273h-444z" />
<glyph unicode="&#xae;" horiz-adv-x="1556" d="M68 682q0 299 208.5 507t511.5 208q287 0 493 -211t206 -504q0 -295 -208 -504t-501 -209t-501.5 210t-208.5 503zM229 682q0 -233 162 -399t387.5 -166t385 166t159.5 399q0 231 -158.5 398t-380.5 167q-231 0 -393 -164.5t-162 -400.5zM483 272v820h252q158 0 240 -58 q109 -76 108 -219q0 -137 -127 -201l-4 -2l174 -340h-280l-103 263v-263h-260zM743 719q37 0 59.5 26.5t22.5 67.5q0 78 -82 84v-178z" />
<glyph unicode="&#xaf;" horiz-adv-x="1024" d="M190 1118v199h641v-199h-641z" />
<glyph unicode="&#xb0;" horiz-adv-x="1091" d="M209 1075q0 137 99.5 231.5t242.5 94.5q137 0 235.5 -95.5t98.5 -228.5q0 -135 -99.5 -230t-238.5 -95t-238.5 95t-99.5 228zM389 1075q0 -63 46 -109t109.5 -46t109.5 46t46 111q0 63 -45 109.5t-108 46.5q-66 0 -112 -46t-46 -112z" />
<glyph unicode="&#xb1;" d="M68 -55v213h956v-213h-956zM68 590v213h368v364h219v-364h369v-213h-369v-350h-219v350h-368z" />
<glyph unicode="&#xb2;" horiz-adv-x="720" d="M53 547l234 301q76 100 105.5 159.5t29.5 116.5q0 31 -13.5 49.5t-35.5 18.5q-49 0 -49 -96q0 -18 2 -33h-228q-2 16 -2 37q0 123 80 201.5t203 78.5q119 0 194.5 -75.5t75.5 -194.5q0 -176 -211 -375q102 6 201 6v-194h-586z" />
<glyph unicode="&#xb3;" horiz-adv-x="720" d="M78 774v19h227q2 -72 53 -72q25 0 41.5 19.5t16.5 50.5q0 80 -90 79q-16 0 -41 -2v183l30 -2q88 -6 88 79q0 63 -43 64q-20 0 -28 -12.5t-13 -53.5h-225q8 117 82 185.5t191 68.5q113 0 188.5 -68.5t75.5 -170.5q0 -111 -96 -172q109 -61 108 -189q0 -109 -81 -178.5 t-206 -69.5q-123 0 -200.5 68t-77.5 174z" />
<glyph unicode="&#xb4;" horiz-adv-x="1024" d="M403 1085l97 304h286l-180 -304h-203z" />
<glyph unicode="&#xb5;" horiz-adv-x="1021" d="M82 -420v1376h354v-538q0 -84 15.5 -113t60.5 -29q43 0 58.5 30t15.5 112v538h354v-587q0 -205 -137 -301q-125 -88 -287 -88q-78 0 -158 28l80 -428h-356z" />
<glyph unicode="&#xb6;" horiz-adv-x="1091" d="M41 1012q0 354 340 354h670v-322h-136v-1247h-237v1247h-160v-1247h-237v899q-113 4 -176.5 88.5t-63.5 227.5z" />
<glyph unicode="&#xb7;" horiz-adv-x="598" d="M92 494q0 84 60.5 144t144.5 60q88 0 148.5 -61.5t60.5 -149.5q0 -82 -61.5 -142t-145.5 -60t-145.5 61.5t-61.5 147.5z" />
<glyph unicode="&#xb8;" horiz-adv-x="1024" d="M393 -348l201 252l166 -109l-232 -239z" />
<glyph unicode="&#xb9;" horiz-adv-x="720" d="M188 1167v199h322v-821l-231 2v620h-91z" />
<glyph unicode="&#xba;" horiz-adv-x="573" d="M31 1079q0 129 69.5 208t182.5 79q121 0 189.5 -78t68.5 -215q0 -127 -70 -202.5t-188 -75.5q-115 0 -183.5 76.5t-68.5 207.5zM33 602v109h504v-109h-504zM229 1081q0 -59 15.5 -96t42.5 -37q25 0 40 37t15 94q0 59 -15.5 96t-41.5 37q-25 0 -40.5 -37t-15.5 -94z" />
<glyph unicode="&#xbb;" horiz-adv-x="989" d="M55 199l232 293l-232 292l160 119l309 -411l-309 -412zM465 199l231 293l-231 292l160 119l309 -411l-309 -412z" />
<glyph unicode="&#xbc;" horiz-adv-x="1728" d="M188 1167v199h322v-821l-231 2v620h-91zM393 -10l789 1466l151 -80l-792 -1466zM1063 164v176l254 479h282v-473h70v-182h-70v-164h-233v164h-303zM1262 346h112l2 148q0 2 4 71q-71 -149 -118 -219z" />
<glyph unicode="&#xbd;" horiz-adv-x="1728" d="M188 1167v199h322v-821l-231 2v620h-91zM393 -10l789 1466l151 -80l-792 -1466zM1059 0l233 301q76 100 105.5 159.5t29.5 117.5q0 31 -13 49t-36 18q-49 0 -49 -96q0 -18 2 -33h-227q-2 16 -2 37q0 123 80 202t202 79q119 0 195 -76t76 -195q0 -176 -211 -375 q100 6 201 7v-195h-586z" />
<glyph unicode="&#xbe;" horiz-adv-x="1728" d="M78 774v19h227q2 -72 53 -72q25 0 41.5 19.5t16.5 50.5q0 80 -90 79q-16 0 -41 -2v183l30 -2q88 -6 88 79q0 63 -43 64q-20 0 -28 -12.5t-13 -53.5h-225q8 117 82 185.5t191 68.5q113 0 188.5 -68.5t75.5 -170.5q0 -111 -96 -172q109 -61 108 -189q0 -109 -81 -178.5 t-206 -69.5q-123 0 -200.5 68t-77.5 174zM393 -10l789 1466l151 -80l-792 -1466zM1063 164v176l254 479h282v-473h70v-182h-70v-164h-233v164h-303zM1262 346h112l2 148q0 2 4 71q-71 -149 -118 -219z" />
<glyph unicode="&#xbf;" horiz-adv-x="1040" d="M82 2q0 147 68.5 246.5t193.5 132.5v141h350v-334q-25 2 -55 2q-100 0 -145 -43t-45 -137q0 -152 77 -151q76 0 76 155h356q0 -162 -59 -266q-49 -88 -151.5 -141t-221.5 -53q-195 0 -319.5 126.5t-124.5 321.5zM309 831q0 84 61.5 144.5t147.5 60.5q84 0 145.5 -61.5 t61.5 -145.5q0 -86 -61.5 -147t-145.5 -61q-88 0 -148.5 61t-60.5 149z" />
<glyph unicode="&#xc0;" d="M10 0l328 1366h453l288 -1366h-383l-26 174h-248l-31 -174h-381zM289 1784h289l88 -309h-205zM471 467h156l-25 160q0 4 -14 116l-10 82l-11 111l-10 104l-14 -108q-27 -219 -33 -250z" />
<glyph unicode="&#xc1;" d="M10 0l328 1366h453l288 -1366h-383l-26 174h-248l-31 -174h-381zM471 467h156l-25 160q0 4 -14 116l-10 82l-11 111l-10 104l-14 -108q-27 -219 -33 -250zM473 1475l88 309h289l-172 -309h-205z" />
<glyph unicode="&#xc2;" d="M10 0l328 1366h453l288 -1366h-383l-26 174h-248l-31 -174h-381zM256 1475l178 282h314l167 -282h-276l-72 122l-78 -122h-233zM471 467h156l-25 160q0 4 -14 116l-10 82l-11 111l-10 104l-14 -108q-27 -219 -33 -250z" />
<glyph unicode="&#xc3;" d="M10 0l328 1366h453l288 -1366h-383l-26 174h-248l-31 -174h-381zM225 1475q0 55 4 81q12 82 68.5 135.5t134.5 53.5q41 0 70.5 -8t120.5 -47q37 -14 57 -15q55 0 57 76h185v-29q0 -109 -60.5 -176t-154.5 -67q-59 0 -154 43q-55 27 -86 26q-53 0 -55 -73h-187zM471 467 h156l-25 160q0 4 -14 116l-10 82l-11 111l-10 104l-14 -108q-27 -219 -33 -250z" />
<glyph unicode="&#xc4;" d="M10 0l328 1366h453l288 -1366h-383l-26 174h-248l-31 -174h-381zM221 1622q0 61 43 104t104.5 43t104.5 -43t43 -104q0 -59 -44 -103t-103 -44q-61 0 -104.5 43t-43.5 104zM471 467h156l-25 160q0 4 -14 116l-10 82l-11 111l-10 104l-14 -108q-27 -219 -33 -250z M627 1624.5q0 61.5 44 104.5t103 43q63 0 106.5 -44.5t43.5 -105.5q0 -59 -44 -103t-104 -44q-61 0 -105 44t-44 105.5z" />
<glyph unicode="&#xc5;" d="M10 0l328 1366h453l288 -1366h-383l-26 174h-248l-31 -174h-381zM395 1638.5q0 73.5 52.5 126t123.5 52.5q76 0 127.5 -52.5t51.5 -128.5q0 -72 -52.5 -124t-124.5 -52q-74 0 -126 52.5t-52 126zM471 467h156l-25 160q0 4 -14 116l-10 82l-11 111l-10 104l-14 -108 q-27 -219 -33 -250zM498 1638.5q0 -30.5 22.5 -53t53 -22.5t53 22.5t22.5 50.5q0 33 -22.5 55.5t-53 22.5t-53 -22.5t-22.5 -53z" />
<glyph unicode="&#xc6;" horiz-adv-x="1259" d="M0 0l315 1366h883v-322h-367l31 -198h307v-309h-254l37 -209h246v-328h-526l-25 174h-235l-31 -174h-381zM457 459h151l-47 350q-8 55 -22 227l-17 -139q-8 -61 -8 -65.5t-3 -29t-7 -46.5z" />
<glyph unicode="&#xc7;" horiz-adv-x="911" d="M61 678q0 340 179 532q168 180 426 181q94 0 182 -33v-391q-82 82 -170 82q-113 0 -176.5 -97.5t-63.5 -267.5q0 -166 61.5 -259t172.5 -93q94 0 192 88l-22 -395q-121 -49 -219 -50q-258 0 -418 207q-144 187 -144 496zM305 -397l248 301l188 -121l-286 -272z" />
<glyph unicode="&#xc8;" horiz-adv-x="841" d="M96 0v1366h686v-322h-317v-198h285v-309h-285v-209h317v-328h-686zM180 1784h289l88 -309h-205z" />
<glyph unicode="&#xc9;" horiz-adv-x="841" d="M96 0v1366h686v-322h-317v-198h285v-309h-285v-209h317v-328h-686zM350 1475l88 309h289l-172 -309h-205z" />
<glyph unicode="&#xca;" horiz-adv-x="841" d="M96 0v1366h686v-322h-317v-198h285v-309h-285v-209h317v-328h-686zM117 1475l178 282h313l168 -282h-276l-72 122l-78 -122h-233z" />
<glyph unicode="&#xcb;" horiz-adv-x="841" d="M94 1622q0 61 43 104t104.5 43t104.5 -43t43 -104q0 -59 -44 -103t-103 -44q-61 0 -104.5 43t-43.5 104zM96 0v1366h686v-322h-317v-198h285v-309h-285v-209h317v-328h-686zM500 1624.5q0 61.5 44 104.5t103 43q63 0 106.5 -44.5t43.5 -105.5q0 -59 -44 -103t-104 -44 q-61 0 -105 44t-44 105.5z" />
<glyph unicode="&#xcc;" horiz-adv-x="559" d="M10 1784h289l88 -309h-205zM96 0v1366h369v-1366h-369z" />
<glyph unicode="&#xcd;" horiz-adv-x="559" d="M96 0v1366h369v-1366h-369zM188 1475l88 309h289l-172 -309h-205z" />
<glyph unicode="&#xce;" horiz-adv-x="559" d="M-2 1475l166 282h311l156 -282h-279l-57 122l-64 -122h-233zM96 0v1366h369v-1366h-369z" />
<glyph unicode="&#xcf;" horiz-adv-x="559" d="M-8 1605.5q0 53.5 38 91.5t93 38q53 0 91 -38t38 -91.5t-38 -92t-91 -38.5t-92 38.5t-39 92zM94 0v1366h369v-1366h-369zM336 1605.5q0 53.5 38 91.5t91 38q55 0 93 -39t38 -92q0 -51 -38 -90t-91 -39t-92 38.5t-39 92z" />
<glyph unicode="&#xd0;" horiz-adv-x="1099" d="M14 594v211h82v561h320q295 0 454 -180q168 -188 168 -504q0 -340 -168 -524q-145 -158 -430 -158h-344v594h-82zM465 330q197 10 197 342q0 219 -95 317q-33 33 -102 35v-219h108v-211h-108v-264z" />
<glyph unicode="&#xd1;" horiz-adv-x="1153" d="M96 0v1366h353l184 -479q23 -57 61 -182q27 -76 51 -162q-41 354 -40 516v307h352v-1366h-352l-185 502q-70 193 -94 284q23 -283 23 -438v-348h-353zM256 1475q0 55 4 81q12 82 68.5 135.5t134.5 53.5q41 0 70.5 -8t119.5 -47q35 -14 58 -15q55 0 57 76h184v-29 q0 -109 -60.5 -176t-154.5 -67q-59 0 -153 43q-55 27 -86 26q-53 0 -56 -73h-186z" />
<glyph unicode="&#xd2;" horiz-adv-x="1161" d="M61 694q0 336 162 523q150 174 363 174q236 0 375 -192.5t139 -520.5q0 -313 -141.5 -508t-370.5 -195q-104 0 -204.5 49.5t-168.5 133.5q-154 190 -154 536zM317 1784h289l88 -309h-205zM444 684q0 -172 36 -267t99.5 -95t100.5 94t37 260q0 371 -131 371 q-66 0 -104 -97.5t-38 -265.5z" />
<glyph unicode="&#xd3;" horiz-adv-x="1161" d="M61 694q0 336 162 523q150 174 363 174q236 0 375 -192.5t139 -520.5q0 -313 -141.5 -508t-370.5 -195q-104 0 -204.5 49.5t-168.5 133.5q-154 190 -154 536zM444 684q0 -172 36 -267t99.5 -95t100.5 94t37 260q0 371 -131 371q-66 0 -104 -97.5t-38 -265.5zM481 1475 l88 309h289l-172 -309h-205z" />
<glyph unicode="&#xd4;" horiz-adv-x="1161" d="M61 694q0 336 162 523q150 174 363 174q236 0 375 -192.5t139 -520.5q0 -313 -141.5 -508t-370.5 -195q-104 0 -204.5 49.5t-168.5 133.5q-154 190 -154 536zM279 1475l178 282h313l168 -282h-276l-72 122l-78 -122h-233zM444 684q0 -172 36 -267t99.5 -95t100.5 94 t37 260q0 371 -131 371q-66 0 -104 -97.5t-38 -265.5z" />
<glyph unicode="&#xd5;" horiz-adv-x="1161" d="M61 694q0 336 162 523q150 174 363 174q236 0 375 -192.5t139 -520.5q0 -313 -141.5 -508t-370.5 -195q-104 0 -204.5 49.5t-168.5 133.5q-154 190 -154 536zM260 1475q0 55 4 81q12 82 68.5 135.5t134.5 53.5q41 0 70.5 -8t119.5 -47q35 -14 58 -15q55 0 57 76h184v-29 q0 -109 -60 -176t-155 -67q-59 0 -153 43q-55 27 -86 26q-53 0 -56 -73h-186zM444 684q0 -172 36 -267t99.5 -95t100.5 94t37 260q0 371 -131 371q-66 0 -104 -97.5t-38 -265.5z" />
<glyph unicode="&#xd6;" horiz-adv-x="1161" d="M61 694q0 336 162 523q150 174 363 174q236 0 375 -192.5t139 -520.5q0 -313 -141.5 -508t-370.5 -195q-104 0 -204.5 49.5t-168.5 133.5q-154 190 -154 536zM238 1622q0 61 43 104t104 43t104 -43t43 -104q0 -59 -44 -103t-103 -44q-61 0 -104 43t-43 104zM444 684 q0 -172 36 -267t99.5 -95t100.5 94t37 260q0 371 -131 371q-66 0 -104 -97.5t-38 -265.5zM643 1624.5q0 61.5 44 104.5t104 43q63 0 106 -44.5t43 -105.5q0 -59 -44 -103t-103 -44q-61 0 -105.5 44t-44.5 105.5z" />
<glyph unicode="&#xd7;" d="M111 975l155 158l283 -283l278 280l152 -153l-279 -279l281 -280l-156 -158l-280 283l-281 -281l-151 154l278 278z" />
<glyph unicode="&#xd8;" horiz-adv-x="1161" d="M35 49l125 189q-55 106 -77 200t-22 236q0 330 136 516q143 201 385 201q174 0 323 -136l92 131l133 -92l-122 -176q90 -195 90 -422q0 -336 -150 -536q-63 -84 -165.5 -134.5t-209.5 -50.5q-166 0 -311 123l-98 -137zM432 707q0 -10 4 -105l238 371q-33 84 -99 84 q-63 0 -103 -97t-40 -253zM485 389q27 -80 97 -80q66 0 105.5 96.5t39.5 249.5q0 14 -4 105z" />
<glyph unicode="&#xd9;" horiz-adv-x="1116" d="M96 453v913h369v-881q0 -88 21.5 -125.5t72.5 -37.5q59 0 80 47q14 33 14 114v883h369v-967q0 -111 -30.5 -182.5t-106.5 -134.5q-121 -106 -307 -107q-213 0 -349 119q-133 119 -133 359zM289 1784h289l88 -309h-205z" />
<glyph unicode="&#xda;" horiz-adv-x="1116" d="M96 453v913h369v-881q0 -88 21.5 -125.5t72.5 -37.5q59 0 80 47q14 33 14 114v883h369v-967q0 -111 -30.5 -182.5t-106.5 -134.5q-121 -106 -307 -107q-213 0 -349 119q-133 119 -133 359zM467 1475l88 309h289l-172 -309h-205z" />
<glyph unicode="&#xdb;" horiz-adv-x="1116" d="M96 453v913h369v-881q0 -88 21.5 -125.5t72.5 -37.5q59 0 80 47q14 33 14 114v883h369v-967q0 -111 -30.5 -182.5t-106.5 -134.5q-121 -106 -307 -107q-213 0 -349 119q-133 119 -133 359zM256 1475l178 282h314l167 -282h-276l-72 122l-78 -122h-233z" />
<glyph unicode="&#xdc;" horiz-adv-x="1116" d="M96 453v913h369v-881q0 -88 21.5 -125.5t72.5 -37.5q59 0 80 47q14 33 14 114v883h369v-967q0 -111 -30.5 -182.5t-106.5 -134.5q-121 -106 -307 -107q-213 0 -349 119q-133 119 -133 359zM215 1622q0 61 43 104t104.5 43t104.5 -43t43 -104q0 -59 -44 -103t-104 -44 q-61 0 -104 43t-43 104zM621 1624.5q0 61.5 44 104.5t103 43q63 0 106.5 -44.5t43.5 -105.5q0 -59 -44.5 -103t-103.5 -44q-61 0 -105 44t-44 105.5z" />
<glyph unicode="&#xdd;" horiz-adv-x="1024" d="M0 1366h385l68 -203q33 -102 61 -219q23 82 64 217l65 205h383l-317 -786v-580h-369v580zM440 1475l88 309h289l-172 -309h-205z" />
<glyph unicode="&#xde;" horiz-adv-x="1034" d="M96 0v1366h369v-190q186 -6 293 -52q115 -51 179 -161.5t64 -253.5q0 -131 -51 -233.5t-141 -158.5q-102 -61 -287 -61h-57v-256h-369zM465 563q164 0 164 154q0 70 -39 115t-98 45q-16 0 -27 -3v-311z" />
<glyph unicode="&#xdf;" horiz-adv-x="1077" d="M23 672v284h98q0 184 22 267q35 129 151 212t257 83q174 0 296 -115t122 -279q0 -113 -49.5 -187.5t-135.5 -96.5q78 -14 121 -52q117 -106 117 -303q0 -119 -48 -227t-128 -170q-106 -82 -281 -88v293q90 27 90 190q0 176 -90 189v284q68 6 68 125t-80 119 q-41 0 -59.5 -29.5t-18.5 -99.5v-1071h-354v672h-98z" />
<glyph unicode="&#xe0;" horiz-adv-x="1017" d="M55 485q0 227 81 359.5t220 132.5q76 0 129.5 -40t100.5 -132l-11 151h361v-956h-354q2 20 2 45q0 12 1 24.5t2 19.5t1 9q0 20 6 64q-49 -96 -107.5 -139t-140.5 -43q-135 0 -213 134.5t-78 370.5zM250 1389h287l96 -304h-203zM414 446q0 -174 80 -174q84 0 84 217 q0 106 -17.5 150.5t-58.5 44.5q-88 0 -88 -238z" />
<glyph unicode="&#xe1;" horiz-adv-x="1017" d="M55 485q0 227 81 359.5t220 132.5q76 0 129.5 -40t100.5 -132l-11 151h361v-956h-354q2 20 2 45q0 12 1 24.5t2 19.5t1 9q0 20 6 64q-49 -96 -107.5 -139t-140.5 -43q-135 0 -213 134.5t-78 370.5zM414 446q0 -174 80 -174q84 0 84 217q0 106 -17.5 150.5t-58.5 44.5 q-88 0 -88 -238zM422 1085l96 304h287l-180 -304h-203z" />
<glyph unicode="&#xe2;" horiz-adv-x="1017" d="M55 485q0 227 81 359.5t220 132.5q76 0 129.5 -40t100.5 -132l-11 151h361v-956h-354q2 20 2 45q0 12 1 24.5t2 19.5t1 9q0 20 6 64q-49 -96 -107.5 -139t-140.5 -43q-135 0 -213 134.5t-78 370.5zM225 1085l158 285h319l146 -285h-260l-72 140l-80 -140h-211zM414 446 q0 -174 80 -174q84 0 84 217q0 106 -17.5 150.5t-58.5 44.5q-88 0 -88 -238z" />
<glyph unicode="&#xe3;" horiz-adv-x="1017" d="M55 485q0 227 81 359.5t220 132.5q76 0 129.5 -40t100.5 -132l-11 151h361v-956h-354q2 20 2 45q0 12 1 24.5t2 19.5t1 9q0 20 6 64q-49 -96 -107.5 -139t-140.5 -43q-135 0 -213 134.5t-78 370.5zM197 1085q0 55 4 82q12 82 68.5 135.5t133.5 53.5q41 0 71 -8.5 t120 -47.5q37 -14 57 -14q55 0 58 76h184v-29q0 -109 -60.5 -176t-154.5 -67q-59 0 -154 43q-55 27 -86 26q-53 0 -55 -74h-186zM414 446q0 -174 80 -174q84 0 84 217q0 106 -17.5 150.5t-58.5 44.5q-88 0 -88 -238z" />
<glyph unicode="&#xe4;" horiz-adv-x="1017" d="M55 485q0 227 81 359.5t220 132.5q76 0 129.5 -40t100.5 -132l-11 151h361v-956h-354q2 20 2 45q0 12 1 24.5t2 19.5t1 9q0 20 6 64q-49 -96 -107.5 -139t-140.5 -43q-135 0 -213 134.5t-78 370.5zM186 1235q0 61 43 104t105 43q63 0 106 -44t43 -107q0 -59 -44 -102.5 t-103 -43.5q-61 0 -105.5 44.5t-44.5 105.5zM414 446q0 -174 80 -174q84 0 84 217q0 106 -17.5 150.5t-58.5 44.5q-88 0 -88 -238zM580 1235q0 61 43 104t104 43q63 0 106.5 -44t43.5 -107q0 -59 -44.5 -102.5t-103.5 -43.5q-61 0 -105 44.5t-44 105.5z" />
<glyph unicode="&#xe5;" horiz-adv-x="1017" d="M55 485q0 227 81 359.5t220 132.5q76 0 129.5 -40t100.5 -132l-11 151h361v-956h-354q2 20 2 45q0 12 1 24.5t2 19.5t1 9q0 20 6 64q-49 -96 -107.5 -139t-140.5 -43q-135 0 -213 134.5t-78 370.5zM328 1270q0 82 57 139t139 57t139.5 -58t57.5 -142q0 -78 -58.5 -135.5 t-138.5 -57.5q-82 0 -139 57.5t-57 139.5zM414 446q0 -174 80 -174q84 0 84 217q0 106 -17.5 150.5t-58.5 44.5q-88 0 -88 -238zM440 1270q0 -35 24.5 -59.5t59.5 -24.5q33 0 57.5 24.5t24.5 59.5t-23.5 59.5t-58.5 24.5t-59.5 -24.5t-24.5 -59.5z" />
<glyph unicode="&#xe6;" horiz-adv-x="1505" d="M55 311q0 139 94.5 222t253.5 83q70 0 181 -20q-18 117 -189 117q-125 0 -235 -56v279q162 43 284 43q178 0 295 -94q135 94 275 94q197 0 316.5 -139.5t119.5 -368.5q0 -37 -2 -65h-522q6 -164 92 -164q57 0 82 71l338 -6q-39 -147 -117 -221q-113 -106 -311 -106 q-158 0 -283 98q-147 -98 -307 -98q-158 0 -261.5 94t-103.5 237zM401 305q0 -37 26 -59.5t67 -22.5t66.5 22.5t25.5 61.5t-25.5 61.5t-66.5 22.5t-67 -23.5t-26 -62.5zM926 596h178q-18 133 -92 133t-86 -133z" />
<glyph unicode="&#xe7;" horiz-adv-x="620" d="M55 483q0 211 129 352.5t324 141.5q10 0 72 -4v-311q-158 -10 -158 -170q0 -74 39 -127.5t94 -53.5h25v-325q-55 -6 -97 -6q-182 0 -293 122q-63 70 -99 173.5t-36 207.5zM164 -348l201 252l165 -109l-231 -239z" />
<glyph unicode="&#xe8;" horiz-adv-x="985" d="M55 461q0 227 125 370.5t322 143.5q195 0 312.5 -139.5t117.5 -368.5q0 -35 -2 -64h-520q8 -147 82 -147q61 0 79 68l347 -7q-35 -164 -144.5 -250.5t-279.5 -86.5q-205 0 -322 128t-117 353zM221 1389h287l96 -304h-203zM414 594h166q-6 121 -84 121q-76 0 -82 -121z " />
<glyph unicode="&#xe9;" horiz-adv-x="985" d="M55 461q0 227 125 370.5t322 143.5q195 0 312.5 -139.5t117.5 -368.5q0 -35 -2 -64h-520q8 -147 82 -147q61 0 79 68l347 -7q-35 -164 -144.5 -250.5t-279.5 -86.5q-205 0 -322 128t-117 353zM406 1085l96 304h286l-180 -304h-202zM414 594h166q-6 121 -84 121 q-76 0 -82 -121z" />
<glyph unicode="&#xea;" horiz-adv-x="985" d="M55 461q0 227 125 370.5t322 143.5q195 0 312.5 -139.5t117.5 -368.5q0 -35 -2 -64h-520q8 -147 82 -147q61 0 79 68l347 -7q-35 -164 -144.5 -250.5t-279.5 -86.5q-205 0 -322 128t-117 353zM215 1085l158 285h319l146 -285h-260l-72 140l-80 -140h-211zM414 594h166 q-6 121 -84 121q-76 0 -82 -121z" />
<glyph unicode="&#xeb;" horiz-adv-x="985" d="M55 461q0 227 125 370.5t322 143.5q195 0 312.5 -139.5t117.5 -368.5q0 -35 -2 -64h-520q8 -147 82 -147q61 0 79 68l347 -7q-35 -164 -144.5 -250.5t-279.5 -86.5q-205 0 -322 128t-117 353zM156 1235q0 61 43 104t104 43q63 0 106.5 -44t43.5 -107q0 -59 -44 -102.5 t-104 -43.5q-61 0 -105 44.5t-44 105.5zM414 594h166q-6 121 -84 121q-76 0 -82 -121zM549 1235q0 61 43 104t104 43q63 0 106.5 -44t43.5 -107q0 -59 -44 -102.5t-104 -43.5q-61 0 -105 44.5t-44 105.5z" />
<glyph unicode="&#xec;" horiz-adv-x="518" d="M-14 1389h286l97 -304h-203zM82 0v956h354v-956h-354z" />
<glyph unicode="&#xed;" horiz-adv-x="518" d="M82 0v956h354v-956h-354zM158 1085l96 304h287l-181 -304h-202z" />
<glyph unicode="&#xee;" horiz-adv-x="518" d="M-4 1085l143 285h320l133 -285h-260l-58 140l-67 -140h-211zM82 0v956h354v-956h-354z" />
<glyph unicode="&#xef;" horiz-adv-x="518" d="M-23 1216.5q0 53.5 38 91.5t94 38q53 0 91 -38t38 -91.5t-38 -92.5t-91.5 -39t-92.5 39t-39 92.5zM82 0v956h354v-956h-354zM307 1216.5q0 53.5 38 91.5t91 38q55 0 93 -39t38 -93q0 -51 -37.5 -90t-91 -39t-92.5 39t-39 92.5z" />
<glyph unicode="&#xf0;" horiz-adv-x="999" d="M55 475q0 293 197 432q94 66 229 68q-39 98 -94 164l-223 -123l-74 129l189 102q-18 14 -33 21q-90 55 -162 86l92 143q57 -12 153.5 -54t153.5 -81l236 129l72 -133l-173 -94q328 -287 328 -756q0 -254 -119 -391q-121 -137 -327 -137q-205 0 -325 133t-120 362z M397 477q0 -104 28 -167.5t75 -63.5q45 0 72.5 63.5t27.5 163.5q0 106 -27.5 170t-74.5 64q-45 0 -73 -64t-28 -166z" />
<glyph unicode="&#xf1;" horiz-adv-x="1005" d="M82 0v956h354q-4 -90 -4 -100l-4 -82q86 203 252 203q59 0 112.5 -29.5t84.5 -81.5q47 -76 47 -213v-653h-355v506q0 66 -12 91.5t-45 25.5q-76 0 -76 -142v-481h-354zM176 1085q0 55 4 82q12 82 68.5 135.5t134.5 53.5q41 0 70.5 -8.5t119.5 -47.5q37 -14 58 -14 q55 0 57 76h184v-29q0 -109 -60 -176t-155 -67q-59 0 -153 43q-55 27 -86 26q-53 0 -56 -74h-186z" />
<glyph unicode="&#xf2;" horiz-adv-x="997" d="M55 475q0 225 121 363.5t320 138.5q211 0 329.5 -136t118.5 -378q0 -221 -122 -352t-328 -131q-201 0 -320 134t-119 361zM227 1389h287l96 -304h-202zM399 479.5q0 -102.5 28 -167t73 -64.5t72.5 63.5t27.5 163.5q0 104 -27.5 169t-72.5 65t-73 -63.5t-28 -166z" />
<glyph unicode="&#xf3;" horiz-adv-x="997" d="M55 475q0 225 121 363.5t320 138.5q211 0 329.5 -136t118.5 -378q0 -221 -122 -352t-328 -131q-201 0 -320 134t-119 361zM397 1085l97 304h286l-180 -304h-203zM399 479.5q0 -102.5 28 -167t73 -64.5t72.5 63.5t27.5 163.5q0 104 -27.5 169t-72.5 65t-73 -63.5t-28 -166 z" />
<glyph unicode="&#xf4;" horiz-adv-x="997" d="M55 475q0 225 121 363.5t320 138.5q211 0 329.5 -136t118.5 -378q0 -221 -122 -352t-328 -131q-201 0 -320 134t-119 361zM215 1085l158 285h319l146 -285h-260l-72 140l-80 -140h-211zM399 479.5q0 -102.5 28 -167t73 -64.5t72.5 63.5t27.5 163.5q0 104 -27.5 169 t-72.5 65t-73 -63.5t-28 -166z" />
<glyph unicode="&#xf5;" horiz-adv-x="997" d="M55 475q0 225 121 363.5t320 138.5q211 0 329.5 -136t118.5 -378q0 -221 -122 -352t-328 -131q-201 0 -320 134t-119 361zM172 1085q0 55 4 82q12 82 68.5 135.5t134.5 53.5q41 0 70.5 -8.5t119.5 -47.5q37 -14 58 -14q55 0 57 76h184v-29q0 -109 -60 -176t-155 -67 q-59 0 -153 43q-55 27 -86 26q-53 0 -56 -74h-186zM399 479.5q0 -102.5 28 -167t73 -64.5t72.5 63.5t27.5 163.5q0 104 -27.5 169t-72.5 65t-73 -63.5t-28 -166z" />
<glyph unicode="&#xf6;" horiz-adv-x="997" d="M55 475q0 225 121 363.5t320 138.5q211 0 329.5 -136t118.5 -378q0 -221 -122 -352t-328 -131q-201 0 -320 134t-119 361zM162 1235q0 61 43 104t104 43q63 0 106.5 -44t43.5 -107q0 -59 -44 -102.5t-104 -43.5q-61 0 -105 44.5t-44 105.5zM399 479.5q0 -102.5 28 -167 t73 -64.5t72.5 63.5t27.5 163.5q0 104 -27.5 169t-72.5 65t-73 -63.5t-28 -166zM555 1235q0 61 43 104t104 43q63 0 106.5 -44t43.5 -107q0 -59 -44 -102.5t-103 -43.5q-61 0 -105.5 44.5t-44.5 105.5z" />
<glyph unicode="&#xf7;" horiz-adv-x="1091" d="M82 590v213h928v-213h-928zM377 315.5q0 69.5 49 118.5t119 49q72 0 121 -50t49 -122q0 -68 -49.5 -117t-118.5 -49q-72 0 -121 50.5t-49 120zM377 1081.5q0 69.5 49 118.5t119 49q72 0 121 -50t49 -122q0 -68 -49.5 -117t-118.5 -49q-72 0 -121 50.5t-49 120z" />
<glyph unicode="&#xf8;" horiz-adv-x="997" d="M55 -16l103 149q-102 145 -103 342q0 225 121 363.5t320 138.5q115 0 215 -47l94 133l139 -94l-102 -148q102 -143 102 -352q0 -225 -122 -357t-328 -132q-109 0 -205 43l-94 -138zM399 479.5q0 -102.5 28 -167t73 -64.5t72.5 63.5t27.5 163.5q0 104 -27.5 169t-72.5 65 t-73 -63.5t-28 -166z" />
<glyph unicode="&#xf9;" horiz-adv-x="1021" d="M82 369v587h354v-538q0 -84 15.5 -113t60.5 -29q43 0 58.5 30t15.5 112v538h354v-587q0 -203 -137 -301q-125 -88 -293 -88q-166 0 -291 88q-137 98 -137 301zM231 1389h287l96 -304h-202z" />
<glyph unicode="&#xfa;" horiz-adv-x="1021" d="M82 369v587h354v-538q0 -84 15.5 -113t60.5 -29q43 0 58.5 30t15.5 112v538h354v-587q0 -203 -137 -301q-125 -88 -293 -88q-166 0 -291 88q-137 98 -137 301zM416 1085l96 304h287l-181 -304h-202z" />
<glyph unicode="&#xfb;" horiz-adv-x="1021" d="M82 369v587h354v-538q0 -84 15.5 -113t60.5 -29q43 0 58.5 30t15.5 112v538h354v-587q0 -203 -137 -301q-125 -88 -293 -88q-166 0 -291 88q-137 98 -137 301zM221 1085l158 285h319l146 -285h-260l-72 140l-80 -140h-211z" />
<glyph unicode="&#xfc;" horiz-adv-x="1021" d="M82 369v587h354v-538q0 -84 15.5 -113t60.5 -29q43 0 58.5 30t15.5 112v538h354v-587q0 -203 -137 -301q-125 -88 -293 -88q-166 0 -291 88q-137 98 -137 301zM174 1235q0 61 43 104t105 43q63 0 106 -44t43 -107q0 -59 -44 -102.5t-103 -43.5q-61 0 -105.5 44.5 t-44.5 105.5zM567 1235q0 61 43 104t105 43q63 0 106 -44t43 -107q0 -59 -44 -102.5t-103 -43.5q-61 0 -105.5 44.5t-44.5 105.5z" />
<glyph unicode="&#xfd;" horiz-adv-x="933" d="M0 956h356l68 -274q33 -137 45 -268q35 246 57 336l54 206h354l-440 -1357h-365l156 440zM379 1085l96 304h287l-180 -304h-203z" />
<glyph unicode="&#xfe;" horiz-adv-x="1013" d="M82 -428v1921h354v-537q0 -33 -8 -135q45 84 95 120t124 36q139 0 225 -138.5t86 -361.5q0 -229 -82.5 -363t-222.5 -134q-70 0 -121 34.5t-104 114.5q8 -90 8 -158v-399h-354zM426 483q0 -94 21.5 -149t58.5 -55q39 0 62.5 56t23.5 152q0 197 -84 197q-82 0 -82 -201z " />
<glyph unicode="&#xff;" horiz-adv-x="933" d="M0 956h356l68 -274q33 -137 45 -268q35 246 57 336l54 206h354l-440 -1357h-365l156 440zM129 1235q0 61 43 104t104 43q63 0 106.5 -44t43.5 -107q0 -59 -44 -102.5t-103 -43.5q-61 0 -105.5 44.5t-44.5 105.5zM522 1235q0 61 43 104t105 43q63 0 106 -44t43 -107 q0 -59 -44 -102.5t-103 -43.5q-61 0 -105.5 44.5t-44.5 105.5z" />
<glyph unicode="&#x152;" horiz-adv-x="1449" d="M61 686q0 344 164 541q59 72 143.5 112.5t168.5 40.5q18 0 125 -8q31 -6 69 -6h655v-322h-309v-198h279v-309h-279v-209h312v-328h-687q-12 -2 -28 -2q-106 -14 -152 -14q-88 0 -175 50t-146 134q-140 194 -140 518zM444 670q0 -168 36 -259.5t102 -91.5q133 0 133 369 q0 358 -129 359q-68 0 -105 -98.5t-37 -278.5z" />
<glyph unicode="&#x153;" horiz-adv-x="1509" d="M55 487q0 225 122 358.5t331 133.5q137 0 260 -70q117 70 250 70q197 0 317.5 -137t120.5 -359q0 -45 -2 -75h-526q10 -164 94 -164q59 0 82 73l336 -8q-37 -154 -150.5 -241.5t-275.5 -87.5q-135 0 -264 67q-102 -68 -232 -67q-215 0 -339 134.5t-124 372.5zM401 481 q0 -104 28 -168.5t73 -64.5t72.5 63.5t27.5 165.5q0 109 -27.5 172.5t-72.5 63.5t-73 -65t-28 -167zM930 598h178q-18 131 -94 131q-72 0 -84 -131z" />
<glyph unicode="&#x178;" horiz-adv-x="1024" d="M0 1366h385l68 -203q33 -102 61 -219q23 82 64 217l65 205h383l-317 -786v-580h-369v580zM168 1622q0 61 43 104t104.5 43t104.5 -43t43 -104q0 -59 -44 -103t-104 -44q-61 0 -104 43t-43 104zM573 1624.5q0 61.5 44.5 104.5t103.5 43q63 0 106 -44.5t43 -105.5 q0 -59 -44 -103t-103 -44q-61 0 -105.5 44t-44.5 105.5z" />
<glyph unicode="&#x2c6;" horiz-adv-x="1024" d="M201 1085l157 285h320l145 -285h-260l-71 140l-80 -140h-211z" />
<glyph unicode="&#x2dc;" horiz-adv-x="1024" d="M164 1085q0 55 4 82q12 82 68.5 135.5t134.5 53.5q41 0 70.5 -8.5t119.5 -47.5q37 -14 57 -14q55 0 58 76h184v-29q0 -109 -60.5 -176t-154.5 -67q-59 0 -153 43q-55 27 -86 26q-53 0 -56 -74h-186z" />
<glyph unicode="&#x2000;" horiz-adv-x="908" />
<glyph unicode="&#x2001;" horiz-adv-x="1817" />
<glyph unicode="&#x2002;" horiz-adv-x="908" />
<glyph unicode="&#x2003;" horiz-adv-x="1817" />
<glyph unicode="&#x2004;" horiz-adv-x="605" />
<glyph unicode="&#x2005;" horiz-adv-x="454" />
<glyph unicode="&#x2006;" horiz-adv-x="302" />
<glyph unicode="&#x2007;" horiz-adv-x="302" />
<glyph unicode="&#x2008;" horiz-adv-x="227" />
<glyph unicode="&#x2009;" horiz-adv-x="363" />
<glyph unicode="&#x200a;" horiz-adv-x="100" />
<glyph unicode="&#x2010;" horiz-adv-x="444" d="M0 354v273h444v-273h-444z" />
<glyph unicode="&#x2011;" horiz-adv-x="444" d="M0 354v273h444v-273h-444z" />
<glyph unicode="&#x2013;" d="M121 354v273h850v-273h-850z" />
<glyph unicode="&#x2014;" horiz-adv-x="1331" d="M0 354v273h1331v-273h-1331z" />
<glyph unicode="&#x2018;" horiz-adv-x="679" d="M82 709l237 657h291l-166 -657h-362z" />
<glyph unicode="&#x2019;" horiz-adv-x="665" d="M68 709l168 657h360l-238 -657h-290z" />
<glyph unicode="&#x201a;" horiz-adv-x="665" d="M68 -330l168 658h360l-238 -658h-290z" />
<glyph unicode="&#x201c;" horiz-adv-x="1163" d="M82 709l237 657h291l-166 -657h-362zM567 709l238 657h291l-168 -657h-361z" />
<glyph unicode="&#x201d;" horiz-adv-x="1163" d="M82 709l168 657h360l-237 -657h-291zM567 709l166 657h363l-238 -657h-291z" />
<glyph unicode="&#x201e;" horiz-adv-x="1150" d="M68 -330l168 658h360l-238 -658h-290zM553 -330l166 658h362l-237 -658h-291z" />
<glyph unicode="&#x2022;" horiz-adv-x="1366" d="M401 694q0 119 84 202t205 83q113 0 196 -84t83 -199q0 -119 -83 -201.5t-200 -82.5t-201 82.5t-84 199.5z" />
<glyph unicode="&#x2026;" horiz-adv-x="2048" d="M133 188q0 84 60.5 144.5t144.5 60.5q88 0 148.5 -61.5t60.5 -149.5q0 -82 -61.5 -142t-145.5 -60t-145.5 61t-61.5 147zM815 188q0 84 60.5 144.5t144.5 60.5q88 0 148.5 -61.5t60.5 -149.5q0 -82 -61.5 -142t-145.5 -60t-145.5 61t-61.5 147zM1499 188q0 84 60.5 144.5 t144.5 60.5q88 0 148.5 -61.5t60.5 -149.5q0 -82 -61.5 -142t-145.5 -60t-145.5 61t-61.5 147z" />
<glyph unicode="&#x202f;" horiz-adv-x="363" />
<glyph unicode="&#x2039;" horiz-adv-x="579" d="M55 492l312 411l157 -119l-231 -292l231 -293l-157 -119z" />
<glyph unicode="&#x203a;" horiz-adv-x="579" d="M55 199l232 293l-232 292l160 119l309 -411l-309 -412z" />
<glyph unicode="&#x205f;" horiz-adv-x="454" />
<glyph unicode="&#x20ac;" horiz-adv-x="1032" d="M63 580l37 192h88q23 283 186 451t414 168q98 0 181 -33l-70 -334q-43 25 -96 25q-98 0 -159.5 -72t-78.5 -205h277l-37 -192h-236q14 -117 75 -182.5t151 -65.5q80 0 147 51v-367q-96 -41 -197 -41q-231 0 -383.5 165t-173.5 440h-125z" />
<glyph unicode="&#x2122;" horiz-adv-x="1363" d="M-6 1169v197h469v-197h-123v-581h-227v581h-119zM483 588l95 778h278l57 -336l66 336h276l78 -778h-237l-19 399l-78 -399h-186l-63 381l-23 -381h-244z" />
</font>
</defs>
</svg>
